<svg width="22" height="22" viewBox="0 0 22 22" fill="none" xmlns="http://www.w3.org/2000/svg">
<path d="M11 12.8369C10.7403 12.8369 10.5227 12.7489 10.3473 12.5729C10.1713 12.3975 10.0833 12.18 10.0833 11.9202C10.0833 11.6605 10.1713 11.4427 10.3473 11.2667C10.5227 11.0913 10.7403 11.0036 11 11.0036C11.2597 11.0036 11.4776 11.0913 11.6536 11.2667C11.829 11.4427 11.9167 11.6605 11.9167 11.9202C11.9167 12.18 11.829 12.3975 11.6536 12.5729C11.4776 12.7489 11.2597 12.8369 11 12.8369ZM7.33333 12.8369C7.07361 12.8369 6.85575 12.7489 6.67975 12.5729C6.50436 12.3975 6.41667 12.18 6.41667 11.9202C6.41667 11.6605 6.50436 11.4427 6.67975 11.2667C6.85575 11.0913 7.07361 11.0036 7.33333 11.0036C7.59306 11.0036 7.81092 11.0913 7.98692 11.2667C8.16231 11.4427 8.25 11.6605 8.25 11.9202C8.25 12.18 8.16231 12.3975 7.98692 12.5729C7.81092 12.7489 7.59306 12.8369 7.33333 12.8369ZM14.6667 12.8369C14.4069 12.8369 14.1894 12.7489 14.014 12.5729C13.838 12.3975 13.75 12.18 13.75 11.9202C13.75 11.6605 13.838 11.4427 14.014 11.2667C14.1894 11.0913 14.4069 11.0036 14.6667 11.0036C14.9264 11.0036 15.1439 11.0913 15.3193 11.2667C15.4953 11.4427 15.5833 11.6605 15.5833 11.9202C15.5833 12.18 15.4953 12.3975 15.3193 12.5729C15.1439 12.7489 14.9264 12.8369 14.6667 12.8369ZM11 16.5036C10.7403 16.5036 10.5227 16.4156 10.3473 16.2396C10.1713 16.0642 10.0833 15.8466 10.0833 15.5869C10.0833 15.3272 10.1713 15.1096 10.3473 14.9342C10.5227 14.7582 10.7403 14.6702 11 14.6702C11.2597 14.6702 11.4776 14.7582 11.6536 14.9342C11.829 15.1096 11.9167 15.3272 11.9167 15.5869C11.9167 15.8466 11.829 16.0642 11.6536 16.2396C11.4776 16.4156 11.2597 16.5036 11 16.5036ZM7.33333 16.5036C7.07361 16.5036 6.85575 16.4156 6.67975 16.2396C6.50436 16.0642 6.41667 15.8466 6.41667 15.5869C6.41667 15.3272 6.50436 15.1096 6.67975 14.9342C6.85575 14.7582 7.07361 14.6702 7.33333 14.6702C7.59306 14.6702 7.81092 14.7582 7.98692 14.9342C8.16231 15.1096 8.25 15.3272 8.25 15.5869C8.25 15.8466 8.16231 16.0642 7.98692 16.2396C7.81092 16.4156 7.59306 16.5036 7.33333 16.5036ZM14.6667 16.5036C14.4069 16.5036 14.1894 16.4156 14.014 16.2396C13.838 16.0642 13.75 15.8466 13.75 15.5869C13.75 15.3272 13.838 15.1096 14.014 14.9342C14.1894 14.7582 14.4069 14.6702 14.6667 14.6702C14.9264 14.6702 15.1439 14.7582 15.3193 14.9342C15.4953 15.1096 15.5833 15.3272 15.5833 15.5869C15.5833 15.8466 15.4953 16.0642 15.3193 16.2396C15.1439 16.4156 14.9264 16.5036 14.6667 16.5036ZM4.58333 20.1702C4.07917 20.1702 3.64742 19.9909 3.28808 19.6322C2.92936 19.2728 2.75 18.8411 2.75 18.3369V5.50358C2.75 4.99941 2.92936 4.56797 3.28808 4.20925C3.64742 3.84991 4.07917 3.67025 4.58333 3.67025H5.5V1.83691H7.33333V3.67025H14.6667V1.83691H16.5V3.67025H17.4167C17.9208 3.67025 18.3526 3.84991 18.7119 4.20925C19.0706 4.56797 19.25 4.99941 19.25 5.50358V18.3369C19.25 18.8411 19.0706 19.2728 18.7119 19.6322C18.3526 19.9909 17.9208 20.1702 17.4167 20.1702H4.58333ZM4.58333 18.3369H17.4167V9.17025H4.58333V18.3369Z" fill="white"/>
</svg>
