<svg width="40" height="40" viewBox="0 0 40 40" fill="none" xmlns="http://www.w3.org/2000/svg">
<path d="M30 15C29.5278 15 29.1317 14.84 28.8117 14.52C28.4917 14.2 28.3322 13.8045 28.3333 13.3333V11.6667H26.6667C26.1944 11.6667 25.7983 11.5067 25.4783 11.1867C25.1583 10.8667 24.9989 10.4711 25 10C25 9.52778 25.16 9.13167 25.48 8.81167C25.8 8.49167 26.1956 8.33223 26.6667 8.33334H28.3333V6.66667C28.3333 6.19445 28.4933 5.79834 28.8133 5.47834C29.1333 5.15834 29.5289 4.99889 30 5.00001C30.4722 5.00001 30.8683 5.16001 31.1883 5.48001C31.5083 5.80001 31.6678 6.19556 31.6667 6.66667V8.33334H33.3333C33.8056 8.33334 34.2017 8.49334 34.5217 8.81334C34.8417 9.13334 35.0011 9.52889 35 10C35 10.4722 34.84 10.8683 34.52 11.1883C34.2 11.5083 33.8044 11.6678 33.3333 11.6667H31.6667V13.3333C31.6667 13.8056 31.5067 14.2017 31.1867 14.5217C30.8667 14.8417 30.4711 15.0011 30 15ZM11.6667 28.3333H28.3333C28.6667 28.3333 28.9167 28.1806 29.0833 27.875C29.25 27.5695 29.2222 27.2778 29 27L24.4167 20.875C24.25 20.6528 24.0278 20.5417 23.75 20.5417C23.4722 20.5417 23.25 20.6528 23.0833 20.875L18.75 26.6667L15.6667 22.5417C15.5 22.3195 15.2778 22.2083 15 22.2083C14.7222 22.2083 14.5 22.3195 14.3333 22.5417L11 27C10.7778 27.2778 10.75 27.5695 10.9167 27.875C11.0833 28.1806 11.3333 28.3333 11.6667 28.3333ZM8.33334 35C7.41667 35 6.63167 34.6733 5.97834 34.02C5.325 33.3667 4.99889 32.5822 5 31.6667V8.33334C5 7.41667 5.32667 6.63167 5.98 5.97834C6.63334 5.32501 7.41778 4.99889 8.33334 5.00001H21.6667C22.1389 5.00001 22.535 5.16001 22.855 5.48001C23.175 5.80001 23.3344 6.19556 23.3333 6.66667V11.6667C23.3333 12.1389 23.4933 12.535 23.8133 12.855C24.1333 13.175 24.5289 13.3344 25 13.3333H26.6667V15C26.6667 15.4722 26.8267 15.8683 27.1467 16.1883C27.4667 16.5083 27.8622 16.6678 28.3333 16.6667H33.3333C33.8056 16.6667 34.2017 16.8267 34.5217 17.1467C34.8417 17.4667 35.0011 17.8622 35 18.3333V31.6667C35 32.5833 34.6733 33.3683 34.02 34.0217C33.3667 34.675 32.5822 35.0011 31.6667 35H8.33334Z" fill="white"/>
</svg>
