<svg width="40" height="40" viewBox="0 0 40 40" fill="none" xmlns="http://www.w3.org/2000/svg">
<path d="M33.3352 33.3352L26.5852 26.5852M26.5852 26.5852C27.6686 25.5018 28.528 24.2156 29.1144 22.8001C29.7007 21.3846 30.0025 19.8674 30.0025 18.3352C30.0025 16.8031 29.7007 15.2859 29.1144 13.8704C28.528 12.4548 27.6686 11.1686 26.5852 10.0852C25.5018 9.00182 24.2156 8.14242 22.8001 7.55609C21.3846 6.96975 19.8674 6.66797 18.3352 6.66797C16.8031 6.66797 15.2859 6.96975 13.8704 7.55609C12.4548 8.14242 11.1686 9.00183 10.0852 10.0852C7.89719 12.2733 6.66797 15.2409 6.66797 18.3352C6.66797 21.4296 7.89719 24.3972 10.0852 26.5852C12.2733 28.7733 15.2409 30.0025 18.3352 30.0025C21.4296 30.0025 24.3972 28.7733 26.5852 26.5852Z" stroke="#05011D" stroke-width="3" stroke-linecap="round" stroke-linejoin="round"/>
</svg>
