<svg width="20" height="20" viewBox="0 0 20 20" fill="none" xmlns="http://www.w3.org/2000/svg">
<g clip-path="url(#clip0_1_111379)">
<path d="M3.33464 17.5C2.8763 17.5 2.4838 17.3367 2.15714 17.01C1.83047 16.6833 1.66741 16.2911 1.66797 15.8333V4.16667C1.66797 3.70833 1.8313 3.31583 2.15797 2.98917C2.48464 2.6625 2.87686 2.49945 3.33464 2.5H8.33464C8.79297 2.5 9.18547 2.66333 9.51214 2.99C9.8388 3.31667 10.0019 3.70889 10.0013 4.16667V5.83334H16.668C17.1263 5.83334 17.5188 5.99667 17.8455 6.32333C18.1721 6.65 18.3352 7.04222 18.3346 7.5V12.5H16.668V7.5H10.0013V9.16667H11.668V10.8333H10.0013V12.5H11.668V14.1667H10.0013V15.8333H13.3346V17.5H3.33464ZM3.33464 15.8333H5.0013V14.1667H3.33464V15.8333ZM3.33464 12.5H5.0013V10.8333H3.33464V12.5ZM3.33464 9.16667H5.0013V7.5H3.33464V9.16667ZM3.33464 5.83334H5.0013V4.16667H3.33464V5.83334ZM6.66797 15.8333H8.33464V14.1667H6.66797V15.8333ZM6.66797 12.5H8.33464V10.8333H6.66797V12.5ZM6.66797 9.16667H8.33464V7.5H6.66797V9.16667ZM6.66797 5.83334H8.33464V4.16667H6.66797V5.83334ZM17.5013 19.1667C17.2652 19.1667 17.0671 19.0867 16.9071 18.9267C16.7471 18.7667 16.6674 18.5689 16.668 18.3333V17.5H15.8346C15.5985 17.5 15.4005 17.42 15.2405 17.26C15.0805 17.1 15.0007 16.9022 15.0013 16.6667C15.0013 16.4306 15.0813 16.2325 15.2413 16.0725C15.4013 15.9125 15.5991 15.8328 15.8346 15.8333H16.668V15C16.668 14.7639 16.748 14.5658 16.908 14.4058C17.068 14.2458 17.2657 14.1661 17.5013 14.1667C17.7374 14.1667 17.9355 14.2467 18.0955 14.4067C18.2555 14.5667 18.3352 14.7644 18.3346 15V15.8333H19.168C19.4041 15.8333 19.6021 15.9133 19.7621 16.0733C19.9221 16.2333 20.0019 16.4311 20.0013 16.6667C20.0013 16.9028 19.9213 17.1008 19.7613 17.2608C19.6013 17.4208 19.4035 17.5006 19.168 17.5H18.3346V18.3333C18.3346 18.5694 18.2546 18.7675 18.0946 18.9275C17.9346 19.0875 17.7369 19.1672 17.5013 19.1667ZM13.3346 10.8333V9.16667H15.0013V10.8333H13.3346ZM13.3346 14.1667V12.5H15.0013V14.1667H13.3346Z" fill="white"/>
</g>
<defs>
<clipPath id="clip0_1_111379">
<rect width="20" height="20" fill="white"/>
</clipPath>
</defs>
</svg>
