<svg width="20" height="20" viewBox="0 0 20 20" fill="none" xmlns="http://www.w3.org/2000/svg">
<path d="M3.33464 3.33317H5.83464L7.5013 1.6665H12.5013L14.168 3.33317H16.668C17.11 3.33317 17.5339 3.50877 17.8465 3.82133C18.159 4.13389 18.3346 4.55781 18.3346 4.99984V14.9998C18.3346 15.4419 18.159 15.8658 17.8465 16.1783C17.5339 16.4909 17.11 16.6665 16.668 16.6665H3.33464C2.89261 16.6665 2.46868 16.4909 2.15612 16.1783C1.84356 15.8658 1.66797 15.4419 1.66797 14.9998V4.99984C1.66797 4.55781 1.84356 4.13389 2.15612 3.82133C2.46868 3.50877 2.89261 3.33317 3.33464 3.33317ZM10.0013 5.83317C8.89623 5.83317 7.83643 6.27216 7.05502 7.05356C6.27362 7.83496 5.83464 8.89477 5.83464 9.99984C5.83464 11.1049 6.27362 12.1647 7.05502 12.9461C7.83643 13.7275 8.89623 14.1665 10.0013 14.1665C11.1064 14.1665 12.1662 13.7275 12.9476 12.9461C13.729 12.1647 14.168 11.1049 14.168 9.99984C14.168 8.89477 13.729 7.83496 12.9476 7.05356C12.1662 6.27216 11.1064 5.83317 10.0013 5.83317ZM10.0013 7.49984C10.6643 7.49984 11.3002 7.76323 11.7691 8.23207C12.2379 8.70091 12.5013 9.3368 12.5013 9.99984C12.5013 10.6629 12.2379 11.2988 11.7691 11.7676C11.3002 12.2364 10.6643 12.4998 10.0013 12.4998C9.33826 12.4998 8.70238 12.2364 8.23353 11.7676C7.76469 11.2988 7.5013 10.6629 7.5013 9.99984C7.5013 9.3368 7.76469 8.70091 8.23353 8.23207C8.70238 7.76323 9.33826 7.49984 10.0013 7.49984Z" fill="#05011D"/>
</svg>
