<svg width="1326" height="625" viewBox="0 0 1326 625" fill="none" xmlns="http://www.w3.org/2000/svg">
<rect y="562" width="22.4746" height="63" rx="10" fill="#EF8F00"/>
<rect x="309.535" y="542" width="21.453" height="83" rx="10" fill="#EF8F00"/>
<rect x="584.34" y="377" width="22.4746" height="248" rx="10" fill="#9F4DEB"/>
<rect x="780.48" y="298" width="22.4746" height="327" rx="10" fill="#9F4DEB"/>
<rect x="976.621" y="339" width="21.453" height="286" rx="10" fill="#9F4DEB"/>
<rect x="65.3809" y="562" width="22.4746" height="63" rx="10" fill="#EF8F00"/>
<rect x="375.938" y="571" width="20.4314" height="54" rx="10" fill="#EF8F00"/>
<rect x="649.719" y="504" width="22.4746" height="121" rx="10" fill="#9F4DEB"/>
<rect x="845.859" y="504" width="22.4746" height="121" rx="10" fill="#9F4DEB"/>
<rect x="1043.02" y="504" width="20.4314" height="121" rx="10" fill="#9F4DEB"/>
<rect x="131.783" y="580" width="20.4314" height="45" rx="10" fill="#EF8F00"/>
<rect x="441.32" y="530" width="20.4314" height="95" rx="10" fill="#EF8F00"/>
<rect x="715.102" y="339" width="22.4746" height="286" rx="10" fill="#9F4DEB"/>
<rect x="911.242" y="209" width="22.4746" height="416" rx="10" fill="#9F4DEB"/>
<rect x="1108.41" y="412" width="20.4314" height="213" rx="10" fill="#9F4DEB"/>
<rect x="1173.79" y="95" width="20.4314" height="530" rx="10" fill="#9F4DEB"/>
<rect x="1238.14" width="22.4746" height="625" rx="10" fill="#9F4DEB"/>
<rect x="1303.52" y="314" width="22.4746" height="311" rx="10" fill="#9F4DEB"/>
<rect x="197.164" y="600" width="20.4314" height="25" rx="10" fill="#EF8F00"/>
</svg>
