<svg width="60" height="60" viewBox="0 0 60 60" fill="none" xmlns="http://www.w3.org/2000/svg">
<circle cx="30" cy="30" r="30" transform="matrix(-1 0 0 1 60 0)" fill="#9F4DEB"/>
<path d="M29.5435 20.4539C28.5109 19.4659 27.3293 19.2454 25.9989 19.7924C24.6663 20.3374 24 21.3119 24 22.7159V38.7841C24 40.1881 24.6663 41.1626 25.9989 41.7076C27.3293 42.2546 28.5109 42.0341 29.5435 41.0461L38.0217 32.934C38.3478 32.622 38.5924 32.284 38.7554 31.92C38.9185 31.556 39 31.166 39 30.75C39 30.334 38.9185 29.944 38.7554 29.58C38.5924 29.216 38.3478 28.878 38.0217 28.566L29.5435 20.4539Z" fill="white"/>
</svg>
