<svg width="35" height="35" viewBox="0 0 35 35" fill="none" xmlns="http://www.w3.org/2000/svg">
<path d="M30.7721 21.6924L18.5221 33.9788C18.3763 34.1247 18.2183 34.2282 18.0482 34.2894C17.878 34.3507 17.6957 34.3808 17.5013 34.3799C17.3069 34.3799 17.1246 34.3492 16.9544 34.288C16.7843 34.2267 16.6263 34.1237 16.4805 33.9788L4.19401 21.6924C3.85373 21.3521 3.68359 20.9267 3.68359 20.4163C3.68359 19.9059 3.86588 19.4684 4.23047 19.1038C4.59505 18.7392 5.0204 18.5569 5.50651 18.5569C5.99262 18.5569 6.41797 18.7392 6.78255 19.1038L17.5013 29.8226L28.2201 19.1038C28.5603 18.7635 28.9798 18.5934 29.4786 18.5934C29.9773 18.5934 30.4085 18.7757 30.7721 19.1403C31.1367 19.5049 31.319 19.9302 31.319 20.4163C31.319 20.9024 31.1367 21.3278 30.7721 21.6924Z" fill="#9F4DEB"/>
</svg>
