<svg width="20" height="20" viewBox="0 0 20 20" fill="none" xmlns="http://www.w3.org/2000/svg">
<path d="M8.33333 17.5C7.41667 17.5 6.63194 17.1736 5.97917 16.5208C5.32639 15.8681 5 15.0833 5 14.1667C5 13.25 5.32639 12.4653 5.97917 11.8125C6.63194 11.1597 7.41667 10.8333 8.33333 10.8333C8.65278 10.8333 8.94806 10.8717 9.21917 10.9483C9.49028 11.025 9.75056 11.1394 10 11.2917V4.16667C10 3.70833 10.1633 3.31583 10.49 2.98917C10.8167 2.6625 11.2089 2.49945 11.6667 2.5H13.3333C13.7917 2.5 14.1842 2.66333 14.5108 2.99C14.8375 3.31667 15.0006 3.70889 15 4.16667C15 4.625 14.8367 5.0175 14.51 5.34417C14.1833 5.67084 13.7911 5.83389 13.3333 5.83334H11.6667V14.1667C11.6667 15.0833 11.3403 15.8681 10.6875 16.5208C10.0347 17.1736 9.25 17.5 8.33333 17.5Z" fill="#05011D"/>
</svg>
