<svg width="620" height="65" viewBox="0 0 620 65" fill="none" xmlns="http://www.w3.org/2000/svg">
<rect x="0.5" y="-0.5" width="99" height="63.5161" rx="9.5" transform="matrix(1 0 0 -1 260 63.5166)" stroke="white"/>
<path d="M333.813 32.259C333.813 40.1219 327.462 46.5484 319.524 46.5484C311.661 46.5484 305.234 40.1219 305.234 32.259C305.234 24.3961 311.585 17.9697 319.448 17.9697C327.462 17.9697 333.813 24.3961 333.813 32.259Z" fill="#FFB600"/>
<path d="M319.524 17.9697C327.387 17.9697 333.813 24.3961 333.813 32.259C333.813 40.1219 327.462 46.5484 319.524 46.5484C311.661 46.5484 305.234 40.1219 305.234 32.259" fill="#F7981D"/>
<path d="M319.523 17.9697C327.386 17.9697 333.813 24.3961 333.813 32.259C333.813 40.1219 327.462 46.5484 319.523 46.5484" fill="#FF8500"/>
<path d="M300.32 17.9697C292.532 18.0453 286.182 24.3961 286.182 32.259C286.182 40.1219 292.532 46.5484 300.471 46.5484C304.176 46.5484 307.502 45.1119 310.073 42.8437C310.602 42.3901 311.056 41.8609 311.509 41.3316H308.561C308.183 40.878 307.805 40.3488 307.502 39.8951H312.568C312.87 39.4415 313.173 38.9123 313.399 38.383H306.671C306.444 37.9294 306.217 37.4002 306.066 36.8709H313.929C314.382 35.4344 314.685 33.9223 314.685 32.3346C314.685 31.2762 314.533 30.2933 314.382 29.3105H305.612C305.688 28.7812 305.839 28.3276 305.99 27.7984H313.853C313.702 27.2691 313.475 26.7399 313.248 26.2863H306.595C306.822 25.757 307.124 25.3034 307.427 24.7742H312.492C312.19 24.2449 311.812 23.7157 311.358 23.2621H308.561C309.014 22.7328 309.468 22.2792 309.997 21.8256C307.502 19.4818 304.1 18.1209 300.395 18.1209C300.395 17.9697 300.395 17.9697 300.32 17.9697Z" fill="#FF5050"/>
<path d="M286.182 32.259C286.182 40.1219 292.532 46.5483 300.471 46.5483C304.176 46.5483 307.502 45.1118 310.073 42.8437C310.602 42.3901 311.056 41.8608 311.509 41.3316H308.561C308.183 40.878 307.805 40.3487 307.502 39.8951H312.568C312.87 39.4415 313.173 38.9122 313.399 38.383H306.671C306.444 37.9294 306.217 37.4001 306.066 36.8709H313.929C314.382 35.4344 314.685 33.9223 314.685 32.3346C314.685 31.2762 314.533 30.2933 314.382 29.3104H305.612C305.688 28.7812 305.839 28.3276 305.99 27.7983H313.853C313.702 27.2691 313.475 26.7399 313.248 26.2862H306.595C306.822 25.757 307.124 25.3034 307.427 24.7741H312.492C312.19 24.2449 311.812 23.7157 311.358 23.262H308.561C309.014 22.7328 309.468 22.2792 309.997 21.8255C307.502 19.4818 304.1 18.1209 300.395 18.1209H300.32" fill="#E52836"/>
<path d="M300.472 46.5485C304.176 46.5485 307.503 45.112 310.073 42.8439C310.603 42.3902 311.056 41.861 311.51 41.3318H308.561C308.183 40.8782 307.805 40.3489 307.503 39.8953H312.568C312.871 39.4417 313.173 38.9124 313.4 38.3832H306.671C306.444 37.9296 306.217 37.4003 306.066 36.8711H313.929C314.383 35.4346 314.685 33.9225 314.685 32.3348C314.685 31.2763 314.534 30.2935 314.383 29.3106H305.613C305.688 28.7814 305.839 28.3277 305.991 27.7985H313.854C313.702 27.2693 313.476 26.74 313.249 26.2864H306.596C306.822 25.7572 307.125 25.3036 307.427 24.7743H312.493C312.19 24.2451 311.812 23.7159 311.359 23.2622H308.561C309.015 22.733 309.468 22.2794 309.998 21.8257C307.503 19.482 304.101 18.1211 300.396 18.1211H300.32" fill="#CB2026"/>
<path d="M305.536 35.8886L305.763 34.6033C305.687 34.6033 305.536 34.6789 305.385 34.6789C304.856 34.6789 304.78 34.3765 304.856 34.2253L305.309 31.5791H306.141L306.368 30.1426H305.612L305.763 29.2354H304.251C304.251 29.2354 303.344 34.2253 303.344 34.8301C303.344 35.7374 303.873 36.1154 304.553 36.1154C305.007 36.1154 305.385 35.9642 305.536 35.8886Z" fill="white"/>
<path d="M306.066 33.4694C306.066 35.5863 307.503 36.1156 308.713 36.1156C309.847 36.1156 310.3 35.8888 310.3 35.8888L310.603 34.4523C310.603 34.4523 309.771 34.8303 309.015 34.8303C307.352 34.8303 307.654 33.6206 307.654 33.6206H310.754C310.754 33.6206 310.981 32.6378 310.981 32.2597C310.981 31.2769 310.451 30.0672 308.788 30.0672C307.2 29.916 306.066 31.5793 306.066 33.4694ZM308.713 31.2769C309.544 31.2769 309.393 32.2597 309.393 32.3353H307.73C307.73 32.2597 307.881 31.2769 308.713 31.2769Z" fill="white"/>
<path d="M318.315 35.8884L318.617 34.225C318.617 34.225 317.861 34.6031 317.332 34.6031C316.273 34.6031 315.82 33.7714 315.82 32.8642C315.82 31.0496 316.727 30.0668 317.785 30.0668C318.541 30.0668 319.146 30.5204 319.146 30.5204L319.373 28.9327C319.373 28.9327 318.466 28.5547 317.634 28.5547C315.895 28.5547 314.156 30.0668 314.156 32.9398C314.156 34.8299 315.064 36.1152 316.878 36.1152C317.483 36.1152 318.315 35.8884 318.315 35.8884Z" fill="white"/>
<path d="M297.221 29.916C296.162 29.916 295.406 30.2184 295.406 30.2184L295.179 31.5037C295.179 31.5037 295.86 31.2013 296.843 31.2013C297.372 31.2013 297.825 31.2769 297.825 31.7305C297.825 32.033 297.75 32.1086 297.75 32.1086C297.75 32.1086 297.296 32.1086 297.069 32.1086C295.784 32.1086 294.348 32.6378 294.348 34.3767C294.348 35.7376 295.255 36.04 295.784 36.04C296.843 36.04 297.296 35.3596 297.372 35.3596L297.296 35.9644H298.657L299.262 31.8061C299.262 29.9916 297.75 29.916 297.221 29.916ZM297.523 33.3182C297.523 33.545 297.372 34.7547 296.465 34.7547C296.011 34.7547 295.86 34.3767 295.86 34.1499C295.86 33.7719 296.087 33.2426 297.221 33.2426C297.447 33.3182 297.523 33.3182 297.523 33.3182Z" fill="white"/>
<path d="M300.698 36.0394C301.076 36.0394 302.966 36.115 302.966 34.0737C302.966 32.1836 301.152 32.5616 301.152 31.8056C301.152 31.4275 301.454 31.2763 301.983 31.2763C302.21 31.2763 303.042 31.3519 303.042 31.3519L303.268 29.9911C303.268 29.9911 302.739 29.8398 301.832 29.8398C300.698 29.8398 299.564 30.2935 299.564 31.8056C299.564 33.5445 301.454 33.3933 301.454 34.0737C301.454 34.5273 300.925 34.6029 300.547 34.6029C299.866 34.6029 299.186 34.3761 299.186 34.3761L298.959 35.737C299.035 35.8882 299.413 36.0394 300.698 36.0394Z" fill="white"/>
<path d="M330.864 28.7061L330.562 30.7474C330.562 30.7474 329.957 29.9913 329.125 29.9913C327.764 29.9913 326.555 31.6546 326.555 33.6204C326.555 34.83 327.16 36.1153 328.445 36.1153C329.352 36.1153 329.881 35.5105 329.881 35.5105L329.806 36.0397H331.318L332.452 28.7817L330.864 28.7061ZM330.184 32.7131C330.184 33.5448 329.806 34.6032 328.974 34.6032C328.445 34.6032 328.142 34.1496 328.142 33.3936C328.142 32.1839 328.672 31.4278 329.352 31.4278C329.881 31.4278 330.184 31.8059 330.184 32.7131Z" fill="white"/>
<path d="M288.979 35.9639L289.887 30.5204L290.038 35.9639H291.096L293.062 30.5204L292.23 35.9639H293.818L295.028 28.7059H292.533L291.021 33.1666L290.945 28.7059H288.753L287.543 35.9639H288.979Z" fill="white"/>
<path d="M312.417 35.9636C312.871 33.4686 312.946 31.4273 314.005 31.8053C314.156 30.8225 314.383 30.4444 314.534 30.0664C314.534 30.0664 314.459 30.0664 314.232 30.0664C313.551 30.0664 313.022 30.9737 313.022 30.9737L313.173 30.142H311.737L310.754 36.0392H312.417V35.9636Z" fill="white"/>
<path d="M321.793 29.916C320.734 29.916 319.978 30.2184 319.978 30.2184L319.752 31.5037C319.752 31.5037 320.432 31.2013 321.415 31.2013C321.944 31.2013 322.398 31.2769 322.398 31.7305C322.398 32.033 322.322 32.1086 322.322 32.1086C322.322 32.1086 321.869 32.1086 321.642 32.1086C320.356 32.1086 318.92 32.6378 318.92 34.3767C318.92 35.7376 319.827 36.04 320.356 36.04C321.415 36.04 321.869 35.3596 321.944 35.3596L321.869 35.9644H323.229L323.834 31.8061C323.91 29.9916 322.322 29.916 321.793 29.916ZM322.171 33.3182C322.171 33.545 322.02 34.7547 321.112 34.7547C320.659 34.7547 320.508 34.3767 320.508 34.1499C320.508 33.7719 320.734 33.2426 321.869 33.2426C322.095 33.3182 322.095 33.3182 322.171 33.3182Z" fill="white"/>
<path d="M325.118 35.9636C325.572 33.4686 325.648 31.4273 326.706 31.8053C326.857 30.8225 327.084 30.4444 327.235 30.0664C327.235 30.0664 327.16 30.0664 326.933 30.0664C326.252 30.0664 325.723 30.9737 325.723 30.9737L325.874 30.142H324.438L323.455 36.0392H325.118V35.9636Z" fill="white"/>
<path d="M303.193 34.8299C303.193 35.7371 303.723 36.1151 304.403 36.1151C304.932 36.1151 305.386 35.9639 305.537 35.8883L305.764 34.603C305.688 34.603 305.537 34.6787 305.386 34.6787C304.857 34.6787 304.781 34.3762 304.857 34.225L305.31 31.5789H306.142L306.369 30.1424H305.613L305.764 29.2351" fill="#DCE5E5"/>
<path d="M306.822 33.4694C306.822 35.5863 307.503 36.1156 308.712 36.1156C309.846 36.1156 310.3 35.8888 310.3 35.8888L310.603 34.4523C310.603 34.4523 309.771 34.8303 309.015 34.8303C307.352 34.8303 307.654 33.6206 307.654 33.6206H310.754C310.754 33.6206 310.981 32.6378 310.981 32.2597C310.981 31.2769 310.451 30.0672 308.788 30.0672C307.2 29.916 306.822 31.5793 306.822 33.4694ZM308.712 31.2769C309.544 31.2769 309.695 32.2597 309.695 32.3353H307.73C307.73 32.2597 307.881 31.2769 308.712 31.2769Z" fill="#DCE5E5"/>
<path d="M318.314 35.8884L318.617 34.225C318.617 34.225 317.861 34.6031 317.331 34.6031C316.273 34.6031 315.819 33.7714 315.819 32.8642C315.819 31.0496 316.727 30.0668 317.785 30.0668C318.541 30.0668 319.146 30.5204 319.146 30.5204L319.373 28.9327C319.373 28.9327 318.466 28.5547 317.634 28.5547C315.895 28.5547 314.912 30.0668 314.912 32.9398C314.912 34.8299 315.063 36.1152 316.878 36.1152C317.483 36.1152 318.314 35.8884 318.314 35.8884Z" fill="#DCE5E5"/>
<path d="M295.179 31.5785C295.179 31.5785 295.86 31.2761 296.843 31.2761C297.372 31.2761 297.825 31.3517 297.825 31.8053C297.825 32.1077 297.75 32.1833 297.75 32.1833C297.75 32.1833 297.296 32.1833 297.069 32.1833C295.784 32.1833 294.348 32.7126 294.348 34.4515C294.348 35.8124 295.255 36.1148 295.784 36.1148C296.843 36.1148 297.296 35.4344 297.372 35.4344L297.296 36.0392H298.657L299.262 31.8809C299.262 30.142 297.75 30.0664 297.145 30.0664M298.279 33.3174C298.279 33.5442 297.372 34.7539 296.465 34.7539C296.011 34.7539 295.86 34.3759 295.86 34.1491C295.86 33.771 296.087 33.2418 297.221 33.2418C297.447 33.3174 298.279 33.3174 298.279 33.3174Z" fill="#DCE5E5"/>
<path d="M299.035 35.8882C299.035 35.8882 299.489 36.0394 300.774 36.0394C301.152 36.0394 303.042 36.115 303.042 34.0737C303.042 32.1836 301.228 32.5616 301.228 31.8056C301.228 31.4275 301.53 31.2763 302.059 31.2763C302.286 31.2763 303.118 31.3519 303.118 31.3519L303.345 29.9911C303.345 29.9911 302.815 29.8398 301.908 29.8398C300.774 29.8398 300.396 30.2935 300.396 31.8056C300.396 33.5445 301.53 33.3933 301.53 34.0737C301.53 34.5273 301.001 34.6029 300.623 34.6029" fill="#DCE5E5"/>
<path d="M330.561 30.747C330.561 30.747 329.956 29.9909 329.125 29.9909C327.764 29.9909 327.31 31.6542 327.31 33.62C327.31 34.8296 327.159 36.1149 328.444 36.1149C329.352 36.1149 329.881 35.5101 329.881 35.5101L329.805 36.0393H331.317L332.451 28.7812M330.486 32.7127C330.486 33.5444 329.805 34.6028 328.973 34.6028C328.444 34.6028 328.142 34.1492 328.142 33.3931C328.142 32.1835 328.671 31.4274 329.352 31.4274C329.881 31.4274 330.486 31.8054 330.486 32.7127Z" fill="#DCE5E5"/>
<path d="M288.979 35.9639L289.887 30.5204L290.038 35.9639H291.096L293.062 30.5204L292.23 35.9639H293.818L295.028 28.7059H293.138L291.021 33.1666L290.945 28.7059H290.114L287.543 35.9639H288.979Z" fill="#DCE5E5"/>
<path d="M310.83 35.9636H312.418C312.871 33.4686 312.947 31.4273 314.005 31.8053C314.157 30.8225 314.384 30.4444 314.535 30.0664C314.535 30.0664 314.459 30.0664 314.232 30.0664C313.552 30.0664 313.023 30.9737 313.023 30.9737L313.174 30.142" fill="#DCE5E5"/>
<path d="M319.752 31.5785C319.752 31.5785 320.432 31.2761 321.415 31.2761C321.944 31.2761 322.398 31.3517 322.398 31.8053C322.398 32.1077 322.322 32.1833 322.322 32.1833C322.322 32.1833 321.869 32.1833 321.642 32.1833C320.356 32.1833 318.92 32.7126 318.92 34.4515C318.92 35.8124 319.827 36.1148 320.356 36.1148C321.415 36.1148 321.869 35.4344 321.944 35.4344L321.869 36.0392H323.229L323.834 31.8809C323.834 30.142 322.322 30.0664 321.717 30.0664M322.851 33.3174C322.851 33.5442 321.944 34.7539 321.037 34.7539C320.583 34.7539 320.432 34.3759 320.432 34.1491C320.432 33.771 320.659 33.2418 321.793 33.2418C322.095 33.3174 322.851 33.3174 322.851 33.3174Z" fill="#DCE5E5"/>
<path d="M323.531 35.9636H325.119C325.573 33.4686 325.648 31.4273 326.707 31.8053C326.858 30.8225 327.085 30.4444 327.236 30.0664C327.236 30.0664 327.16 30.0664 326.933 30.0664C326.253 30.0664 325.724 30.9737 325.724 30.9737L325.875 30.142" fill="#DCE5E5"/>
<rect x="0.5" y="-0.5" width="99" height="63.5161" rx="9.5" transform="matrix(1 0 0 -1 130 63.5166)" stroke="white"/>
<g clip-path="url(#clip0_1_103219)">
<path fill-rule="evenodd" clip-rule="evenodd" d="M200.561 17.7432C198.141 17.7432 172.527 17.7432 158.222 17.7432C157.012 17.7432 155.803 18.9528 155.803 20.1625V44.3561C155.803 46.7754 157.012 47.9851 159.432 47.9851C172.927 47.9851 198.141 47.9851 200.561 47.9851C202.98 47.9851 204.19 46.7754 204.19 44.3561V21.3722C204.19 18.9528 202.98 17.7432 200.561 17.7432Z" fill="#F3BA26"/>
<path fill-rule="evenodd" clip-rule="evenodd" d="M159.891 28.8202L158.954 26.5366L158.022 28.8202H159.891ZM180.536 27.9109C180.348 28.0251 180.125 28.0289 179.859 28.0289H178.195V26.7566H179.881C180.12 26.7566 180.369 26.7673 180.531 26.8599C180.708 26.9433 180.818 27.121 180.818 27.3663C180.818 27.6167 180.714 27.8181 180.536 27.9109ZM192.402 28.8202L191.454 26.5366L190.512 28.8202H192.402ZM170.283 31.2919H168.88L168.874 26.8056L166.889 31.2919H165.687L163.696 26.8017V31.2919H160.911L160.385 30.0143H157.535L157.003 31.2919H155.516L157.968 25.5637H160.002L162.331 30.9871V25.5637H164.566L166.357 29.4496L168.003 25.5637H170.283L170.283 31.2919ZM175.877 31.2919H171.304V25.5637H175.877V26.7566H172.673V27.7891H175.801V28.9633H172.673V30.1072H175.877V31.2919ZM182.326 27.1064C182.326 28.0197 181.717 28.4916 181.362 28.6333C181.661 28.7473 181.917 28.9487 182.039 29.1157C182.232 29.4006 182.266 29.6551 182.266 30.1666V31.2919H180.885L180.879 30.5696C180.879 30.2249 180.912 29.7292 180.663 29.4536C180.463 29.2521 180.158 29.2084 179.665 29.2084H178.196V31.2919H176.826V25.5637H179.976C180.675 25.5637 181.191 25.5822 181.634 25.8381C182.067 26.094 182.326 26.4675 182.326 27.1064ZM184.518 31.2919H183.121V25.5637H184.518V31.2919ZM200.725 31.2919H198.785L196.19 26.9926V31.2919H193.401L192.868 30.0143H190.024L189.507 31.2919H187.905C187.24 31.2919 186.397 31.1447 185.92 30.6584C185.439 30.172 185.188 29.5132 185.188 28.4715C185.188 27.622 185.338 26.8454 185.926 26.2317C186.369 25.7745 187.062 25.5637 188.006 25.5637H189.331V26.7911H188.034C187.534 26.7911 187.252 26.8654 186.98 27.1305C186.747 27.3717 186.586 27.8276 186.586 28.428C186.586 29.0417 186.708 29.4842 186.963 29.7732C187.174 29.9999 187.557 30.0687 187.917 30.0687H188.532L190.462 25.5639H192.513L194.831 30.982V25.5639H196.916L199.323 29.5533V25.5639H200.725V31.2919ZM155.5 32.417H157.84L158.367 31.1447H159.548L160.074 32.417H164.677V31.4443L165.088 32.4212H167.477L167.888 31.4298V32.417H179.327L179.322 30.3285H179.543C179.698 30.3339 179.743 30.3482 179.743 30.6041V32.417H185.66V31.9308C186.137 32.1866 186.879 32.417 187.856 32.417H190.345L190.878 31.1447H192.059L192.579 32.417H197.376V31.2085L198.102 32.417H201.946V24.4279H198.142V25.3714L197.609 24.4279H193.706V25.3714L193.217 24.4279H187.945C187.062 24.4279 186.286 24.5511 185.66 24.8944V24.4279H182.021V24.8944C181.623 24.5406 181.079 24.4279 180.475 24.4279H167.183L166.291 26.4914L165.375 24.4279H161.189V25.3714L160.729 24.4279H157.158L155.5 28.2264L155.5 32.417ZM204.201 36.6352H201.706C201.457 36.6352 201.291 36.6445 201.152 36.7387C201.008 36.8314 200.952 36.9691 200.952 37.1509C200.952 37.367 201.074 37.5141 201.251 37.5777C201.396 37.6279 201.551 37.6426 201.779 37.6426L202.521 37.6625C203.27 37.681 203.77 37.8097 204.074 38.1236C204.13 38.1673 204.163 38.2164 204.201 38.2655V36.6352ZM204.201 40.4125C203.869 40.8989 203.221 41.1455 202.343 41.1455H199.699V39.9169H202.333C202.594 39.9169 202.777 39.8825 202.887 39.775C202.982 39.6864 203.049 39.5577 203.049 39.4013C203.049 39.2344 202.982 39.1019 202.881 39.0224C202.782 38.935 202.638 38.8952 202.399 38.8952C201.113 38.8515 199.51 38.935 199.51 37.1219C199.51 36.2908 200.037 35.4161 201.474 35.4161H204.201V34.2761H201.667C200.903 34.2761 200.347 34.4592 199.954 34.744V34.2761H196.206C195.606 34.2761 194.903 34.4247 194.57 34.744V34.2761H187.877V34.744C187.345 34.3597 186.446 34.2761 186.031 34.2761H181.616V34.744C181.195 34.3359 180.258 34.2761 179.686 34.2761H174.746L173.615 35.4997L172.556 34.2761H165.175V42.2707H172.417L173.582 41.0278L174.68 42.2707L179.143 42.2747V40.3941H179.582C180.175 40.4032 180.873 40.3794 181.489 40.113V42.2706H185.171V40.1869H185.349C185.575 40.1869 185.598 40.1962 185.598 40.4227V42.2704H196.783C197.493 42.2704 198.235 42.0886 198.646 41.7588V42.2704H202.194C202.932 42.2704 203.653 42.1669 204.201 41.9019V40.4125ZM198.74 38.1236C199.006 38.3995 199.149 38.7479 199.149 39.3375C199.149 40.5701 198.379 41.1455 196.998 41.1455H194.332V39.9169H196.988C197.247 39.9169 197.432 39.8825 197.547 39.775C197.641 39.6864 197.709 39.5577 197.709 39.4013C197.709 39.2344 197.636 39.1019 197.542 39.0224C197.437 38.935 197.293 38.8952 197.054 38.8952C195.774 38.8515 194.17 38.935 194.17 37.1219C194.17 36.2908 194.692 35.4161 196.128 35.4161H198.873V36.6355H196.361C196.112 36.6355 195.95 36.6448 195.812 36.739C195.662 36.8318 195.607 36.9695 195.607 37.1512C195.607 37.3674 195.734 37.5144 195.906 37.578C196.051 37.6283 196.206 37.643 196.439 37.643L197.176 37.6628C197.92 37.681 198.43 37.8095 198.74 38.1236ZM186.385 37.7698C186.202 37.8785 185.975 37.8878 185.709 37.8878H184.046V36.601H185.732C185.975 36.601 186.219 36.6061 186.385 36.7044C186.563 36.7972 186.669 36.9747 186.669 37.2198C186.669 37.465 186.563 37.6625 186.385 37.7698ZM187.212 38.4828C187.517 38.5953 187.766 38.7969 187.883 38.9638C188.076 39.2435 188.104 39.5046 188.11 40.0096V41.1455H186.735V40.4286C186.735 40.0839 186.768 39.5736 186.514 39.3071C186.314 39.1019 186.009 39.0528 185.509 39.0528H184.046V41.1455H182.67V35.4159H185.831C186.524 35.4159 187.029 35.4465 187.479 35.6863C187.911 35.9473 188.182 36.305 188.182 36.9586C188.182 37.8731 187.572 38.3398 187.212 38.4828ZM188.942 35.4159H193.511V36.6008H190.305V37.6424H193.433V38.8114H190.305V39.9514L193.511 39.9566V41.1455H188.942V35.4159ZM179.704 38.06H177.934V36.601H179.72C180.214 36.601 180.557 36.8024 180.557 37.3035C180.557 37.799 180.23 38.06 179.704 38.06ZM176.571 40.6244L174.469 38.2905L176.571 36.0308V40.6244ZM171.142 39.9514H167.776V38.8114H170.782V37.6424H167.776V36.6008H171.208L172.706 38.2705L171.142 39.9514ZM182.027 37.3035C182.027 38.8951 180.84 39.2237 179.643 39.2237H177.934V41.1455H175.273L173.587 39.2487L171.835 41.1455H166.412V35.4159H171.919L173.603 37.294L175.345 35.4159H179.72C180.806 35.4159 182.027 35.7167 182.027 37.3035Z" fill="white"/>
</g>
<rect x="0.5" y="-0.5" width="99" height="63.5161" rx="9.5" transform="matrix(1 0 0 -1 0 63.5166)" stroke="white"/>
<path fill-rule="evenodd" clip-rule="evenodd" d="M45.7788 25.4978L43.5612 39.1264H47.1091L49.327 25.4978H45.7788ZM40.576 25.4978L37.1933 34.8714L36.7931 32.8529L36.7934 32.8536L36.7052 32.4012C36.2958 31.5189 35.3477 29.842 33.5572 28.4109C33.0279 27.9879 32.4943 27.6269 31.9785 27.3185L35.0529 39.1264H38.7496L44.3947 25.4978H40.576ZM54.4231 29.2814C54.4231 27.7405 57.8786 27.9385 59.3969 28.7752L59.9032 25.8482C59.9032 25.8482 58.3406 25.2539 56.7119 25.2539C54.951 25.2539 50.7698 26.0239 50.7698 29.7655C50.7698 33.2868 55.6773 33.3306 55.6773 35.1793C55.6773 37.028 51.2758 36.6976 49.8232 35.5314L49.2953 38.5909C49.2953 38.5909 50.8795 39.3609 53.3007 39.3609C55.7216 39.3609 59.3748 38.1067 59.3748 34.6952C59.3748 31.1518 54.4231 30.8218 54.4231 29.2814ZM68.9015 25.4978H66.0488C64.7316 25.4978 64.4108 26.5135 64.4108 26.5135L59.1196 39.1264H62.8177L63.5575 37.1021H68.0681L68.4842 39.1264H71.742L68.9015 25.4978ZM64.58 34.3054L66.4444 29.2053L67.4932 34.3054H64.58Z" fill="white"/>
<path fill-rule="evenodd" clip-rule="evenodd" d="M35.6475 26.7798C35.6475 26.7798 35.5007 25.5498 33.9328 25.5498H28.2366L28.1699 25.781C28.1699 25.781 30.908 26.3391 33.5347 28.4303C36.045 30.4289 36.8639 32.9202 36.8639 32.9202L35.6475 26.7798Z" fill="#F6AC1D"/>
<rect x="0.5" y="-0.5" width="99" height="63.5161" rx="9.5" transform="matrix(1 0 0 -1 390 63.5166)" stroke="white"/>
<path d="M438.408 27.1182L437.35 31.5032C438.71 31.8057 442.869 33.1665 443.474 30.6716C444.078 28.101 439.769 27.4962 438.408 27.1182Z" fill="#ED6C0C"/>
<path d="M443.474 30.7468C444.154 28.1762 439.769 27.4958 438.408 27.1934L437.35 31.5028" fill="#E05A00"/>
<path d="M439.92 21.1445L438.938 25.1516C440.072 25.454 443.549 26.5881 444.079 24.3199C444.608 21.9762 441.054 21.447 439.92 21.1445Z" fill="#ED6C0C"/>
<path d="M444.079 24.3199C444.683 21.9762 441.054 21.447 439.92 21.1445L438.938 25.1516" fill="#E05A00"/>
<path d="M444.381 9.27439C434.628 6.85504 424.8 12.8278 422.38 22.5052C419.961 32.2583 425.858 42.0869 435.611 44.5063C445.364 46.9256 455.193 41.0284 457.612 31.2754C460.032 21.598 454.134 11.7694 444.381 9.27439ZM448.01 24.3198C447.784 26.0587 446.801 26.9659 445.44 27.2683C447.254 28.1756 448.162 29.6121 447.254 32.1071C446.196 35.2069 443.625 35.4337 440.223 34.8288L439.391 38.1554L437.426 37.5506L438.257 34.2996C437.728 34.1484 437.199 33.9972 436.67 33.9216L435.838 37.1726L433.872 36.6433L434.704 33.3167C434.25 33.1655 433.797 33.0899 433.267 32.9387L430.697 32.2583L431.68 29.9901L433.116 30.3681C433.645 30.5194 433.948 30.1413 434.023 29.9145L435.309 24.6978C435.384 24.6978 435.46 24.6978 435.536 24.7734C435.46 24.7734 435.384 24.6978 435.309 24.6978L436.216 20.9931C436.216 20.5395 436.065 20.0103 435.309 19.8591L433.872 19.481L434.402 17.3641L437.123 18.0446C437.501 18.1202 437.955 18.2714 438.409 18.347L439.24 15.096L441.206 15.6252L440.374 18.8006C440.904 18.9518 441.433 19.0274 441.962 19.1786L442.718 16.0032L444.684 16.5325L443.852 19.7835C446.498 20.6151 448.388 21.9004 448.01 24.3198Z" fill="#FFB600"/>
<path d="M422.38 22.5062C419.961 32.2593 425.858 42.0879 435.611 44.5073C445.364 46.9266 455.193 41.0294 457.612 31.2764C460.032 21.5234 454.134 11.6947 444.381 9.27539M448.01 24.3208C447.784 26.0597 446.801 26.9669 445.44 27.2693C447.254 28.1766 448.162 29.6131 447.254 32.1081C446.196 35.2079 443.625 35.4347 440.223 34.8298L439.391 38.1564L437.426 37.5516L438.257 34.3006C437.728 34.1494 437.199 33.9982 436.67 33.9226L435.838 37.1736L433.872 36.6443L434.704 33.3177C434.25 33.1665 433.797 33.0909 433.267 32.9397L430.697 32.2593L431.68 29.9911L433.116 30.3691C433.645 30.5204 433.948 30.1423 434.023 29.9155L435.309 24.6988C435.384 24.6988 435.46 24.6988 435.536 24.7744C435.46 24.7744 435.384 24.6988 435.309 24.6988L436.216 20.9941C436.216 20.5405 436.065 20.0113 435.309 19.8601L433.872 19.482L434.402 17.3651L437.123 18.0456C437.501 18.1212 437.955 18.2724 438.409 18.348L439.24 15.097L441.206 15.6262L440.374 18.8016C440.904 18.9528 441.433 19.0284 441.962 19.1796L442.718 16.0042L444.684 16.5335L443.852 19.7845C446.498 20.6161 448.388 21.9014 448.01 24.3208Z" fill="#F6921E"/>
<path d="M457.459 31.9566L447.631 22.1279C448.009 22.7328 448.236 23.4888 448.084 24.3961C447.858 26.135 446.875 27.0422 445.514 27.3447C447.328 28.2519 448.236 29.6884 447.328 32.1834C446.27 35.2832 443.699 35.51 440.297 34.9051L439.465 38.2318L437.424 37.5513L438.256 34.3003C437.727 34.1491 437.197 33.9979 436.668 33.9223L435.836 37.1733L435.383 37.0221L443.095 44.7338C449.748 43.5997 455.494 38.761 457.459 31.9566Z" fill="#D85107"/>
<path d="M426.311 49.1191C426.689 49.1191 426.992 49.1947 427.294 49.3459C427.597 49.4971 427.824 49.6483 427.975 49.8751C428.126 50.1019 428.277 50.4044 428.353 50.7068C428.428 51.0092 428.504 51.3872 428.504 51.6896C428.504 52.2189 428.428 52.7481 428.202 53.2773C427.975 53.8066 427.748 54.1846 427.37 54.5626C426.992 54.9406 426.614 55.2431 426.085 55.3943C425.631 55.6211 425.102 55.6967 424.497 55.6967C424.421 55.6967 424.27 55.6967 424.119 55.6967C423.968 55.6967 423.741 55.6967 423.514 55.6211C423.287 55.6211 423.06 55.5455 422.758 55.4699C422.531 55.3943 422.229 55.3187 422.002 55.2431L424.043 46.5485L425.933 46.2461L425.177 49.3459C425.329 49.2703 425.48 49.1947 425.631 49.1947C425.933 49.1947 426.16 49.1191 426.311 49.1191ZM424.799 54.2602C425.102 54.2602 425.329 54.1846 425.555 54.0334C425.782 53.8822 426.009 53.731 426.16 53.5042C426.311 53.2773 426.463 53.0505 426.614 52.7481C426.689 52.4457 426.765 52.1433 426.765 51.8409C426.765 51.4628 426.689 51.1604 426.538 50.9336C426.387 50.7068 426.16 50.6312 425.858 50.6312C425.782 50.6312 425.631 50.6312 425.404 50.7068C425.253 50.7824 425.026 50.858 424.951 50.9336L424.194 54.1846C424.27 54.1846 424.27 54.1846 424.346 54.1846H424.421C424.497 54.1846 424.497 54.1846 424.573 54.1846C424.573 54.2602 424.648 54.2602 424.799 54.2602Z" fill="white"/>
<path d="M430.469 55.5452H428.654L430.166 49.27H431.981L430.469 55.5452ZM431.376 48.514C431.149 48.514 430.922 48.4384 430.696 48.2872C430.469 48.136 430.393 47.9091 430.393 47.6067C430.393 47.4555 430.393 47.3043 430.469 47.1531C430.544 47.0019 430.62 46.8507 430.771 46.7751C430.847 46.6995 430.998 46.5483 431.149 46.5483C431.3 46.4727 431.452 46.4727 431.603 46.4727C431.83 46.4727 432.057 46.5483 432.283 46.6995C432.51 46.8507 432.586 47.0775 432.586 47.3799C432.586 47.5311 432.586 47.6823 432.51 47.8335C432.435 47.9848 432.359 48.136 432.208 48.2116C432.132 48.2872 431.981 48.4384 431.83 48.4384C431.678 48.4384 431.527 48.514 431.376 48.514Z" fill="white"/>
<path d="M433.57 47.6823L435.46 47.3799L435.006 49.27H436.972L436.594 50.7065H434.628L434.099 52.899C434.024 53.0502 434.024 53.2771 434.024 53.4283C434.024 53.5795 434.024 53.7307 434.099 53.8063C434.175 53.9575 434.25 54.0331 434.326 54.1087C434.477 54.1843 434.628 54.1843 434.855 54.1843C435.082 54.1843 435.233 54.1843 435.384 54.1087C435.536 54.1087 435.762 54.0331 435.914 53.9575L436.065 55.3184C435.838 55.394 435.536 55.4696 435.309 55.5452C435.006 55.6964 434.704 55.6964 434.326 55.6964C433.797 55.6964 433.343 55.6208 433.041 55.4696C432.738 55.3184 432.511 55.0916 432.36 54.7892C432.209 54.4867 432.209 54.1843 432.209 53.8063C432.209 53.4283 432.285 53.0502 432.36 52.6722L433.57 47.6823Z" fill="white"/>
<path d="M436.896 53.0506C436.896 52.5214 436.972 51.9921 437.199 51.5385C437.35 51.0849 437.653 50.6312 437.955 50.2532C438.257 49.8752 438.711 49.6484 439.165 49.4216C439.618 49.1947 440.147 49.1191 440.752 49.1191C441.13 49.1191 441.433 49.1191 441.735 49.1947C442.038 49.2704 442.264 49.346 442.491 49.4972L441.886 50.8581C441.735 50.7824 441.584 50.7068 441.357 50.7068C441.206 50.6312 440.979 50.6312 440.752 50.6312C440.147 50.6312 439.694 50.8581 439.316 51.2361C438.938 51.6141 438.787 52.2189 438.787 52.8994C438.787 53.2774 438.862 53.6554 439.089 53.8822C439.24 54.1091 439.618 54.2603 440.072 54.2603C440.299 54.2603 440.526 54.2603 440.752 54.1847C440.979 54.1091 441.13 54.1091 441.357 54.0335L441.508 55.4699C441.282 55.5456 441.055 55.6212 440.752 55.6968C440.45 55.7724 440.147 55.7724 439.769 55.7724C439.24 55.7724 438.862 55.6968 438.484 55.5456C438.106 55.3943 437.879 55.2431 437.653 54.9407C437.426 54.7139 437.275 54.4115 437.199 54.1091C436.896 53.731 436.896 53.4286 436.896 53.0506Z" fill="white"/>
<path d="M444.759 55.7724C444.305 55.7724 444.003 55.6968 443.625 55.5456C443.322 55.3943 443.02 55.2431 442.869 55.0163C442.642 54.7895 442.49 54.4871 442.415 54.1847C442.339 53.8822 442.264 53.5042 442.264 53.1262C442.264 52.6726 442.339 52.1433 442.49 51.6897C442.642 51.2361 442.869 50.7824 443.171 50.4044C443.473 50.0264 443.851 49.724 444.305 49.4972C444.759 49.2704 445.212 49.1191 445.817 49.1191C446.271 49.1191 446.573 49.1947 446.951 49.346C447.254 49.4972 447.556 49.6484 447.707 49.8752C447.934 50.102 448.085 50.4044 448.161 50.7068C448.236 51.0093 448.312 51.3873 448.312 51.7653C448.312 52.2189 448.236 52.7482 448.085 53.2018C447.934 53.6554 447.707 54.1091 447.405 54.4871C447.102 54.8651 446.724 55.1675 446.271 55.3943C445.817 55.6212 445.363 55.7724 444.759 55.7724ZM445.666 50.6312C445.439 50.6312 445.137 50.7068 444.985 50.8581C444.759 51.0093 444.607 51.2361 444.456 51.4629C444.305 51.6897 444.229 51.9165 444.154 52.2189C444.078 52.5214 444.078 52.7482 444.078 52.975C444.078 53.353 444.154 53.6554 444.305 53.8822C444.456 54.1091 444.683 54.1847 444.985 54.1847C445.288 54.1847 445.515 54.1091 445.666 53.9579C445.893 53.8066 446.044 53.5798 446.195 53.353C446.346 53.1262 446.422 52.8994 446.498 52.597C446.573 52.2945 446.573 52.0677 446.573 51.8409C446.573 51.4629 446.498 51.1605 446.346 50.9337C446.195 50.7068 445.968 50.6312 445.666 50.6312Z" fill="white"/>
<path d="M450.277 55.5452H448.463L449.975 49.27H451.79L450.277 55.5452ZM451.109 48.514C450.882 48.514 450.655 48.4384 450.429 48.2872C450.202 48.136 450.126 47.9091 450.126 47.6067C450.126 47.4555 450.126 47.3043 450.202 47.1531C450.277 47.0019 450.353 46.8507 450.504 46.7751C450.58 46.6995 450.731 46.5483 450.882 46.5483C451.033 46.4727 451.185 46.4727 451.336 46.4727C451.563 46.4727 451.79 46.5483 452.016 46.6995C452.243 46.8507 452.319 47.0775 452.319 47.3799C452.319 47.5311 452.319 47.6823 452.243 47.8335C452.168 47.9848 452.092 48.136 451.941 48.2116C451.865 48.2872 451.714 48.4384 451.563 48.4384C451.411 48.4384 451.26 48.514 451.109 48.514Z" fill="white"/>
<path d="M453.075 49.5728C453.226 49.4972 453.378 49.4972 453.529 49.4216C453.68 49.346 453.907 49.346 454.058 49.2704C454.285 49.1947 454.512 49.1947 454.738 49.1947C454.965 49.1947 455.268 49.1191 455.57 49.1191C456.477 49.1191 457.158 49.4216 457.536 49.9508C457.914 50.48 457.989 51.2361 457.687 52.2189L456.855 55.6212H455.116L455.873 52.2945C455.948 52.0677 455.948 51.9165 456.024 51.6897C456.024 51.4629 456.024 51.3117 456.024 51.1605C456.024 51.0093 455.948 50.8581 455.797 50.7824C455.646 50.7068 455.495 50.6312 455.268 50.6312C455.041 50.6312 454.814 50.6312 454.587 50.7068L453.453 55.6212H451.639L453.075 49.5728Z" fill="white"/>
<path d="M430.695 32.334L434.098 35.7363L434.702 33.3169C434.249 33.1657 433.795 33.0901 433.266 32.9389L430.695 32.334Z" fill="#E26600"/>
<path d="M444.304 18.8008L444.002 19.7836C444.909 20.0861 445.741 20.4641 446.421 20.9177L444.304 18.8008Z" fill="#E26600"/>
<path d="M441.281 15.6258L440.449 18.8012C440.978 18.9524 441.508 19.028 442.037 19.1792L442.566 16.9111L441.281 15.6258Z" fill="#ED6C0C"/>
<path d="M444.834 16.457L444.002 19.708L444.078 19.7836C446.346 20.5397 448.085 21.7494 448.085 23.7907L457.157 32.8633C457.308 32.334 457.46 31.8048 457.611 31.3512C457.762 30.7463 457.838 30.2171 457.913 29.6123L444.834 16.457Z" fill="#ED6C0C"/>
<path d="M446.574 43.8265L439.694 36.9465L439.392 38.0806L437.426 37.5513L438.031 35.2076L436.67 33.8467L435.838 37.0977L433.872 36.5685V36.4928L433.797 36.5685L442.038 44.8094C443.626 44.7338 445.138 44.3558 446.574 43.8265Z" fill="#ED6C0C"/>
<path d="M448.463 42.9192L440.297 34.7539C440.297 34.7539 440.297 34.7539 440.222 34.7539L439.39 38.0805L437.5 37.6269L444.38 44.5069C445.817 44.1289 447.177 43.5997 448.463 42.9192Z" fill="#E05A00"/>
<rect x="0.5" y="-0.5" width="99" height="63.5161" rx="9.5" transform="matrix(1 0 0 -1 520 63.5166)" stroke="white"/>
<path d="M587.333 28.4269H583.906C583.704 28.4269 583.502 28.6286 583.402 28.8302L581.99 37.7011C581.99 37.9027 582.091 38.0036 582.293 38.0036H584.107C584.309 38.0036 584.41 37.9027 584.41 37.7011L584.813 35.181C584.813 34.9794 585.014 34.7777 585.317 34.7777H586.426C588.744 34.7777 590.055 33.6689 590.357 31.4511C590.559 30.5439 590.357 29.7374 589.954 29.2334C589.349 28.7294 588.442 28.4269 587.333 28.4269ZM587.736 31.7536C587.535 32.9632 586.627 32.9632 585.72 32.9632H585.115L585.518 30.6447C585.518 30.5439 585.619 30.4431 585.821 30.4431H586.022C586.627 30.4431 587.232 30.4431 587.535 30.8463C587.736 30.9471 587.736 31.2495 587.736 31.7536Z" fill="#139AD6"/>
<path d="M562.636 28.4269H559.208C559.007 28.4269 558.805 28.6286 558.704 28.8302L557.293 37.7011C557.293 37.9027 557.394 38.0036 557.595 38.0036H559.208C559.41 38.0036 559.612 37.8019 559.712 37.6003L560.116 35.181C560.116 34.9794 560.317 34.7777 560.62 34.7777H561.728C564.047 34.7777 565.357 33.6689 565.66 31.4511C565.862 30.5439 565.66 29.7374 565.257 29.2334C564.652 28.7294 563.845 28.4269 562.636 28.4269ZM563.039 31.7536C562.837 32.9632 561.93 32.9632 561.023 32.9632H560.519L560.922 30.6447C560.922 30.5439 561.023 30.4431 561.224 30.4431H561.426C562.031 30.4431 562.636 30.4431 562.938 30.8463C563.039 30.9471 563.14 31.2495 563.039 31.7536Z" fill="white"/>
<path d="M573.019 31.653H571.406C571.305 31.653 571.103 31.7538 571.103 31.8546L571.002 32.3586L570.902 32.157C570.498 31.653 569.793 31.4514 568.986 31.4514C567.172 31.4514 565.559 32.8626 565.257 34.778C565.055 35.786 565.357 36.6933 565.861 37.2981C566.365 37.903 567.071 38.1046 567.978 38.1046C569.49 38.1046 570.297 37.1973 570.297 37.1973L570.196 37.7014C570.196 37.903 570.297 38.0038 570.498 38.0038H572.011C572.212 38.0038 572.414 37.8022 572.515 37.6005L573.422 31.9554C573.321 31.8546 573.119 31.653 573.019 31.653ZM570.7 34.8788C570.498 35.786 569.793 36.4917 568.785 36.4917C568.281 36.4917 567.877 36.2901 567.676 36.0884C567.474 35.786 567.373 35.3828 567.373 34.8788C567.474 33.9715 568.281 33.2659 569.188 33.2659C569.692 33.2659 569.994 33.4675 570.297 33.6691C570.599 33.9715 570.7 34.4755 570.7 34.8788Z" fill="white"/>
<path d="M597.614 31.653H596.001C595.901 31.653 595.699 31.7538 595.699 31.8546L595.598 32.3586L595.497 32.157C595.094 31.653 594.389 31.4514 593.582 31.4514C591.768 31.4514 590.155 32.8626 589.852 34.778C589.651 35.786 589.953 36.6933 590.457 37.2981C590.961 37.903 591.667 38.1046 592.574 38.1046C594.086 38.1046 594.893 37.1973 594.893 37.1973L594.792 37.7014C594.792 37.903 594.893 38.0038 595.094 38.0038H596.606C596.808 38.0038 597.009 37.8022 597.11 37.6005L598.018 31.9554C597.917 31.8546 597.816 31.653 597.614 31.653ZM595.296 34.8788C595.094 35.786 594.389 36.4917 593.38 36.4917C592.876 36.4917 592.473 36.2901 592.272 36.0884C592.07 35.786 591.969 35.3828 591.969 34.8788C592.07 33.9715 592.876 33.2659 593.784 33.2659C594.288 33.2659 594.59 33.4675 594.893 33.6691C595.296 33.9715 595.397 34.4755 595.296 34.8788Z" fill="#139AD6"/>
<path d="M581.789 31.6535H580.076C579.874 31.6535 579.773 31.7543 579.673 31.8551L577.455 35.2825L576.447 32.0567C576.346 31.8551 576.245 31.7543 575.943 31.7543H574.33C574.128 31.7543 574.027 31.9559 574.027 32.1575L575.842 37.5003L574.128 39.9196C574.027 40.1212 574.128 40.4237 574.33 40.4237H575.943C576.144 40.4237 576.245 40.3229 576.346 40.2221L581.89 32.2583C582.193 31.9559 581.991 31.6535 581.789 31.6535Z" fill="white"/>
<path d="M599.53 28.7284L598.119 37.801C598.119 38.0026 598.22 38.1034 598.422 38.1034H599.833C600.034 38.1034 600.236 37.9018 600.337 37.7002L601.748 28.8292C601.748 28.6276 601.647 28.5268 601.446 28.5268H599.833C599.732 28.426 599.631 28.5268 599.53 28.7284Z" fill="#139AD6"/>
<path d="M549.833 25.4032C549.127 24.5968 547.817 24.1935 546.002 24.1935H540.962C540.66 24.1935 540.357 24.496 540.256 24.7984L538.24 38.004C538.24 38.3064 538.442 38.5081 538.643 38.5081H541.768L542.575 33.5685V33.7702C542.676 33.4677 542.978 33.1653 543.281 33.1653H544.793C547.716 33.1653 549.934 31.9556 550.639 28.629C550.639 28.5282 550.639 28.4274 550.639 28.3266C550.539 28.3266 550.539 28.3266 550.639 28.3266C550.74 27.0161 550.539 26.2097 549.833 25.4032Z" fill="white"/>
<path d="M550.539 28.3264C550.539 28.4272 550.539 28.528 550.539 28.6288C549.834 32.0562 547.616 33.1651 544.693 33.1651H543.181C542.878 33.1651 542.576 33.4675 542.475 33.7699L541.467 39.9191C541.467 40.1207 541.568 40.3223 541.87 40.3223H544.491C544.793 40.3223 545.096 40.1207 545.096 39.8183V39.7175L545.6 36.5925V36.3909C545.6 36.0884 545.902 35.8868 546.205 35.8868H546.608C549.128 35.8868 551.144 34.8788 551.648 31.8546C551.85 30.6449 551.749 29.536 551.144 28.8304C551.043 28.6288 550.842 28.4272 550.539 28.3264Z" fill="#139AD6"/>
<path d="M549.832 28.0243C549.731 28.0243 549.631 27.9235 549.53 27.9235C549.429 27.9235 549.328 27.9235 549.227 27.8227C548.824 27.7219 548.421 27.7219 547.917 27.7219H543.986C543.885 27.7219 543.784 27.7219 543.683 27.8227C543.481 27.9235 543.381 28.1251 543.381 28.3267L542.574 33.5686V33.7702C542.675 33.4678 542.977 33.1654 543.28 33.1654H544.792C547.715 33.1654 549.933 31.9557 550.639 28.6291C550.639 28.5283 550.639 28.4275 550.74 28.3267C550.538 28.2259 550.437 28.1251 550.236 28.1251C549.933 28.0243 549.933 28.0243 549.832 28.0243Z" fill="white"/>
<defs>
<clipPath id="clip0_1_103219">
<rect x="155.803" y="17.7432" width="48.3871" height="30.2419" rx="10" fill="white"/>
</clipPath>
</defs>
</svg>
