<svg width="1532" height="75" viewBox="0 0 1532 75" fill="none" xmlns="http://www.w3.org/2000/svg">
<path d="M83.9164 45.9346C83.9164 43.941 86.4433 41.7377 86.7592 41.9475C88.5492 43.5214 92.0237 45.0952 94.9719 45.0952C97.6041 45.0952 98.8676 44.3607 98.8676 42.8918C98.8676 41.213 96.6565 41.213 93.919 40.5835C89.2862 39.6392 84.6534 37.7505 84.6534 32.0846C84.6534 26.4188 88.865 22.9563 96.4459 22.9563C103.711 22.9563 106.87 25.4744 106.87 28.2025C106.87 30.6157 104.027 32.6093 103.816 32.3994C102.026 30.7206 99.0782 29.4616 96.4459 29.4616C93.9189 29.4616 92.7608 30.196 92.7608 31.56C92.7608 33.1339 94.9719 33.029 97.92 33.6585C103.395 34.8127 107.501 37.121 107.501 42.2623C107.501 48.2429 103.395 51.6005 94.9719 51.6005C86.8645 51.6005 83.9164 48.8725 83.9164 45.9346Z" fill="white"/>
<path d="M110.344 47.2989V27.3634C110.344 24.7403 111.608 23.3763 113.924 23.3763H115.187C117.714 23.3763 118.978 24.7403 118.978 27.3634V33.6588H127.822V27.3634C127.822 24.7403 129.086 23.3763 131.402 23.3763H132.666C135.087 23.3763 136.351 24.7403 136.351 27.3634V47.2989C136.351 49.922 135.087 51.286 132.666 51.286H131.402C129.086 51.286 127.822 49.922 127.822 47.2989V40.7936H118.978V47.2989C118.978 49.922 117.714 51.286 115.187 51.286H113.924C111.608 51.1811 110.344 49.8171 110.344 47.2989Z" fill="white"/>
<path d="M156.145 40.7933C156.145 43.7312 153.934 45.6198 150.986 45.6198C148.88 45.6198 147.511 44.5706 147.511 42.8918C147.511 40.0589 151.302 38.9047 154.145 38.9047H156.04V40.7933H156.145ZM151.302 22.8513C145.722 22.8513 140.457 25.4744 140.457 28.9369C140.457 33.2388 145.827 33.1339 145.827 33.1339C146.459 30.8256 148.354 29.5665 150.881 29.5665C154.776 29.5665 156.145 31.4551 156.145 34.1831H154.25C143.195 34.1831 138.983 38.5899 138.983 43.5214C138.983 48.3479 143.089 51.6005 148.459 51.6005C152.25 51.6005 155.829 50.2365 156.461 47.6134C156.777 49.6069 158.672 51.3907 161.199 51.3907C163.41 51.3907 164.463 50.6562 164.568 50.3414V33.5536C164.568 26.7335 159.83 22.8513 151.302 22.8513Z" fill="white"/>
<path d="M167.094 47.614V47.1943C167.094 44.781 167.937 43.8367 169.411 42.3678L179.94 30.5114H171.201C168.674 30.5114 167.41 29.672 167.41 27.2588V26.8391C167.41 24.5307 168.674 23.5864 171.201 23.5864H186.678C189.837 23.5864 190.995 25.2652 190.995 26.8391V27.2588C190.995 29.672 190.048 30.6163 188.679 32.0852L177.939 43.9416H187.415C189.942 43.9416 191.206 44.886 191.206 47.2992V47.614C191.206 49.9223 189.942 50.9715 187.415 50.9715H171.411C168.358 50.9715 167.094 49.2928 167.094 47.614Z" fill="white"/>
<path d="M210.372 40.7933C210.372 43.7312 208.161 45.6198 205.213 45.6198C203.107 45.6198 201.738 44.5706 201.738 42.8918C201.738 40.0589 205.528 38.9047 208.371 38.9047H210.266V40.7933H210.372ZM205.423 22.8513C199.843 22.8513 194.578 25.4744 194.578 28.9369C194.578 33.2388 199.948 33.1339 199.948 33.1339C200.58 30.8256 202.475 29.5665 205.002 29.5665C208.898 29.5665 210.266 31.4551 210.266 34.1831H208.371C197.316 34.1831 193.104 38.5899 193.104 43.5214C193.104 48.3479 197.21 51.6005 202.58 51.6005C206.371 51.6005 209.951 50.2365 210.582 47.6134C210.898 49.6069 212.793 51.3907 215.32 51.3907C217.532 51.3907 218.584 50.6562 218.69 50.3414V33.5536C218.69 26.7335 214.057 22.8513 205.423 22.8513Z" fill="white"/>
<path d="M221.848 47.299V27.4684C221.848 24.7403 223.217 23.3763 225.639 23.3763H228.061C230.377 23.3763 231.114 23.901 231.851 25.6847L236.379 36.7017L240.906 25.6847C241.748 23.796 242.591 23.3763 244.591 23.3763H247.013C249.54 23.3763 250.909 24.7403 250.909 27.4684V47.299C250.909 49.9221 249.961 51.2861 247.539 51.2861H246.171C243.854 51.2861 242.801 49.9221 242.801 47.299V35.5475L239.853 43.6266C239.432 44.6759 239.432 45.7251 236.168 45.7251C232.904 45.7251 233.009 44.7808 232.588 43.6266L229.745 35.9672V47.4039C229.745 50.027 228.903 51.391 226.376 51.391H225.007C222.901 51.1812 221.848 49.8171 221.848 47.299Z" fill="white"/>
<path d="M0 37.751C0 57.2668 15.8989 73.0054 35.3776 73.0054C54.9616 73.0054 70.7552 57.1619 70.7552 37.751C70.7552 18.2351 54.8563 2.49655 35.3776 2.49655C15.8989 2.39163 0 18.2351 0 37.751Z" fill="url(#paint0_linear_1_104798)"/>
<path d="M54.3302 50.8664C50.9609 54.5387 44.9594 60.3095 44.6435 60.5194C43.8012 61.2538 42.8536 61.6735 41.8007 61.6735C40.7478 61.6735 39.6949 61.2538 38.8525 60.4144C37.2732 58.7356 37.3785 56.2175 38.9578 54.6436C39.0631 54.5387 45.0647 48.8728 48.2234 45.4103C49.6974 43.7315 50.4345 41.6331 50.3292 39.4296C50.2239 37.1213 49.0657 34.9179 47.1705 33.3441C44.6435 31.2456 39.8001 30.721 36.7467 33.449C34.9568 35.1278 32.7457 37.4361 32.6404 37.541C31.061 39.2198 28.5341 39.3247 26.8494 37.7509C25.1648 36.177 25.0595 33.6588 26.6388 31.9801C26.7441 31.8751 29.1658 29.252 31.2716 27.3634C37.0626 22.1172 46.644 22.0123 52.5403 27.1536C56.1202 30.1964 58.226 34.3933 58.5418 38.905C58.8577 43.3118 57.3836 47.6137 54.3302 50.8664ZM29.587 51.1811C25.7965 51.1811 22.0061 49.922 19.0579 47.4039C15.4781 44.3611 13.3723 40.1641 13.0564 35.6524C12.7405 31.2456 14.3199 27.0486 17.268 23.6911C20.6373 20.0187 26.6388 14.2479 26.9547 14.0381C28.6394 12.4642 31.1663 12.5691 32.7457 14.143C34.325 15.8218 34.2197 18.34 32.6404 19.9138C32.5351 20.0187 26.5335 25.6846 23.3748 29.1471C21.9008 30.8259 21.1637 32.9244 21.269 35.1278C21.3743 37.4361 22.5325 39.6395 24.4277 41.2134C26.9547 43.3118 31.7981 43.8365 34.8515 41.1084C36.6414 39.4297 38.8525 37.1213 38.9578 37.0164C40.5372 35.3376 43.0641 35.2327 44.7488 36.8066C46.4334 38.3804 46.5387 40.8986 44.9594 42.5774C44.8541 42.6823 42.4324 45.3054 40.3266 47.194C37.3785 49.8171 33.4827 51.1811 29.587 51.1811Z" fill="white"/>
<path d="M370.651 0C349.871 0 333.025 16.7873 333.025 37.4952C333.025 58.2039 349.871 74.9899 370.651 74.9899C391.434 74.9899 408.278 58.2039 408.278 37.4952C408.278 16.7887 391.434 0.00179098 370.651 0.00179098L370.651 0ZM387.907 54.0788C387.746 54.341 387.535 54.569 387.286 54.7499C387.037 54.9308 386.754 55.0609 386.455 55.1329C386.155 55.2048 385.844 55.2172 385.54 55.1692C385.235 55.1212 384.943 55.0139 384.68 54.8534C375.846 49.476 364.725 48.2581 351.627 51.2401C351.021 51.3775 350.385 51.2694 349.858 50.9394C349.332 50.6094 348.958 50.0847 348.82 49.4804C348.751 49.1812 348.742 48.8714 348.793 48.5688C348.844 48.2661 348.955 47.9765 349.119 47.7166C349.283 47.4566 349.497 47.2315 349.748 47.0539C349.999 46.8764 350.283 46.75 350.584 46.682C364.917 43.4188 377.211 44.8239 387.129 50.864C388.235 51.5401 388.585 52.9773 387.907 54.0788ZM392.512 43.8693C391.663 45.2448 389.857 45.6791 388.477 44.8328C378.363 38.6378 362.946 36.8437 350.983 40.4624C349.432 40.9294 347.793 40.0581 347.322 38.5147C347.097 37.7727 347.177 36.9722 347.544 36.2887C347.911 35.6052 348.534 35.0945 349.278 34.8687C362.943 30.7369 379.931 32.7383 391.546 39.8508C392.925 40.697 393.361 42.4965 392.512 43.8693ZM392.907 33.238C380.78 26.0602 360.773 25.4002 349.194 28.902C347.335 29.4639 345.369 28.418 344.806 26.5652C344.535 25.6751 344.63 24.7142 345.069 23.8937C345.509 23.0733 346.258 22.4606 347.151 22.1903C360.442 18.1695 382.537 18.9464 396.499 27.206C396.897 27.4405 397.245 27.751 397.522 28.1197C397.799 28.4883 398.001 28.9078 398.115 29.3543C398.23 29.8007 398.254 30.2652 398.188 30.7212C398.122 31.1771 397.967 31.6157 397.73 32.0116C396.742 33.6781 394.576 34.2275 392.909 33.238H392.907ZM435.394 34.6135C428.897 33.0696 427.742 31.9861 427.742 29.7093C427.742 27.5583 429.773 26.1108 432.797 26.1108C435.727 26.1108 438.629 27.21 441.676 29.4729C441.765 29.5414 441.882 29.5687 441.995 29.5508C442.051 29.5427 442.105 29.5232 442.154 29.4935C442.203 29.4638 442.245 29.4245 442.278 29.378L445.45 24.922C445.512 24.8337 445.539 24.7248 445.524 24.6177C445.509 24.5106 445.453 24.4132 445.369 24.3453C441.743 21.447 437.663 20.038 432.891 20.038C425.878 20.038 420.976 24.2329 420.976 30.235C420.976 36.6713 425.204 38.9503 432.51 40.7095C438.724 42.1365 439.775 43.332 439.775 45.4686C439.775 47.8372 437.654 49.3103 434.239 49.3103C430.447 49.3103 427.352 48.0342 423.892 45.0522C423.806 44.9795 423.695 44.9427 423.582 44.9492C423.465 44.9582 423.362 45.0119 423.29 45.097L419.731 49.3148C419.583 49.4939 419.601 49.7536 419.772 49.9058C423.797 53.4878 428.749 55.3773 434.096 55.3773C441.653 55.3773 446.537 51.2625 446.537 44.891C446.551 39.5149 443.32 36.5374 435.408 34.6193L435.394 34.6135ZM463.638 28.2286C460.362 28.2286 457.675 29.5145 455.456 32.1495V29.1837C455.456 29.0715 455.412 28.9638 455.333 28.8841C455.254 28.8044 455.146 28.7593 455.034 28.7587H449.215C448.981 28.7587 448.793 28.9495 448.793 29.1837V62.1382C448.793 62.371 448.981 62.5636 449.215 62.5636H455.034C455.267 62.5636 455.456 62.371 455.456 62.1382V51.7371C457.675 54.2131 460.362 55.4265 463.638 55.4265C469.726 55.4265 475.891 50.7565 475.891 41.8289C475.9 32.8995 469.735 28.2282 463.642 28.2282L463.638 28.2286ZM469.124 41.8289C469.124 46.3731 466.316 49.5476 462.29 49.5476C458.313 49.5476 455.312 46.2298 455.312 41.8289C455.312 37.4276 458.313 34.1106 462.29 34.1106C466.248 34.1102 469.124 37.3559 469.124 41.8289ZM491.684 28.2286C483.843 28.2286 477.701 34.2445 477.701 41.9261C477.701 49.5252 483.803 55.4758 491.589 55.4758C499.457 55.4758 505.617 49.4804 505.617 41.8289C505.617 34.2033 499.497 28.2295 491.684 28.2295V28.2286ZM491.684 49.5924C487.514 49.5924 484.369 46.2522 484.369 41.8267C484.369 37.381 487.406 34.155 491.589 34.155C495.786 34.155 498.949 37.4938 498.949 41.9238C498.949 46.3686 495.894 49.5924 491.684 49.5924ZM522.358 28.7587H515.956V22.2369C515.956 22.1814 515.945 22.1264 515.924 22.075C515.903 22.0236 515.872 21.9769 515.833 21.9375C515.793 21.8981 515.747 21.8667 515.695 21.8453C515.644 21.8238 515.589 21.8126 515.533 21.8124H509.715C509.481 21.8124 509.288 22.0031 509.288 22.2369V28.7587H506.493C506.259 28.7587 506.071 28.9495 506.071 29.1837V34.1657C506.071 34.3994 506.259 34.5906 506.493 34.5906H509.288V47.4835C509.288 52.6908 511.889 55.3325 517.025 55.3325C519.11 55.3325 520.84 54.9026 522.471 53.9803C522.605 53.9086 522.686 53.7654 522.686 53.6131V48.867C522.686 48.7237 522.61 48.5849 522.484 48.5088C522.423 48.4698 522.352 48.4476 522.28 48.4445C522.207 48.4413 522.135 48.4574 522.071 48.4909C520.952 49.0506 519.869 49.3103 518.656 49.3103C516.791 49.3103 515.956 48.464 515.956 46.5746V34.5929H522.358C522.592 34.5929 522.781 34.4021 522.781 34.168V29.1863C522.782 29.1307 522.773 29.0754 522.753 29.0235C522.733 28.9717 522.702 28.9245 522.663 28.8847C522.624 28.845 522.577 28.8136 522.525 28.7924C522.474 28.7712 522.418 28.7607 522.363 28.7614L522.358 28.7587ZM544.662 28.7843V27.9832C544.662 25.6268 545.57 24.5759 547.6 24.5759C548.814 24.5759 549.789 24.8159 550.88 25.1786C551.015 25.2206 551.155 25.1996 551.262 25.1195C551.317 25.0801 551.362 25.0283 551.392 24.9683C551.423 24.9083 551.438 24.8419 551.438 24.7747V19.8898C551.439 19.7985 551.41 19.7095 551.355 19.636C551.301 19.5626 551.224 19.5088 551.137 19.4828C549.986 19.1412 548.513 18.7906 546.302 18.7906C540.933 18.7906 538.089 21.8057 538.089 27.5068V28.7337H535.294C535.06 28.7337 534.867 28.9244 534.867 29.1581V34.1657C534.867 34.3994 535.06 34.5906 535.294 34.5906H538.089V54.4728C538.089 54.7101 538.282 54.8982 538.515 54.8982H544.329C544.568 54.8982 544.756 54.7101 544.756 54.4728V34.592H550.188L558.51 54.4728C557.566 56.5593 556.636 56.9757 555.369 56.9757C554.345 56.9757 553.262 56.6712 552.161 56.0668C552.057 56.0143 551.936 56.0031 551.824 56.0354C551.712 56.0757 551.617 56.1563 551.572 56.2638L549.6 60.5756C549.506 60.7815 549.586 61.0189 549.784 61.1263C551.842 62.2367 553.698 62.7113 555.994 62.7113C560.289 62.7113 562.666 60.7144 564.755 55.3504L574.847 29.3645C574.873 29.3003 574.883 29.2305 574.875 29.1616C574.867 29.0927 574.842 29.0268 574.802 28.9701C574.764 28.9133 574.712 28.8667 574.652 28.8345C574.592 28.8024 574.524 28.7855 574.456 28.7856H568.399C568.215 28.7856 568.053 28.9007 567.995 29.0704L561.79 46.7268L554.996 29.0587C554.966 28.9787 554.912 28.9097 554.841 28.8609C554.77 28.8121 554.687 28.7859 554.601 28.7856H544.662V28.7843ZM531.731 28.7587H525.912C525.679 28.7587 525.485 28.9495 525.485 29.1837V54.4728C525.485 54.7101 525.679 54.8982 525.912 54.8982H531.731C531.964 54.8982 532.158 54.7101 532.158 54.4728V29.1854C532.158 29.1296 532.147 29.0742 532.125 29.0226C532.104 28.971 532.073 28.924 532.033 28.8846C531.993 28.8451 531.946 28.8138 531.894 28.7925C531.842 28.7712 531.787 28.7604 531.731 28.7605V28.7587ZM528.855 17.2432C526.55 17.2432 524.681 19.1022 524.681 21.3987C524.681 21.9449 524.789 22.4858 524.999 22.9904C525.209 23.4951 525.516 23.9536 525.904 24.3398C526.291 24.726 526.751 25.0323 527.258 25.2413C527.764 25.4503 528.307 25.5579 528.855 25.5578C531.16 25.5578 533.025 23.6965 533.025 21.3987C533.025 19.1026 531.156 17.2432 528.855 17.2432ZM579.816 36.8903C577.516 36.8903 575.723 35.0478 575.723 32.8104C575.723 30.573 577.538 28.7095 579.838 28.7095C582.139 28.7095 583.932 30.5515 583.932 32.7871C583.932 35.0245 582.116 36.8903 579.816 36.8903ZM579.838 29.1151C577.74 29.1151 576.154 30.7763 576.154 32.8104C576.154 34.8436 577.731 36.4824 579.816 36.4824C581.914 36.4824 583.5 34.8226 583.5 32.7871C583.5 30.7539 581.923 29.1151 579.838 29.1151ZM580.746 33.2067L581.905 34.8221H580.926L579.883 33.3401H578.989V34.8221H578.172V30.5399H580.086C581.088 30.5399 581.744 31.049 581.744 31.9059C581.748 32.608 581.339 33.037 580.751 33.2067H580.746ZM580.054 31.2746H578.989V32.6291H580.054C580.584 32.6291 580.903 32.3698 580.903 31.9512C580.903 31.5106 580.584 31.2746 580.054 31.2746Z" fill="#1ED760"/>
<path d="M790.978 57.2296C799.45 57.2296 805.093 51.7586 805.093 42.5255V18.9072H795.828V42.1557C795.828 46.4534 794.279 48.5832 791.029 48.5832C787.894 48.5832 786.55 46.4024 786.55 42.1557V18.9072H777.233V42.5255C777.246 51.9627 782.403 57.2296 790.978 57.2296Z" fill="#53A318"/>
<path d="M829.919 20.9731C827.36 19.175 824.327 18.9072 820.334 18.9072H807.767V56.643H817.032V44.4895H819.694C823.636 44.4895 826.617 44.2217 829.023 42.7934C832.799 40.5106 835.038 36.4807 835.038 31.5963C835.038 26.865 833.285 23.3069 829.919 20.9731ZM818.849 36.3149H817.147V27.3496H819.592C823.7 27.3496 825.67 28.6249 825.67 31.7493C825.658 35.1416 823.431 36.3149 818.849 36.3149Z" fill="#53A318"/>
<path d="M908.534 56.643V18.9072H899.282V39.8729L885.371 18.9072H877.014V56.643H886.279V35.6262L900.395 56.643H908.534Z" fill="#53A318"/>
<path d="M768.98 23.7912C765.307 20.1821 760.52 18.2181 755.453 18.2181C750.078 18.2181 745.381 20.0801 741.657 23.7402C737.933 27.4002 735.898 32.1826 735.898 37.3858C735.898 42.9588 737.715 47.6263 741.273 51.4012C744.997 55.3291 749.796 57.3441 755.389 57.3441C760.661 57.3441 765.665 55.2781 769.338 51.4522C772.908 47.7921 774.828 42.9588 774.828 37.5515C774.841 32.3866 772.819 27.5533 768.98 23.7912ZM755.401 47.9962C750.18 47.9962 745.445 43.4306 745.445 37.4878C745.445 31.9658 749.86 27.566 755.517 27.566C760.84 27.566 765.268 31.9658 765.268 37.4878C765.256 43.6347 760.84 47.9962 755.401 47.9962Z" fill="#53A318"/>
<path d="M869.339 23.7912C865.666 20.1821 860.867 18.2181 855.812 18.2181C850.424 18.2181 845.74 20.0801 842.016 23.7402C838.292 27.4002 836.257 32.1826 836.257 37.3858C836.257 42.9588 838.074 47.6263 841.632 51.4012C845.369 55.3291 850.155 57.3441 855.748 57.3441C861.02 57.3441 866.024 55.2781 869.697 51.4522C873.267 47.7921 875.187 42.9588 875.187 37.5515C875.2 32.3866 873.178 27.5533 869.339 23.7912ZM855.76 47.9962C850.539 47.9962 845.804 43.4306 845.804 37.4878C845.804 31.9658 850.232 27.566 855.876 27.566C861.199 27.566 865.627 31.9658 865.627 37.4878C865.615 43.6347 861.187 47.9962 855.76 47.9962Z" fill="#53A318"/>
<path d="M671.411 51.3888C675.136 55.3167 679.883 57.3827 685.476 57.3827C691.926 57.3827 697.992 54.1944 701.613 48.9402C703.802 45.752 704.864 42.1429 704.864 37.8962C704.864 37.1055 704.813 36.2511 704.762 35.3966H683.185V42.9336H693.999C692.131 46.2239 688.995 48.0348 685.476 48.0348C680.254 48.0348 675.571 43.4182 675.571 37.4116C675.571 31.9916 679.935 27.4898 685.476 27.4898C688.458 27.4898 690.902 28.7141 693.257 31.1499H703.802C700.769 23.0773 693.679 18.142 685.591 18.142C680.216 18.142 675.532 20.0549 671.795 23.715C668.071 27.3751 666.049 32.1574 666.049 37.3606C666.037 42.9464 667.841 47.6139 671.411 51.3888Z" fill="#53A318"/>
<path d="M725.89 43.6861C731.265 42.194 734.464 37.6412 734.464 31.5325C734.464 26.865 732.711 23.3069 729.345 20.9731C726.786 19.175 723.753 18.9072 719.76 18.9072H707.193V56.643H716.458V44.4895L723.702 56.643H735.155L725.89 43.6861ZM718.276 36.3149H716.471V27.3496H719.031C723.126 27.3496 725.097 28.6249 725.097 31.7493C725.097 35.1416 722.857 36.3149 718.276 36.3149Z" fill="#53A318"/>
<path d="M914.104 23.6891C914.897 23.6891 915.575 23.4086 916.126 22.8474C916.689 22.2863 916.958 21.6104 916.958 20.8325C916.958 20.0418 916.676 19.3786 916.126 18.8303C915.575 18.2819 914.897 18.0013 914.104 18.0013C913.323 18.0013 912.645 18.2819 912.095 18.8303C911.531 19.3914 911.263 20.0545 911.263 20.8325C911.263 21.6232 911.544 22.2991 912.095 22.8474C912.645 23.4086 913.31 23.6891 914.104 23.6891ZM912.376 19.0981C912.862 18.6135 913.438 18.3712 914.117 18.3712C914.795 18.3712 915.383 18.6135 915.857 19.0981C916.33 19.5699 916.574 20.1566 916.574 20.8325C916.574 21.5084 916.33 22.095 915.857 22.5796C915.383 23.0642 914.808 23.3065 914.117 23.3065C913.438 23.3065 912.85 23.0642 912.376 22.5796C911.903 22.095 911.659 21.5211 911.659 20.8325C911.659 20.1566 911.89 19.5827 912.376 19.0981Z" fill="#53A318"/>
<path d="M915.37 22.3371C915.357 22.3116 915.345 22.2606 915.345 22.1714C915.345 22.0948 915.332 22.0056 915.332 21.9418V21.7122C915.332 21.5592 915.281 21.3934 915.165 21.2276C915.05 21.0618 914.871 20.9598 914.628 20.9216C914.82 20.8961 914.973 20.845 915.076 20.7685C915.281 20.641 915.383 20.4242 915.383 20.1564C915.383 19.7611 915.217 19.4932 914.897 19.3657C914.717 19.2892 914.436 19.2509 914.039 19.2509H912.939V22.3754H913.489V21.1511H913.924C914.218 21.1511 914.423 21.1894 914.538 21.2531C914.743 21.3679 914.833 21.6102 914.833 21.9673V22.2096L914.845 22.3116V22.3499C914.845 22.3626 914.845 22.3754 914.858 22.3754H915.37V22.3371ZM914.538 20.692C914.423 20.743 914.244 20.7558 914.014 20.7558H913.514V19.6208H913.988C914.295 19.6208 914.513 19.659 914.653 19.7355C914.794 19.8121 914.858 19.9651 914.858 20.1947C914.858 20.4497 914.743 20.6155 914.538 20.692Z" fill="#53A318"/>
<path fill-rule="evenodd" clip-rule="evenodd" d="M1123.02 53.9219C1111.41 62.4499 1094.59 67 1080.1 67C1059.78 67 1041.49 59.5118 1027.65 47.0579C1026.57 46.0783 1027.54 44.7438 1028.85 45.5065C1043.78 54.1646 1062.24 59.3732 1081.31 59.3732C1094.18 59.3732 1108.33 56.7212 1121.34 51.2179C1123.3 50.3859 1124.95 52.5005 1123.02 53.9219Z" fill="#FF9900"/>
<path fill-rule="evenodd" clip-rule="evenodd" d="M1127.85 48.4178C1126.37 46.5283 1118.04 47.525 1114.3 47.967C1113.16 48.1058 1112.99 47.1177 1114.01 46.4071C1120.65 41.7531 1131.54 43.0964 1132.81 44.6564C1134.08 46.2251 1132.48 57.1018 1126.24 62.2931C1125.29 63.0905 1124.37 62.6658 1124.8 61.6084C1126.2 58.1245 1129.34 50.3158 1127.85 48.4178Z" fill="#FF9900"/>
<path fill-rule="evenodd" clip-rule="evenodd" d="M1114.56 13.5525V9.02855C1114.56 8.34385 1115.08 7.88452 1115.71 7.88452H1136.03C1136.69 7.88452 1137.21 8.35241 1137.21 9.02855V12.9024C1137.2 13.5525 1136.65 14.4019 1135.68 15.7452L1125.15 30.7299C1129.06 30.6347 1133.19 31.2153 1136.74 33.2087C1137.54 33.6592 1137.76 34.3181 1137.82 34.9679V39.7953C1137.82 40.4539 1137.09 41.2252 1136.32 40.8266C1130.07 37.5594 1121.76 37.204 1114.85 40.8613C1114.14 41.2428 1113.4 40.48 1113.4 39.8214V35.2367C1113.4 34.5 1113.41 33.2433 1114.15 32.1254L1126.35 14.688H1115.73C1115.08 14.688 1114.56 14.2286 1114.56 13.5525ZM1040.42 41.7799H1034.24C1033.64 41.7367 1033.17 41.2947 1033.13 40.7313V9.1066C1033.13 8.47386 1033.66 7.97113 1034.32 7.97113H1040.09C1040.69 7.99701 1041.17 8.45654 1041.21 9.02835V13.1627H1041.32C1042.83 9.16732 1045.65 7.30415 1049.46 7.30415C1053.33 7.30415 1055.75 9.16732 1057.49 13.1627C1058.99 9.16732 1062.39 7.30415 1066.03 7.30415C1068.62 7.30415 1071.46 8.37013 1073.19 10.7621C1075.15 13.4227 1074.75 17.288 1074.75 20.6767L1074.74 40.6361C1074.74 41.2688 1074.21 41.7801 1073.55 41.7801H1067.37C1066.75 41.7369 1066.26 41.243 1066.26 40.6361V23.8747C1066.26 22.5399 1066.38 19.2117 1066.08 17.9466C1065.62 15.8232 1064.24 15.2251 1062.45 15.2251C1060.95 15.2251 1059.39 16.2218 1058.75 17.8166C1058.12 19.4114 1058.18 22.0806 1058.18 23.8747V40.6359C1058.18 41.2686 1057.65 41.7799 1056.99 41.7799H1050.81C1050.19 41.7367 1049.7 41.2428 1049.7 40.6359L1049.69 23.8747C1049.69 20.3472 1050.27 15.1561 1045.88 15.1561C1041.44 15.1561 1041.61 20.2172 1041.61 23.8747V40.6359C1041.61 41.2686 1041.08 41.7799 1040.42 41.7799ZM1154.71 7.30395C1163.88 7.30395 1168.85 15.1559 1168.85 25.1399C1168.85 34.7859 1163.36 42.4387 1154.71 42.4387C1145.7 42.4387 1140.79 34.5866 1140.79 24.8019C1140.79 14.9566 1145.76 7.30395 1154.71 7.30395ZM1154.76 13.7606C1150.2 13.7606 1149.91 19.9486 1149.91 23.8052C1149.91 27.6707 1149.85 35.9212 1154.71 35.9212C1159.5 35.9212 1159.72 29.2653 1159.72 25.2092C1159.72 22.5399 1159.61 19.3505 1158.8 16.8199C1158.11 14.6185 1156.72 13.7606 1154.76 13.7606ZM1180.75 41.7799H1174.59C1173.97 41.7367 1173.47 41.2428 1173.47 40.6359L1173.47 9.00247C1173.52 8.42189 1174.03 7.97113 1174.66 7.97113H1180.39C1180.93 7.99701 1181.37 8.36137 1181.49 8.85514V13.6913H1181.61C1183.34 9.36662 1185.76 7.30395 1190.03 7.30395C1192.81 7.30395 1195.51 8.30044 1197.25 11.0305C1198.87 13.5611 1198.87 17.8166 1198.87 20.876V40.7832C1198.8 41.3379 1198.29 41.7799 1197.68 41.7799H1191.48C1190.91 41.7367 1190.44 41.3206 1190.38 40.7832V23.6059C1190.38 20.1479 1190.78 15.0864 1186.51 15.0864C1185.01 15.0864 1183.62 16.0918 1182.94 17.6171C1182.07 19.55 1181.95 21.4739 1181.95 23.6061V40.6359C1181.95 41.2686 1181.41 41.7799 1180.75 41.7799ZM1098.36 26.674C1098.36 29.0746 1098.42 31.0767 1097.2 33.2085C1096.22 34.942 1094.65 36.0078 1092.92 36.0078C1090.55 36.0078 1089.16 34.2054 1089.16 31.5446C1089.16 26.2925 1093.88 25.3392 1098.36 25.3392V26.674ZM1104.59 41.6933C1104.19 42.0573 1103.59 42.0834 1103.13 41.8407C1101.08 40.1419 1100.71 39.3533 1099.58 37.7326C1096.19 41.182 1093.78 42.2134 1089.39 42.2134C1084.18 42.2134 1080.14 39.0152 1080.14 32.6108C1080.14 27.61 1082.85 24.204 1086.73 22.5399C1090.09 21.0665 1094.78 20.8065 1098.36 20.3992V19.602C1098.36 18.1372 1098.47 16.4038 1097.6 15.1385C1096.85 14.0033 1095.41 13.5352 1094.13 13.5352C1091.77 13.5352 1089.68 14.7397 1089.17 17.2359C1089.06 17.7906 1088.65 18.3365 1088.09 18.3626L1082.1 17.7213C1081.59 17.6086 1081.03 17.2012 1081.17 16.4299C1082.55 9.18465 1089.12 7.00052 1095 7.00052C1098.01 7.00052 1101.94 7.79791 1104.32 10.0687C1107.33 12.868 1107.04 16.6031 1107.04 20.6679V30.2705C1107.04 33.1567 1108.24 34.4218 1109.37 35.9819C1109.76 36.5366 1109.85 37.204 1109.34 37.6199C1108.08 38.6686 1105.84 40.6186 1104.6 41.7106L1104.59 41.6933M1017.29 26.674C1017.29 29.0746 1017.35 31.0767 1016.14 33.2085C1015.15 34.942 1013.6 36.0078 1011.86 36.0078C1009.48 36.0078 1008.1 34.2054 1008.1 31.5446C1008.1 26.2925 1012.82 25.3392 1017.29 25.3392V26.674ZM1023.53 41.6933C1023.12 42.0573 1022.53 42.0834 1022.07 41.8407C1020.02 40.1419 1019.65 39.3533 1018.52 37.7326C1015.13 41.182 1012.73 42.2134 1008.33 42.2134C1003.13 42.2134 999.074 39.0152 999.074 32.6108C999.074 27.61 1001.8 24.204 1005.67 22.5399C1009.02 21.0665 1013.71 20.8065 1017.29 20.3992V19.602C1017.29 18.1372 1017.41 16.4038 1016.55 15.1385C1015.79 14.0033 1014.35 13.5352 1013.08 13.5352C1010.72 13.5352 1008.61 14.7397 1008.1 17.2359C1008 17.7906 1007.59 18.3365 1007.03 18.3626L1001.03 17.7213C1000.53 17.6086 999.97 17.2012 1000.11 16.4299C1001.49 9.18465 1008.06 7.00052 1013.94 7.00052C1016.95 7.00052 1020.88 7.79791 1023.25 10.0687C1026.26 12.868 1025.97 16.6031 1025.97 20.6679V30.2705C1025.97 33.1567 1027.17 34.4218 1028.3 35.9819C1028.7 36.5366 1028.79 37.204 1028.29 37.6199C1027.03 38.6686 1024.78 40.6186 1023.55 41.7106L1023.53 41.6933Z" fill="white"/>
<path d="M1369.67 41.7637L1368.18 45.9868H1368.05C1367.8 45.0346 1367.35 43.5855 1366.6 41.8465L1358.58 21.766H1350.73V53.7706H1355.92V34.0213C1355.92 32.7792 1355.92 31.3715 1355.88 29.6326C1355.84 28.7631 1355.76 28.1007 1355.71 27.6038H1355.84C1356.09 28.8459 1356.38 29.7568 1356.59 30.3364L1366.23 53.6878H1369.88L1379.44 30.1294C1379.65 29.5912 1379.85 28.5147 1380.06 27.6038H1380.19C1380.06 29.9638 1379.98 32.0754 1379.94 33.3589V53.6464H1385.46V21.6832H1377.9L1369.67 41.7637ZM1390.7 30.7091H1396.1V53.6464H1390.7V30.7091ZM1393.44 21.0207C1392.53 21.0207 1391.78 21.352 1391.15 21.9316C1390.53 22.5112 1390.2 23.2565 1390.2 24.1674C1390.2 25.0368 1390.53 25.7821 1391.15 26.3617C1391.78 26.9414 1392.53 27.2312 1393.44 27.2312C1394.35 27.2312 1395.14 26.9 1395.73 26.3617C1396.35 25.7821 1396.68 25.0368 1396.68 24.1674C1396.68 23.2979 1396.35 22.5527 1395.73 21.9316C1395.18 21.352 1394.4 21.0207 1393.44 21.0207ZM1415.25 30.5021C1414.26 30.295 1413.22 30.1708 1412.22 30.1708C1409.77 30.1708 1407.52 30.7091 1405.65 31.7856C1403.79 32.862 1402.29 34.3525 1401.33 36.2157C1400.34 38.1202 1399.84 40.3146 1399.84 42.8402C1399.84 45.0346 1400.34 46.9805 1401.29 48.7608C1402.25 50.4998 1403.58 51.9075 1405.36 52.8598C1407.07 53.812 1409.06 54.3089 1411.31 54.3089C1413.88 54.3089 1416.08 53.7706 1417.83 52.7769L1417.87 52.7355V47.7672L1417.66 47.9328C1416.87 48.5124 1415.96 49.0093 1415.04 49.2991C1414.09 49.6303 1413.22 49.7959 1412.47 49.7959C1410.31 49.7959 1408.6 49.1749 1407.4 47.8086C1406.15 46.4837 1405.53 44.6619 1405.53 42.3848C1405.53 40.0248 1406.15 38.1616 1407.44 36.7953C1408.73 35.429 1410.43 34.7252 1412.51 34.7252C1414.26 34.7252 1416.04 35.3048 1417.66 36.4641L1417.87 36.6297V31.3715L1417.83 31.3301C1417.12 31.0403 1416.33 30.7091 1415.25 30.5021ZM1433.08 30.3364C1431.75 30.3364 1430.5 30.7505 1429.42 31.6199C1428.51 32.3652 1427.88 33.4417 1427.34 34.7252H1427.3V30.7091H1421.9V53.6464H1427.3V41.9293C1427.3 39.942 1427.72 38.2858 1428.63 37.0852C1429.54 35.8431 1430.71 35.222 1432.12 35.222C1432.62 35.222 1433.12 35.3462 1433.74 35.429C1434.32 35.5946 1434.74 35.7603 1435.03 35.9673L1435.24 36.1329V30.7505L1435.11 30.7091C1434.74 30.4607 1433.99 30.3364 1433.08 30.3364ZM1447.78 30.2122C1444 30.2122 1440.97 31.3301 1438.85 33.5245C1436.69 35.7189 1435.65 38.7413 1435.65 42.5504C1435.65 46.111 1436.73 49.0093 1438.81 51.1208C1440.89 53.191 1443.71 54.2675 1447.24 54.2675C1450.94 54.2675 1453.89 53.1496 1456.01 50.9138C1458.17 48.678 1459.21 45.697 1459.21 42.0121C1459.21 38.3687 1458.21 35.4704 1456.18 33.3589C1454.22 31.2473 1451.36 30.2122 1447.78 30.2122ZM1452.11 47.85C1451.11 49.1335 1449.53 49.7545 1447.58 49.7545C1445.62 49.7545 1444.05 49.1335 1442.92 47.7672C1441.8 46.4837 1441.26 44.6205 1441.26 42.2606C1441.26 39.8178 1441.84 37.9546 1442.92 36.6297C1444.05 35.3048 1445.58 34.6424 1447.54 34.6424C1449.45 34.6424 1450.94 35.2634 1452.02 36.5469C1453.1 37.8304 1453.68 39.6936 1453.68 42.1363C1453.6 44.6205 1453.14 46.5665 1452.11 47.85ZM1471.26 40.2318C1469.56 39.5279 1468.48 38.9897 1467.98 38.5343C1467.56 38.1202 1467.35 37.5406 1467.35 36.7953C1467.35 36.1743 1467.6 35.5532 1468.23 35.1392C1468.85 34.7252 1469.56 34.5182 1470.59 34.5182C1471.51 34.5182 1472.46 34.6838 1473.38 34.9322C1474.29 35.1806 1475.12 35.5532 1475.79 36.0501L1476 36.2157V31.1645L1475.87 31.1231C1475.25 30.8747 1474.42 30.6263 1473.42 30.4193C1472.42 30.2536 1471.51 30.1708 1470.76 30.1708C1468.18 30.1708 1466.07 30.7919 1464.4 32.1582C1462.74 33.4417 1461.95 35.1806 1461.95 37.2094C1461.95 38.2858 1462.12 39.2381 1462.49 40.0248C1462.87 40.8114 1463.41 41.5567 1464.15 42.1777C1464.9 42.7574 1465.98 43.4198 1467.48 44.0409C1468.72 44.5791 1469.68 44.9932 1470.26 45.3244C1470.84 45.6556 1471.22 46.0282 1471.51 46.3181C1471.72 46.6493 1471.84 47.0633 1471.84 47.6016C1471.84 49.1335 1470.68 49.8787 1468.31 49.8787C1467.39 49.8787 1466.44 49.7131 1465.32 49.3405C1464.2 48.9679 1463.16 48.4296 1462.28 47.8086L1462.08 47.643V52.9012L1462.2 52.9426C1462.99 53.3152 1463.95 53.5636 1465.11 53.8534C1466.27 54.0604 1467.31 54.2261 1468.23 54.2261C1471.01 54.2261 1473.29 53.605 1474.92 52.2387C1476.58 50.9138 1477.45 49.2163 1477.45 47.0219C1477.45 45.49 1477.03 44.1237 1476.12 43.0886C1474.92 42.0949 1473.42 41.0599 1471.26 40.2318ZM1491.7 30.2122C1487.92 30.2122 1484.89 31.3301 1482.77 33.5245C1480.65 35.7189 1479.57 38.7413 1479.57 42.5504C1479.57 46.111 1480.65 49.0093 1482.73 51.1208C1484.8 53.191 1487.63 54.2675 1491.16 54.2675C1494.86 54.2675 1497.81 53.1496 1499.93 50.9138C1502.09 48.678 1503.13 45.697 1503.13 42.0121C1503.13 38.3687 1502.13 35.4704 1500.09 33.3589C1498.14 31.2473 1495.27 30.2122 1491.7 30.2122ZM1495.98 47.85C1494.98 49.1335 1493.4 49.7545 1491.45 49.7545C1489.46 49.7545 1487.92 49.1335 1486.8 47.7672C1485.68 46.4837 1485.14 44.6205 1485.14 42.2606C1485.14 39.8178 1485.72 37.9546 1486.8 36.6297C1487.92 35.3048 1489.46 34.6424 1491.41 34.6424C1493.28 34.6424 1494.82 35.2634 1495.9 36.5469C1496.98 37.8304 1497.56 39.6936 1497.56 42.1363C1497.56 44.6205 1497.02 46.5665 1495.98 47.85ZM1532 35.1392V30.7091H1526.56V23.919L1526.39 23.9604L1521.24 25.4923L1521.12 25.5337V30.7091H1512.97V27.8109C1512.97 26.4859 1513.31 25.4509 1513.89 24.7884C1514.47 24.126 1515.34 23.7947 1516.42 23.7947C1517.17 23.7947 1517.96 23.9604 1518.83 24.333L1519.04 24.4572V19.7786L1518.91 19.7372C1518.17 19.4888 1517.17 19.3232 1515.88 19.3232C1514.26 19.3232 1512.85 19.6958 1511.56 20.3169C1510.27 21.0207 1509.32 21.973 1508.61 23.2565C1507.9 24.4986 1507.53 25.9063 1507.53 27.521V30.7091H1503.75V35.0978H1507.53V53.6464H1512.97V35.1392H1521.12V46.9391C1521.12 51.7833 1523.4 54.2261 1527.97 54.2261C1528.72 54.2261 1529.51 54.1019 1530.26 53.9776C1531.05 53.812 1531.63 53.605 1531.96 53.4394L1532 53.398V48.9679L1531.79 49.1335C1531.46 49.3405 1531.17 49.5061 1530.67 49.6303C1530.26 49.7545 1529.88 49.7959 1529.59 49.7959C1528.51 49.7959 1527.76 49.5475 1527.22 48.9265C1526.73 48.3468 1526.48 47.3945 1526.48 45.9868V35.1392H1532Z" fill="white"/>
<path d="M1281.09 11.0008H1306.56V36.3809H1281.09V11.0008Z" fill="#F25022"/>
<path d="M1309.22 11.0008H1334.69V36.3809H1309.22V11.0008Z" fill="#7FBA00"/>
<path d="M1281.09 39.0312H1306.56V64.4113H1281.09V39.0312Z" fill="#00A4EF"/>
<path d="M1309.22 39.0312H1334.69V64.4113H1309.22V39.0312Z" fill="#FFB900"/>
<defs>
<linearGradient id="paint0_linear_1_104798" x1="35.4268" y1="72.9831" x2="35.4268" y2="-15.2626" gradientUnits="userSpaceOnUse">
<stop stop-color="#2255FF"/>
<stop offset="1" stop-color="#00AAFF"/>
</linearGradient>
</defs>
</svg>
