<svg width="28" height="28" viewBox="0 0 28 28" fill="none" xmlns="http://www.w3.org/2000/svg">
<path d="M3.38385 17.6461L13.1839 7.81694C13.3005 7.70028 13.4269 7.61745 13.563 7.56845C13.6991 7.51945 13.845 7.49533 14.0005 7.49611C14.1561 7.49611 14.3019 7.52022 14.438 7.56845C14.5741 7.61667 14.7005 7.6995 14.8172 7.81694L24.6464 17.6461C24.9186 17.9183 25.0547 18.2586 25.0547 18.6669C25.0547 19.0753 24.9089 19.4253 24.6172 19.7169C24.3255 20.0086 23.9852 20.1544 23.5964 20.1544C23.2075 20.1544 22.8672 20.0086 22.5755 19.7169L14.0005 11.1419L5.42552 19.7169C5.1533 19.9892 4.81769 20.1253 4.41869 20.1253C4.01969 20.1253 3.67474 19.9794 3.38385 19.6878C3.09219 19.3961 2.94635 19.0558 2.94635 18.6669C2.94635 18.2781 3.09219 17.9378 3.38385 17.6461Z" fill="white"/>
</svg>
