<svg width="31" height="26" viewBox="0 0 31 26" fill="none" xmlns="http://www.w3.org/2000/svg">
<path d="M27.645 14.7334C27.645 15.3153 27.5823 15.8949 27.4629 16.4668C26.9551 18.899 25.4215 21.1905 23.3255 22.9171C21.05 24.7915 18.1114 26.0001 15.1024 26.0001C8.9969 26.0001 3.98869 21.805 3.49549 16.4668C3.46909 16.181 3.45563 15.8919 3.45563 15.6001C3.45563 9.85629 8.67107 5.20003 15.9983 5.20003C23.3255 5.20003 27.645 10.4001 27.645 14.7334Z" fill="white"/>
<path d="M3.11007 1.56001C3.11007 2.42158 2.41385 3.12002 1.55503 3.12002C0.696212 3.12002 0 2.42158 0 1.56001C0 0.698439 0.696212 0 1.55503 0C2.41385 0 3.11007 0.698439 3.11007 1.56001Z" fill="white"/>
<path d="M30.7551 1.56001C30.7551 2.42158 30.0589 3.12002 29.2001 3.12002C28.3412 3.12002 27.645 2.42158 27.645 1.56001C27.645 0.698439 28.3412 0 29.2001 0C30.0589 0 30.7551 0.698439 30.7551 1.56001Z" fill="white"/>
</svg>
