<svg width="20" height="20" viewBox="0 0 20 20" fill="none" xmlns="http://www.w3.org/2000/svg">
<path d="M13.3333 11.25C13.6944 11.25 13.9931 11.1319 14.2292 10.8958C14.4653 10.6597 14.5833 10.3611 14.5833 10C14.5833 9.63889 14.4653 9.34028 14.2292 9.10417C13.9931 8.86806 13.6944 8.75 13.3333 8.75C12.9722 8.75 12.6736 8.86806 12.4375 9.10417C12.2014 9.34028 12.0833 9.63889 12.0833 10C12.0833 10.3611 12.2014 10.6597 12.4375 10.8958C12.6736 11.1319 12.9722 11.25 13.3333 11.25ZM10.8333 14.1667C10.375 14.1667 9.9825 14.0033 9.65584 13.6767C9.32917 13.35 9.16611 12.9578 9.16667 12.5V7.5C9.16667 7.04167 9.33 6.64917 9.65667 6.3225C9.98334 5.99583 10.3756 5.83278 10.8333 5.83333H16.6667C17.125 5.83333 17.5175 5.99667 17.8442 6.32333C18.1708 6.65 18.3339 7.04222 18.3333 7.5V12.5C18.3333 12.9583 18.17 13.3508 17.8433 13.6775C17.5167 14.0042 17.1244 14.1672 16.6667 14.1667H10.8333ZM4.16667 17.5C3.70833 17.5 3.31583 17.3367 2.98917 17.01C2.6625 16.6833 2.49945 16.2911 2.5 15.8333V4.16667C2.5 3.70833 2.66333 3.31583 2.99 2.98917C3.31667 2.6625 3.70889 2.49945 4.16667 2.5H15.8333C16.2917 2.5 16.6842 2.66333 17.0108 2.99C17.3375 3.31667 17.5006 3.70889 17.5 4.16667H10.8333C9.84722 4.16667 9.045 4.47583 8.42667 5.09417C7.80834 5.7125 7.49945 6.51445 7.5 7.5V12.5C7.5 13.4861 7.80917 14.2883 8.4275 14.9067C9.04584 15.525 9.84778 15.8339 10.8333 15.8333H17.5C17.5 16.2917 17.3367 16.6842 17.01 17.0108C16.6833 17.3375 16.2911 17.5006 15.8333 17.5H4.16667Z" fill="#05011D"/>
</svg>
