<svg width="27" height="27" viewBox="0 0 27 27" fill="none" xmlns="http://www.w3.org/2000/svg">
<path d="M1.00011 1.00011H3.17535C4.5255 1.00011 5.58811 2.16273 5.4756 3.50038L4.43798 15.9517C4.26296 17.9894 5.87563 19.7396 7.92585 19.7396H21.2398C23.04 19.7396 24.6152 18.2645 24.7527 16.4768L25.4278 7.10078C25.5778 5.02555 24.0026 3.33786 21.9149 3.33786H5.77564" stroke="#05011D" stroke-width="2" stroke-miterlimit="10" stroke-linecap="round" stroke-linejoin="round"/>
<path d="M18.8145 25.9999C19.6776 25.9999 20.3772 25.3003 20.3772 24.4372C20.3772 23.5742 19.6776 22.8746 18.8145 22.8746C17.9515 22.8746 17.2519 23.5742 17.2519 24.4372C17.2519 25.3003 17.9515 25.9999 18.8145 25.9999Z" stroke="#05011D" stroke-width="2" stroke-miterlimit="10" stroke-linecap="round" stroke-linejoin="round"/>
<path d="M8.81346 25.9999C9.6765 25.9999 10.3761 25.3003 10.3761 24.4372C10.3761 23.5742 9.6765 22.8746 8.81346 22.8746C7.95042 22.8746 7.25079 23.5742 7.25079 24.4372C7.25079 25.3003 7.95042 25.9999 8.81346 25.9999Z" stroke="#05011D" stroke-width="2" stroke-miterlimit="10" stroke-linecap="round" stroke-linejoin="round"/>
</svg>
