<svg width="20" height="20" viewBox="0 0 20 20" fill="none" xmlns="http://www.w3.org/2000/svg">
<path d="M16.3636 7.27273L15.2273 4.77273L12.7273 3.63636L15.2273 2.5L16.3636 0L17.5 2.5L20 3.63636L17.5 4.77273L16.3636 7.27273ZM16.3636 20L15.2273 17.5L12.7273 16.3636L15.2273 15.2273L16.3636 12.7273L17.5 15.2273L20 16.3636L17.5 17.5L16.3636 20ZM3.45455 13.6364H5.18182L5.81818 11.8182H8.72727L9.36364 13.6364H11.0909L8.18182 5.45455H6.36364L3.45455 13.6364ZM6.22727 10.5909L7.27273 7.27273L8.31818 10.5909H6.22727ZM7.27273 17.2727C5.24242 17.2727 3.52273 16.5682 2.11364 15.1591C0.704546 13.75 0 12.0303 0 10C0 7.9697 0.704546 6.25 2.11364 4.84091C3.52273 3.43182 5.24242 2.72727 7.27273 2.72727C9.30303 2.72727 11.0227 3.43182 12.4318 4.84091C13.8409 6.25 14.5455 7.9697 14.5455 10C14.5455 12.0303 13.8409 13.75 12.4318 15.1591C11.0227 16.5682 9.30303 17.2727 7.27273 17.2727Z" fill="white"/>
</svg>
