<svg width="40" height="40" viewBox="0 0 40 40" fill="none" xmlns="http://www.w3.org/2000/svg">
<path fill-rule="evenodd" clip-rule="evenodd" d="M8.3312 0H31.6672C36.2704 0 40 4.0128 40 8.9632V31.0368C40 35.9872 36.2704 40 31.6688 40H8.3312C3.7296 40 0 35.9872 0 31.0368V8.9632C0 4.0128 3.7296 0 8.3312 0Z" fill="#0052FF"/>
<path fill-rule="evenodd" clip-rule="evenodd" d="M19.9994 5.79395C27.8458 5.79395 34.2058 12.1539 34.2058 20.0003C34.2058 27.8467 27.8458 34.2067 19.9994 34.2067C12.153 34.2067 5.79297 27.8467 5.79297 20.0003C5.79297 12.1539 12.153 5.79395 19.9994 5.79395Z" fill="white"/>
<path fill-rule="evenodd" clip-rule="evenodd" d="M16.5025 15.459H23.4993C24.0753 15.459 24.5409 15.9614 24.5409 16.579V23.419C24.5409 24.0382 24.0737 24.539 23.4993 24.539H16.5025C15.9265 24.539 15.4609 24.0366 15.4609 23.419V16.579C15.4609 15.9614 15.9281 15.459 16.5025 15.459Z" fill="#0052FF"/>
</svg>
