<svg width="15" height="21" viewBox="0 0 15 21" fill="none" xmlns="http://www.w3.org/2000/svg">
<path d="M7.49583 9.44315C7.40102 9.43367 7.28726 9.43367 7.18298 9.44315C4.92669 9.3673 3.13493 7.51866 3.13493 5.24342C3.13493 2.92076 5.01201 1.0342 7.34414 1.0342C9.66679 1.0342 11.5534 2.92076 11.5534 5.24342C11.5439 7.51866 9.75211 9.3673 7.49583 9.44315Z" stroke="#1F1F1F" stroke-width="2" stroke-linecap="round" stroke-linejoin="round"/>
<path d="M2.75486 12.94C0.460652 14.4758 0.460652 16.9786 2.75486 18.5049C5.36192 20.2492 9.63749 20.2492 12.2445 18.5049C14.5388 16.9691 14.5388 14.4663 12.2445 12.94C9.64697 11.2051 5.3714 11.2051 2.75486 12.94Z" stroke="#1F1F1F" stroke-width="2" stroke-linecap="round" stroke-linejoin="round"/>
</svg>
