<svg width="140" height="60" viewBox="0 0 140 60" fill="none" xmlns="http://www.w3.org/2000/svg">
<circle cx="110" cy="30" r="30" fill="#9F4DEB"/>
<rect x="107.771" y="15.4277" width="2.74286" height="27.4286" rx="1.37143" fill="white"/>
<rect x="95.4297" y="30.5148" width="2.74286" height="27.4286" rx="1.37143" transform="rotate(-90 95.4297 30.5148)" fill="white"/>
<g filter="url(#filter0_b_1_103531)">
<path d="M30 60C46.5685 60 60 46.5685 60 30C60 13.4315 46.5685 0 30 0C13.4315 0 0 13.4315 0 30C0 46.5685 13.4315 60 30 60Z" fill="#05011D"/>
</g>
<path d="M22.851 39.3296C22.8535 40.1588 23.1841 40.9534 23.7705 41.5398C24.3568 42.1262 25.1514 42.4567 25.9807 42.4593H35.3716C36.2009 42.4567 36.9954 42.1262 37.5818 41.5398C38.1682 40.9534 38.4988 40.1588 38.5013 39.3296V23.6793H22.851V39.3296ZM40.0671 18.9838H35.3716L33.8058 17.418H27.5445L25.9787 18.9838H21.2871V22.1135H40.0613L40.0671 18.9838Z" fill="white"/>
<defs>
<filter id="filter0_b_1_103531" x="-100" y="-100" width="260" height="260" filterUnits="userSpaceOnUse" color-interpolation-filters="sRGB">
<feFlood flood-opacity="0" result="BackgroundImageFix"/>
<feGaussianBlur in="BackgroundImageFix" stdDeviation="50"/>
<feComposite in2="SourceAlpha" operator="in" result="effect1_backgroundBlur_1_103531"/>
<feBlend mode="normal" in="SourceGraphic" in2="effect1_backgroundBlur_1_103531" result="shape"/>
</filter>
</defs>
</svg>
