<svg width="1315" height="698" viewBox="0 0 1315 698" fill="none" xmlns="http://www.w3.org/2000/svg">
<path d="M1302.33 697.142L0.601677 697.142" stroke="#505050" stroke-width="0.3"/>
<path d="M1302.33 597.788L1.26782 597.787" stroke="#505050" stroke-width="0.3"/>
<path d="M1302.33 498.429L1.26782 498.429" stroke="#505050" stroke-width="0.3"/>
<path d="M1302.33 399.075L1.26782 399.075" stroke="#505050" stroke-width="0.3"/>
<path d="M1302.33 299.72L1.26782 299.72" stroke="#505050" stroke-width="0.3"/>
<path d="M1302.33 200.365L1.26782 200.365" stroke="#505050" stroke-width="0.3"/>
<path d="M1302.33 101.01L1.26782 101.01" stroke="#505050" stroke-width="0.3"/>
<path d="M1303 1.65567L1.26782 1.65567" stroke="#505050" stroke-width="0.3"/>
<path d="M1.26782 0L1.26786 697.141" stroke="#505050" stroke-width="0.3"/>
<path d="M1302.33 1.65559L1302.33 697.632" stroke="#505050" stroke-width="0.3"/>
<path d="M91.2265 119.052L1.43959 196.953C1.00167 197.333 0.750143 197.884 0.750143 198.464V695.632C0.750143 696.737 1.64574 697.633 2.75052 697.633H1300C1301.1 697.633 1302 696.737 1302 695.632V117.161C1302 115.438 1299.97 114.521 1298.67 115.661L1211.36 192.728C1210.59 193.405 1209.44 193.394 1208.69 192.704L1165.38 153.078C1164.7 152.453 1163.68 152.378 1162.91 152.897L1103.86 192.88C1102.99 193.466 1101.82 193.287 1101.17 192.47L1042.55 118.868C1042.06 118.253 1041.26 117.982 1040.5 118.175L919.218 148.961C918.668 149.1 918.085 149 917.613 148.684L751.202 37.2522C750.529 36.8013 749.65 36.8013 748.976 37.2522L582.649 148.628C582.129 148.976 581.477 149.061 580.886 148.858L492.151 118.379C491.263 118.074 490.283 118.427 489.794 119.228L414.29 242.76C414.156 242.978 413.982 243.169 413.777 243.321L308.281 321.776C307.499 322.358 306.41 322.291 305.705 321.616L93.9199 119.117C93.1735 118.403 92.0066 118.375 91.2265 119.052Z" fill="url(#paint0_linear_1_117521)" fill-opacity="0.6"/>
<path d="M0.750143 196.377L90.5203 117.277C91.6958 116.241 93.4703 116.284 94.5943 117.376L305.08 321.769C306.142 322.8 307.798 322.903 308.979 322.011L413.624 242.976C413.93 242.745 414.189 242.457 414.387 242.129L489.341 117.586C490.089 116.344 491.617 115.814 492.972 116.326L581.018 149.575C581.937 149.922 582.967 149.797 583.776 149.241L749.183 35.6727C750.206 34.9701 751.556 34.9701 752.579 35.6727L918.117 149.331C918.852 149.836 919.774 149.988 920.633 149.745L1039.77 116.001C1040.96 115.664 1042.24 116.091 1042.99 117.077L1101.17 193.986C1102.17 195.307 1104.05 195.569 1105.38 194.57L1162.13 151.708C1163.33 150.803 1165.01 150.923 1166.06 151.988L1208.15 194.371C1209.27 195.498 1211.07 195.558 1212.27 194.508L1302 115.442" stroke="#9F4DEB" stroke-width="1.5" stroke-linecap="round"/>
<circle cx="1300" cy="123.523" r="15.0029" fill="#9F4DEB"/>
<defs>
<linearGradient id="paint0_linear_1_117521" x1="651.374" y1="38.1639" x2="651.374" y2="697.633" gradientUnits="userSpaceOnUse">
<stop stop-color="#9F4DEB"/>
<stop offset="1" stop-color="#9F4DEB" stop-opacity="0"/>
</linearGradient>
</defs>
</svg>
