<svg width="40" height="25" viewBox="0 0 40 25" fill="none" xmlns="http://www.w3.org/2000/svg">
<path d="M8.19152 4.77585C14.7057 -1.59195 25.2943 -1.59195 31.8329 4.77585L32.6136 5.53217C32.9308 5.84934 32.9308 6.3617 32.6136 6.67887L29.9299 9.28942C29.7591 9.4602 29.4907 9.4602 29.3443 9.28942L28.2708 8.24032C23.7084 3.79994 16.3403 3.79994 11.778 8.24032L10.6313 9.36261C10.4605 9.53339 10.1921 9.53339 10.0457 9.36261L7.362 6.75206C7.04483 6.43489 7.04483 5.92254 7.362 5.60537L8.21592 4.77585H8.19152ZM37.3712 10.1921L39.7621 12.5343C40.0793 12.8515 40.0793 13.3638 39.7621 13.681L28.9783 24.1964C28.6612 24.5136 28.1244 24.5136 27.8073 24.1964L20.1464 16.7307C20.0732 16.6575 19.9268 16.6575 19.8536 16.7307L12.1927 24.1964C11.8756 24.5136 11.3388 24.5136 11.0217 24.1964L0.237877 13.681C-0.0792925 13.3638 -0.0792925 12.8515 0.237877 12.5343L2.62885 10.1921C2.94602 9.87496 3.48277 9.87496 3.79994 10.1921L11.4608 17.6578C11.534 17.731 11.6804 17.731 11.7536 17.6578L19.4145 10.1921C19.7316 9.87496 20.2684 9.87496 20.5855 10.1921L28.2464 17.6578C28.3196 17.731 28.466 17.731 28.5392 17.6578L36.2001 10.1921C36.5172 9.87496 37.054 9.87496 37.3712 10.1921Z" fill="white"/>
</svg>
