<svg width="21" height="21" viewBox="0 0 21 21" fill="none" xmlns="http://www.w3.org/2000/svg">
<g filter="url(#filter0_d_1_109327)">
<path d="M10.7404 3.43853e-05C8.73558 -0.00498873 6.76947 0.540427 5.06543 1.57433C3.36139 2.60823 1.98774 4.08917 1.10051 5.84892L4.719 8.55019C5.13731 7.31085 5.94459 6.23234 7.02578 5.46836C8.10698 4.70438 9.40695 4.2939 10.7404 4.2954C12.1827 4.29388 13.5807 4.78312 14.695 5.67937L17.8205 2.6245C15.8662 0.934156 13.3484 0.000836162 10.7404 3.43853e-05Z" fill="white"/>
<path d="M1.10444 5.84744L4.71849 8.55016C5.13696 7.31034 5.94468 6.2315 7.02647 5.46748C8.10826 4.70345 9.40889 4.29325 10.7429 4.29537C12.1852 4.29384 13.5831 4.78308 14.6975 5.67933L17.8229 2.62446C15.8689 0.934801 13.3517 0.00155566 10.7444 0" fill="white"/>
<path d="M4.39579 10.4978C4.39579 10.4007 4.39579 10.305 4.40763 10.208C4.43368 9.64323 4.53777 9.08457 4.71707 8.5472L1.10302 5.84447C0.420327 7.20444 0.0470391 8.69314 0.00888343 10.208C0.00888343 10.3036 0 10.3992 0 10.4978C0 10.5963 6.20496e-08 10.6905 0.00888343 10.7876C0.0470349 12.3007 0.419279 13.7878 1.10006 15.1468L4.71263 12.4397C4.5349 11.905 4.4318 11.3493 4.40615 10.7876C4.40319 10.6905 4.39579 10.5949 4.39579 10.4978Z" fill="white"/>
<path d="M1.10051 15.1453L4.71307 12.4382C4.53534 11.9036 4.43225 11.3479 4.4066 10.7862C4.4066 10.6905 4.39475 10.5949 4.39475 10.4963C4.39475 10.3978 4.39475 10.3036 4.4066 10.2065C4.43265 9.64179 4.53674 9.08311 4.71603 8.54574L1.10199 5.84447" fill="white"/>
<path d="M14.311 15.786C13.2344 16.415 11.9979 16.733 10.7444 16.7033C9.41087 16.7026 8.11138 16.2913 7.0299 15.5277C5.94843 14.7641 5.13979 13.6869 4.71849 12.4485L1.10444 15.1497C2.21904 17.3403 4.07684 19.0837 6.35987 20.0814C8.6429 21.0791 11.2092 21.2691 13.6196 20.619C15.1577 20.2065 16.5719 19.4381 17.743 18.3785L14.311 15.786Z" fill="white"/>
<path d="M1.10444 15.1496C2.21882 17.3404 4.07659 19.0839 6.3597 20.0817C8.6428 21.0794 11.2092 21.2693 13.6196 20.6188C15.1572 20.2081 16.5713 19.4417 17.743 18.3842L14.311 15.7873C13.2344 16.4163 11.9979 16.7343 10.7444 16.7046C9.40003 16.7041 8.09054 16.286 7.00447 15.5105" fill="white"/>
<path d="M20.7533 8.47782H10.8439V12.521H16.5056C16.3786 13.1802 16.1193 13.8082 15.7427 14.3687C15.366 14.9291 14.8795 15.4109 14.3114 15.786L17.7433 18.383C18.7164 17.4889 19.4936 16.4106 20.0278 15.2136C20.6876 13.7029 21.0179 12.0741 20.9976 10.4313C20.9851 9.77364 20.9032 9.11902 20.7533 8.47782Z" fill="white"/>
<path d="M17.7417 18.3814C18.718 17.4813 19.4977 16.3967 20.0336 15.1932C20.6911 13.6861 21.0199 12.0612 20.999 10.4225C20.9856 9.76572 20.9028 9.11202 20.7517 8.47193H20.1358" fill="white"/>
<path d="M10.8439 10.162V12.5198H16.3457" fill="white"/>
</g>
<defs>
<filter id="filter0_d_1_109327" x="-35.2162" y="-31.1915" width="91.4323" height="91.4304" filterUnits="userSpaceOnUse" color-interpolation-filters="sRGB">
<feFlood flood-opacity="0" result="BackgroundImageFix"/>
<feColorMatrix in="SourceAlpha" type="matrix" values="0 0 0 0 0 0 0 0 0 0 0 0 0 0 0 0 0 0 127 0" result="hardAlpha"/>
<feOffset dy="4"/>
<feGaussianBlur stdDeviation="17.5"/>
<feComposite in2="hardAlpha" operator="out"/>
<feColorMatrix type="matrix" values="0 0 0 0 0.162115 0 0 0 0 0.604268 0 0 0 0 0.820833 0 0 0 0.27 0"/>
<feBlend mode="normal" in2="BackgroundImageFix" result="effect1_dropShadow_1_109327"/>
<feBlend mode="normal" in="SourceGraphic" in2="effect1_dropShadow_1_109327" result="shape"/>
</filter>
</defs>
</svg>
