<svg width="26" height="26" viewBox="0 0 26 26" fill="none" xmlns="http://www.w3.org/2000/svg">
<path d="M22.4796 13L23.6756 10.933C23.8194 10.6843 23.8584 10.3887 23.7843 10.1112C23.7101 9.8337 23.5288 9.597 23.2802 9.45316L21.211 8.25716V5.87382C21.211 5.58651 21.0969 5.31096 20.8937 5.10779C20.6906 4.90463 20.415 4.79049 20.1277 4.79049H17.7454L16.5505 2.72241C16.4062 2.47423 16.17 2.29287 15.8929 2.21757C15.7555 2.18032 15.6121 2.17072 15.471 2.18932C15.3298 2.20791 15.1938 2.25434 15.0707 2.32591L13.0015 3.52191L10.9324 2.32482C10.6835 2.18117 10.3878 2.14224 10.1103 2.2166C9.83281 2.29096 9.59619 2.47251 9.45253 2.72132L8.25653 4.79049H5.87428C5.58696 4.79049 5.31141 4.90463 5.10824 5.10779C4.90508 5.31096 4.79094 5.58651 4.79094 5.87382V8.25607L2.72178 9.45208C2.59831 9.52309 2.4901 9.61781 2.40335 9.73077C2.3166 9.84374 2.25303 9.97274 2.21628 10.1104C2.17954 10.248 2.17035 10.3915 2.18924 10.5327C2.20813 10.6738 2.25473 10.8099 2.32636 10.933L3.52236 13L2.32636 15.067C2.18335 15.3159 2.14455 15.6113 2.21842 15.8887C2.29228 16.1661 2.47283 16.4031 2.72069 16.5479L4.78986 17.7439V20.1262C4.78986 20.4135 4.904 20.689 5.10716 20.8922C5.31033 21.0954 5.58588 21.2095 5.87319 21.2095H8.25653L9.45253 23.2787C9.54844 23.4426 9.68537 23.5788 9.84987 23.6737C10.0144 23.7687 10.2008 23.8192 10.3907 23.8203C10.5792 23.8203 10.7666 23.7705 10.9334 23.6741L13.0004 22.4781L15.0696 23.6741C15.3184 23.8175 15.6139 23.8565 15.8913 23.7823C16.1687 23.7082 16.4054 23.5271 16.5494 23.2787L17.7444 21.2095H20.1266C20.4139 21.2095 20.6895 21.0954 20.8926 20.8922C21.0958 20.689 21.2099 20.4135 21.2099 20.1262V17.7439L23.2791 16.5479C23.4024 16.4767 23.5104 16.3819 23.597 16.2689C23.6835 16.1559 23.747 16.0269 23.7837 15.8894C23.8205 15.7519 23.8297 15.6084 23.811 15.4673C23.7922 15.3262 23.7459 15.1902 23.6745 15.067L22.4796 13ZM10.2921 7.57249C10.7232 7.57263 11.1366 7.74403 11.4414 8.04898C11.7461 8.35393 11.9173 8.76745 11.9171 9.19858C11.917 9.6297 11.7456 10.0431 11.4406 10.3478C11.1357 10.6526 10.7221 10.8237 10.291 10.8236C9.85991 10.8234 9.4465 10.652 9.14175 10.3471C8.83701 10.0421 8.66588 9.62861 8.66603 9.19749C8.66617 8.76637 8.83757 8.35297 9.14252 8.04822C9.44747 7.74347 9.86099 7.57235 10.2921 7.57249ZM10.6171 17.9725L8.88378 16.6736L15.3838 8.00691L17.1171 9.30583L10.6171 17.9725ZM15.7088 18.4058C15.4953 18.4058 15.2839 18.3636 15.0868 18.2819C14.8896 18.2001 14.7104 18.0803 14.5595 17.9293C14.4086 17.7783 14.2889 17.5991 14.2073 17.4019C14.1257 17.2046 14.0837 16.9932 14.0838 16.7797C14.0838 16.5663 14.126 16.3549 14.2077 16.1577C14.2895 15.9605 14.4093 15.7814 14.5603 15.6305C14.7113 15.4796 14.8905 15.3599 15.0877 15.2783C15.285 15.1966 15.4964 15.1547 15.7099 15.1547C16.141 15.1549 16.5544 15.3263 16.8591 15.6312C17.1639 15.9362 17.335 16.3497 17.3349 16.7808C17.3347 17.2119 17.1633 17.6254 16.8584 17.9301C16.5534 18.2348 16.1399 18.406 15.7088 18.4058Z" fill="#989898"/>
</svg>
