<svg width="30" height="30" viewBox="0 0 30 30" fill="none" xmlns="http://www.w3.org/2000/svg">
<path d="M19.6606 4.85548C21.4531 3.05548 24.0756 3.01798 25.5268 4.47548C26.9818 5.93548 26.9431 8.57548 25.1481 10.3755L22.1193 13.4167C21.9488 13.5938 21.8546 13.8307 21.8571 14.0765C21.8596 14.3224 21.9585 14.5574 22.1326 14.731C22.3066 14.9045 22.5419 15.0028 22.7877 15.0046C23.0336 15.0064 23.2703 14.9115 23.4468 14.7405L26.4768 11.6992C28.8656 9.30048 29.1656 5.47173 26.8556 3.15173C24.5431 0.830477 20.7218 1.13298 18.3306 3.53173L12.2731 9.61548C9.88432 12.0142 9.58432 15.843 11.8943 18.1617C11.9806 18.2514 12.0839 18.3231 12.1981 18.3725C12.3124 18.4219 12.4353 18.448 12.5598 18.4494C12.6843 18.4507 12.8078 18.4273 12.9231 18.3804C13.0384 18.3336 13.1432 18.2642 13.2314 18.1764C13.3197 18.0886 13.3895 17.9841 13.4369 17.869C13.4843 17.7539 13.5083 17.6305 13.5076 17.5061C13.5068 17.3816 13.4812 17.2585 13.4324 17.144C13.3835 17.0295 13.3124 16.9259 13.2231 16.8392C11.7681 15.3792 11.8081 12.7392 13.6018 10.9392L19.6606 4.85548Z" fill="white"/>
<path d="M18.1068 11.8382C17.9311 11.662 17.6926 11.5629 17.4438 11.5625C17.1949 11.5621 16.9562 11.6607 16.7799 11.8364C16.6037 12.0121 16.5046 12.2506 16.5042 12.4994C16.5039 12.7483 16.6024 12.987 16.7781 13.1632C18.2331 14.6232 18.1943 17.262 16.3993 19.0632L10.3406 25.1457C8.54682 26.9457 5.92432 26.9832 4.47307 25.5257C3.01807 24.0657 3.05807 21.4257 4.85182 19.6257L7.88182 16.5845C7.96874 16.4972 8.03763 16.3937 8.08454 16.2799C8.13145 16.166 8.15548 16.044 8.15525 15.9209C8.15502 15.7977 8.13053 15.6758 8.08319 15.5621C8.03584 15.4484 7.96657 15.3452 7.87932 15.2582C7.79208 15.1713 7.68856 15.1024 7.5747 15.0555C7.46083 15.0086 7.33883 14.9846 7.21568 14.9848C7.09253 14.9851 6.97063 15.0095 6.85694 15.0569C6.74324 15.1042 6.63999 15.1735 6.55307 15.2607L3.52307 18.302C1.13432 20.702 0.834324 24.5295 3.14432 26.8495C5.45682 29.172 9.27807 28.8682 11.6693 26.4695L17.7281 20.3857C20.1168 17.9882 20.4168 14.157 18.1068 11.8382Z" fill="white"/>
</svg>
