<svg width="21" height="21" viewBox="0 0 21 21" fill="none" xmlns="http://www.w3.org/2000/svg">
<path d="M10.7389 3.43853e-05C8.73408 -0.00498873 6.76796 0.540427 5.06392 1.57433C3.35989 2.60823 1.98623 4.08917 1.099 5.84892L4.71749 8.55019C5.13581 7.31085 5.94308 6.23234 7.02428 5.46836C8.10548 4.70438 9.40544 4.2939 10.7389 4.2954C12.1812 4.29388 13.5792 4.78312 14.6935 5.67937L17.819 2.6245C15.8647 0.934156 13.3469 0.000836162 10.7389 3.43853e-05Z" fill="white"/>
<path d="M1.10318 5.84744L4.71749 8.55019C5.13597 7.31038 5.94342 6.2315 7.02521 5.46748C8.107 4.70345 9.40763 4.29325 10.7416 4.29537C12.1839 4.29384 13.5819 4.78308 14.6962 5.67933L17.8217 2.62446C15.8676 0.934801 13.3505 0.00155566 10.7431 0" fill="white"/>
<path d="M4.39579 10.4979C4.39579 10.4008 4.39579 10.3052 4.40763 10.2081C4.43368 9.64337 4.53777 9.08471 4.71707 8.54734L1.10302 5.84462C0.420327 7.20459 0.0470391 8.69329 0.00888343 10.2081C0.00888343 10.3037 0 10.3994 0 10.4979C0 10.5965 6.18469e-08 10.6907 0.00888343 10.7878C0.0470349 12.3009 0.419279 13.7879 1.10006 15.1469L4.71263 12.4398C4.5349 11.9052 4.43181 11.3495 4.40615 10.7878C4.40319 10.6907 4.39579 10.595 4.39579 10.4979Z" fill="white"/>
<path d="M1.10189 15.1455L4.71446 12.4384C4.53673 11.9037 4.43363 11.348 4.40798 10.7863C4.40798 10.6907 4.39613 10.595 4.39613 10.4965C4.39613 10.3979 4.39613 10.3038 4.40798 10.2067C4.43403 9.64194 4.53812 9.08325 4.71741 8.54589L1.10302 5.84462" fill="white"/>
<path d="M14.3098 15.7861C13.2331 16.4151 11.9966 16.7331 10.7431 16.7034C9.40961 16.7028 8.11012 16.2915 7.02864 15.5279C5.94717 14.7642 5.13853 13.687 4.71723 12.4486L1.10318 15.1499C2.21778 17.3405 4.07558 19.0838 6.35861 20.0815C8.64165 21.0792 11.208 21.2693 13.6184 20.6191C15.1564 20.2066 16.5706 19.4382 17.7417 18.3787L14.3098 15.7861Z" fill="white"/>
<path d="M1.10318 15.1499C2.21778 17.3405 4.07558 19.0838 6.35861 20.0815C8.64165 21.0792 11.208 21.2693 13.6184 20.6191C15.1559 20.2084 16.5701 19.4418 17.7417 18.3842L14.3098 15.7873C13.2331 16.4164 11.9966 16.7344 10.7431 16.7046C9.39877 16.7041 8.08928 16.286 7.00321 15.5105" fill="white"/>
<path d="M20.7534 8.47776H10.844V12.521H16.5057C16.3787 13.1802 16.1194 13.8082 15.7428 14.3686C15.3661 14.9291 14.8796 15.4108 14.3115 15.786L17.7434 18.3829C18.7164 17.4889 19.4937 16.4106 20.0279 15.2135C20.6877 13.7029 21.018 12.074 20.9977 10.4312C20.9852 9.77358 20.9033 9.11895 20.7534 8.47776Z" fill="white"/>
<path d="M17.7422 18.3816C18.7186 17.4814 19.4982 16.3968 20.0342 15.1934C20.6916 13.6862 21.0205 12.0614 20.9995 10.4227C20.9862 9.76588 20.9033 9.11218 20.7523 8.47209H20.1363" fill="white"/>
<path d="M10.8441 10.1619V12.5197H16.3459" fill="white"/>
</svg>
