<svg width="22" height="22" viewBox="0 0 22 22" fill="none" xmlns="http://www.w3.org/2000/svg">
<path d="M14.8492 9.9001C15.7605 9.9001 16.4992 9.16137 16.4992 8.2501C16.4992 7.33883 15.7605 6.6001 14.8492 6.6001C13.9379 6.6001 13.1992 7.33883 13.1992 8.2501C13.1992 9.16137 13.9379 9.9001 14.8492 9.9001Z" fill="white"/>
<path d="M7.15 9.9001C8.06127 9.9001 8.8 9.16137 8.8 8.2501C8.8 7.33883 8.06127 6.6001 7.15 6.6001C6.23873 6.6001 5.5 7.33883 5.5 8.2501C5.5 9.16137 6.23873 9.9001 7.15 9.9001Z" fill="white"/>
<path d="M11 17.6002C13.508 17.6002 15.642 15.7742 16.5 13.2002H5.5C6.358 15.7742 8.492 17.6002 11 17.6002Z" fill="white"/>
<path d="M10.989 0C4.917 0 0 4.928 0 11C0 17.072 4.917 22 10.989 22C17.072 22 22 17.072 22 11C22 4.928 17.072 0 10.989 0ZM11 19.8C6.138 19.8 2.2 15.862 2.2 11C2.2 6.138 6.138 2.2 11 2.2C15.862 2.2 19.8 6.138 19.8 11C19.8 15.862 15.862 19.8 11 19.8Z" fill="white"/>
</svg>
