<svg width="60" height="60" viewBox="0 0 60 60" fill="none" xmlns="http://www.w3.org/2000/svg">
<path d="M30 60C46.5685 60 60 46.5685 60 30C60 13.4315 46.5685 0 30 0C13.4315 0 0 13.4315 0 30C0 46.5685 13.4315 60 30 60Z" fill="white"/>
<path d="M22.8529 39.33C22.8555 40.1592 23.186 40.9538 23.7724 41.5401C24.3588 42.1265 25.1534 42.4571 25.9826 42.4596H35.3736C36.2028 42.4571 36.9974 42.1265 37.5838 41.5401C38.1702 40.9538 38.5007 40.1592 38.5033 39.33V23.6796H22.8529V39.33ZM40.0691 18.9841H35.3736L33.8078 17.4183H27.5465L25.9807 18.9841H21.2891V22.1138H40.0633L40.0691 18.9841Z" fill="#05011D"/>
</svg>
