<svg width="35" height="35" viewBox="0 0 35 35" fill="none" xmlns="http://www.w3.org/2000/svg">
<g clip-path="url(#clip0_1_110143)">
<path d="M18.9596 29.1667C20.8928 29.1644 22.7461 28.3954 24.1131 27.0285C25.48 25.6615 26.249 23.8082 26.2513 21.875V9.1044C26.2536 8.33784 26.1037 7.57846 25.8103 6.87026C25.5169 6.16207 25.0858 5.51915 24.5421 4.97878L21.2726 1.70919C20.7322 1.16549 20.0893 0.734446 19.3811 0.441055C18.6729 0.147663 17.9135 -0.00224285 17.1469 2.53598e-05H10.2096C8.27648 0.00234099 6.42316 0.771312 5.05621 2.13826C3.68926 3.50521 2.92028 5.35853 2.91797 7.29169V21.875C2.92028 23.8082 3.68926 25.6615 5.05621 27.0285C6.42316 28.3954 8.27648 29.1644 10.2096 29.1667H18.9596ZM5.83464 21.875V7.29169C5.83464 6.13137 6.29557 5.01857 7.11604 4.1981C7.93652 3.37763 9.04931 2.91669 10.2096 2.91669C10.2096 2.91669 17.3832 2.93711 17.5013 2.95169V5.83336C17.5013 6.60691 17.8086 7.34877 18.3556 7.89575C18.9026 8.44273 19.6444 8.75003 20.418 8.75003H23.2996C23.3142 8.86815 23.3346 21.875 23.3346 21.875C23.3346 23.0353 22.8737 24.1481 22.0532 24.9686C21.2328 25.7891 20.12 26.25 18.9596 26.25H10.2096C9.04931 26.25 7.93652 25.7891 7.11604 24.9686C6.29557 24.1481 5.83464 23.0353 5.83464 21.875ZM32.0846 11.6667V27.7084C32.0823 29.6415 31.3134 31.4948 29.9464 32.8618C28.5795 34.2287 26.7261 34.9977 24.793 35H11.668C11.2812 35 10.9103 34.8464 10.6368 34.5729C10.3633 34.2994 10.2096 33.9285 10.2096 33.5417C10.2096 33.1549 10.3633 32.784 10.6368 32.5105C10.9103 32.237 11.2812 32.0834 11.668 32.0834H24.793C25.9533 32.0834 27.0661 31.6224 27.8866 30.802C28.707 29.9815 29.168 28.8687 29.168 27.7084V11.6667C29.168 11.2799 29.3216 10.909 29.5951 10.6355C29.8686 10.362 30.2395 10.2084 30.6263 10.2084C31.0131 10.2084 31.384 10.362 31.6575 10.6355C31.931 10.909 32.0846 11.2799 32.0846 11.6667Z" fill="white"/>
</g>
<defs>
<clipPath id="clip0_1_110143">
<rect width="35" height="35" fill="white"/>
</clipPath>
</defs>
</svg>
