<svg width="90" height="14" viewBox="0 0 90 14" fill="none" xmlns="http://www.w3.org/2000/svg">
<path d="M7.00166 10.6604L4.58082 12.1188C4.47388 12.1868 4.36207 12.216 4.24541 12.2062C4.12874 12.1965 4.02666 12.1576 3.93916 12.0896C3.85166 12.0215 3.7836 11.9364 3.73499 11.8341C3.68638 11.7318 3.67666 11.6177 3.70582 11.4917L4.34749 8.73542L2.20374 6.88333C2.10652 6.79583 2.04585 6.69608 2.02174 6.58408C1.99763 6.47208 2.00482 6.36281 2.04332 6.25625C2.08221 6.14931 2.14055 6.06181 2.21832 5.99375C2.2961 5.92569 2.40305 5.88195 2.53916 5.8625L5.36832 5.61458L6.46207 3.01875C6.51068 2.90208 6.58613 2.81458 6.68841 2.75625C6.79068 2.69792 6.8951 2.66875 7.00166 2.66875C7.1086 2.66875 7.21302 2.69792 7.31491 2.75625C7.4168 2.81458 7.49224 2.90208 7.54124 3.01875L8.63499 5.61458L11.4642 5.8625C11.6003 5.88195 11.7072 5.92569 11.785 5.99375C11.8628 6.06181 11.9211 6.14931 11.96 6.25625C11.9989 6.3632 12.0063 6.47267 11.9822 6.58467C11.958 6.69667 11.8972 6.79622 11.7996 6.88333L9.65582 8.73542L10.2975 11.4917C10.3267 11.6181 10.3169 11.7324 10.2683 11.8347C10.2197 11.9369 10.1517 12.0219 10.0642 12.0896C9.97666 12.1576 9.87457 12.1965 9.75791 12.2062C9.64124 12.216 9.52943 12.1868 9.42249 12.1188L7.00166 10.6604Z" fill="white"/>
<path d="M26.0017 10.6604L23.5808 12.1188C23.4739 12.1868 23.3621 12.216 23.2454 12.2062C23.1287 12.1965 23.0267 12.1576 22.9392 12.0896C22.8517 12.0215 22.7836 11.9364 22.735 11.8341C22.6864 11.7318 22.6767 11.6177 22.7058 11.4917L23.3475 8.73542L21.2037 6.88333C21.1065 6.79583 21.0459 6.69608 21.0217 6.58408C20.9976 6.47208 21.0048 6.36281 21.0433 6.25625C21.0822 6.14931 21.1405 6.06181 21.2183 5.99375C21.2961 5.92569 21.403 5.88195 21.5392 5.8625L24.3683 5.61458L25.4621 3.01875C25.5107 2.90208 25.5861 2.81458 25.6884 2.75625C25.7907 2.69792 25.8951 2.66875 26.0017 2.66875C26.1086 2.66875 26.213 2.69792 26.3149 2.75625C26.4168 2.81458 26.4922 2.90208 26.5412 3.01875L27.635 5.61458L30.4642 5.8625C30.6003 5.88195 30.7072 5.92569 30.785 5.99375C30.8628 6.06181 30.9211 6.14931 30.96 6.25625C30.9989 6.3632 31.0063 6.47267 30.9822 6.58467C30.958 6.69667 30.8972 6.79622 30.7996 6.88333L28.6558 8.73542L29.2975 11.4917C29.3267 11.6181 29.3169 11.7324 29.2683 11.8347C29.2197 11.9369 29.1517 12.0219 29.0642 12.0896C28.9767 12.1576 28.8746 12.1965 28.7579 12.2062C28.6412 12.216 28.5294 12.1868 28.4225 12.1188L26.0017 10.6604Z" fill="white"/>
<path d="M45.0017 10.6604L42.5808 12.1188C42.4739 12.1868 42.3621 12.216 42.2454 12.2062C42.1287 12.1965 42.0267 12.1576 41.9392 12.0896C41.8517 12.0215 41.7836 11.9364 41.735 11.8341C41.6864 11.7318 41.6767 11.6177 41.7058 11.4917L42.3475 8.73542L40.2037 6.88333C40.1065 6.79583 40.0459 6.69608 40.0217 6.58408C39.9976 6.47208 40.0048 6.36281 40.0433 6.25625C40.0822 6.14931 40.1405 6.06181 40.2183 5.99375C40.2961 5.92569 40.403 5.88195 40.5392 5.8625L43.3683 5.61458L44.4621 3.01875C44.5107 2.90208 44.5861 2.81458 44.6884 2.75625C44.7907 2.69792 44.8951 2.66875 45.0017 2.66875C45.1086 2.66875 45.213 2.69792 45.3149 2.75625C45.4168 2.81458 45.4922 2.90208 45.5412 3.01875L46.635 5.61458L49.4642 5.8625C49.6003 5.88195 49.7072 5.92569 49.785 5.99375C49.8628 6.06181 49.9211 6.14931 49.96 6.25625C49.9989 6.3632 50.0063 6.47267 49.9822 6.58467C49.958 6.69667 49.8972 6.79622 49.7996 6.88333L47.6558 8.73542L48.2975 11.4917C48.3267 11.6181 48.3169 11.7324 48.2683 11.8347C48.2197 11.9369 48.1517 12.0219 48.0642 12.0896C47.9767 12.1576 47.8746 12.1965 47.7579 12.2062C47.6412 12.216 47.5294 12.1868 47.4225 12.1188L45.0017 10.6604Z" fill="white"/>
<path d="M64.0017 10.6604L61.5808 12.1188C61.4739 12.1868 61.3621 12.216 61.2454 12.2062C61.1287 12.1965 61.0267 12.1576 60.9392 12.0896C60.8517 12.0215 60.7836 11.9364 60.735 11.8341C60.6864 11.7318 60.6767 11.6177 60.7058 11.4917L61.3475 8.73542L59.2037 6.88333C59.1065 6.79583 59.0459 6.69608 59.0217 6.58408C58.9976 6.47208 59.0048 6.36281 59.0433 6.25625C59.0822 6.14931 59.1405 6.06181 59.2183 5.99375C59.2961 5.92569 59.403 5.88195 59.5392 5.8625L62.3683 5.61458L63.4621 3.01875C63.5107 2.90208 63.5861 2.81458 63.6884 2.75625C63.7907 2.69792 63.8951 2.66875 64.0017 2.66875C64.1086 2.66875 64.213 2.69792 64.3149 2.75625C64.4168 2.81458 64.4922 2.90208 64.5412 3.01875L65.635 5.61458L68.4642 5.8625C68.6003 5.88195 68.7072 5.92569 68.785 5.99375C68.8628 6.06181 68.9211 6.14931 68.96 6.25625C68.9989 6.3632 69.0063 6.47267 68.9822 6.58467C68.958 6.69667 68.8972 6.79622 68.7996 6.88333L66.6558 8.73542L67.2975 11.4917C67.3267 11.6181 67.3169 11.7324 67.2683 11.8347C67.2197 11.9369 67.1517 12.0219 67.0642 12.0896C66.9767 12.1576 66.8746 12.1965 66.7579 12.2062C66.6412 12.216 66.5294 12.1868 66.4225 12.1188L64.0017 10.6604Z" fill="white"/>
</svg>
