<svg width="30" height="34" viewBox="0 0 30 34" fill="none" xmlns="http://www.w3.org/2000/svg">
<path d="M19.4828 31.034L5.77589 23.1029C5.25864 22.8443 5.00002 22.3271 5.00002 21.7236V5.77529C5.00002 5.51667 4.7414 5.34425 4.56898 5.51667L1.72415 7.1546C0.689658 7.75805 0 8.87875 0 10.1719V23.534C0 24.7409 0.689658 25.8616 1.72415 26.5512L13.2759 33.2754C14.3104 33.8789 15.6897 33.8789 16.7242 33.2754L19.569 31.6375C19.7415 31.3788 19.7415 31.1202 19.4828 31.034Z" fill="white"/>
<path d="M8.27587 21.6385L14.2242 25.0868C14.7414 25.3454 15.3449 25.3454 15.7759 25.0868L21.7242 21.6385C22.2414 21.3799 22.5001 20.8626 22.5001 20.2592V13.3626C22.5001 12.8453 22.2414 12.3281 21.7242 11.9833L15.7759 8.53499C15.2587 8.27637 14.6552 8.27637 14.2242 8.53499L12.7586 9.39706C12.6724 9.48327 12.5 9.39706 12.5 9.22464V1.37978C12.5 1.12116 12.2414 0.948746 12.069 1.12116L8.27587 3.27634C7.75862 3.53496 7.5 4.05221 7.5 4.65566V20.173C7.5 20.7764 7.75862 21.2937 8.27587 21.6385ZM11.7242 15.4316C11.7242 15.0867 11.8966 14.8281 12.1552 14.6557L14.4828 13.2764C14.7414 13.104 15.1724 13.104 15.4311 13.2764L17.7587 14.6557C18.0173 14.8281 18.1897 15.1729 18.1897 15.4316V18.104C18.1897 18.4488 18.0173 18.7074 17.7587 18.8799L15.4311 20.2592C15.1724 20.4316 14.7414 20.4316 14.4828 20.2592L12.1552 18.9661C11.8966 18.7936 11.7242 18.4488 11.7242 18.1902V15.4316Z" fill="white"/>
<path d="M28.2759 7.1552L16.7241 0.431036C16.2069 0.172415 15.6897 0 15.1724 0C15.0862 0 15 0.0862079 15 0.172415V5.08623C15 5.17244 15.0862 5.25864 15.1724 5.34485L24.2242 10.6035C24.7414 10.8621 25 11.3794 25 11.9828V21.7242C25 22.2415 24.7414 22.7587 24.2242 23.1035L18.0173 26.7243C17.8448 26.8105 17.8448 27.1553 18.0173 27.2415L22.2414 29.6553C22.4138 29.7415 22.6724 29.7415 22.8449 29.6553L28.2759 26.4656C29.3104 25.8622 30.0001 24.7415 30.0001 23.4484V10.0863C29.9139 8.87935 29.3104 7.75865 28.2759 7.1552Z" fill="white"/>
</svg>
