<svg width="30" height="30" viewBox="0 0 30 30" fill="none" xmlns="http://www.w3.org/2000/svg">
<path d="M25.98 4.02206C25.8535 3.89612 25.6936 3.80893 25.5193 3.77074C25.3449 3.73254 25.1632 3.74492 24.9956 3.80643L4.37064 11.3064C4.19277 11.3739 4.03963 11.4939 3.93157 11.6505C3.8235 11.807 3.76562 11.9928 3.76562 12.183C3.76562 12.3732 3.8235 12.559 3.93157 12.7155C4.03963 12.8721 4.19277 12.9921 4.37064 13.0596L12.4238 16.2752L18.3675 10.3127L19.6894 11.6346L13.7175 17.6064L16.9425 25.6596C17.012 25.834 17.1322 25.9836 17.2877 26.0889C17.4431 26.1942 17.6266 26.2504 17.8144 26.2502C18.0038 26.2463 18.1877 26.1851 18.3416 26.0746C18.4956 25.9642 18.6125 25.8097 18.6769 25.6314L26.1769 5.00643C26.2408 4.84057 26.2562 4.65996 26.2213 4.48567C26.1865 4.31138 26.1028 4.1506 25.98 4.02206Z" fill="white"/>
</svg>
