<svg width="35" height="35" viewBox="0 0 35 35" fill="none" xmlns="http://www.w3.org/2000/svg">
<path d="M23.3333 19.6875C23.9653 19.6875 24.4879 19.4809 24.901 19.0677C25.3142 18.6545 25.5208 18.1319 25.5208 17.5C25.5208 16.8681 25.3142 16.3455 24.901 15.9323C24.4879 15.5191 23.9653 15.3125 23.3333 15.3125C22.7014 15.3125 22.1788 15.5191 21.7656 15.9323C21.3524 16.3455 21.1458 16.8681 21.1458 17.5C21.1458 18.1319 21.3524 18.6545 21.7656 19.0677C22.1788 19.4809 22.7014 19.6875 23.3333 19.6875ZM18.9583 24.7917C18.1563 24.7917 17.4694 24.5058 16.8977 23.9342C16.326 23.3625 16.0407 22.6761 16.0417 21.875V13.125C16.0417 12.3229 16.3275 11.636 16.8992 11.0644C17.4708 10.4927 18.1572 10.2074 18.9583 10.2083H29.1667C29.9688 10.2083 30.6556 10.4942 31.2273 11.0658C31.799 11.6375 32.0843 12.3239 32.0833 13.125V21.875C32.0833 22.6771 31.7975 23.364 31.2258 23.9356C30.6542 24.5073 29.9678 24.7926 29.1667 24.7917H18.9583ZM7.29167 30.625C6.48959 30.625 5.80271 30.3392 5.23104 29.7675C4.65938 29.1958 4.37403 28.5094 4.375 27.7083V7.29167C4.375 6.48959 4.66084 5.80271 5.2325 5.23104C5.80417 4.65938 6.49056 4.37403 7.29167 4.375H27.7083C28.5104 4.375 29.1973 4.66084 29.769 5.2325C30.3406 5.80417 30.626 6.49056 30.625 7.29167H18.9583C17.2326 7.29167 15.8288 7.83271 14.7467 8.91479C13.6646 9.99688 13.124 11.4003 13.125 13.125V21.875C13.125 23.6007 13.666 25.0046 14.7481 26.0867C15.8302 27.1688 17.2336 27.7093 18.9583 27.7083H30.625C30.625 28.5104 30.3392 29.1973 29.7675 29.769C29.1958 30.3406 28.5094 30.626 27.7083 30.625H7.29167Z" fill="white"/>
</svg>
