<svg width="100" height="100" viewBox="0 0 100 100" fill="none" xmlns="http://www.w3.org/2000/svg">
<circle cx="50" cy="50" r="49" fill="white" stroke="#9F4DEB" stroke-width="2"/>
<g clip-path="url(#clip0_1_103774)">
<path d="M73.8412 25L52.3867 41.9331L56.3764 31.954L73.8412 25Z" fill="#E17726"/>
<path d="M26.2096 25.0195L43.6277 31.9547L47.416 42.0647L26.2096 25.0195ZM65.2074 61.0116L74.69 61.2041L71.376 73.2129L59.8051 69.8147L65.2074 61.0116ZM34.7932 61.0116L40.1754 69.8147L28.624 73.2131L25.3301 61.2041L34.7932 61.0116Z" fill="#E27625"/>
<path d="M46.8998 39.49L47.2873 52.8406L35.6914 52.2779L38.9898 46.97L39.0316 46.919L46.8998 39.49ZM52.9785 39.3411L60.9668 46.9194L61.0082 46.9702L64.3066 52.2781L52.7133 52.8406L52.9785 39.3411ZM40.5139 61.0509L46.8455 66.3131L39.4904 70.1009L40.5139 61.0509ZM59.4857 61.05L60.4879 70.1011L53.1533 66.3127L59.4857 61.05Z" fill="#E27625"/>
<path d="M53.3158 65.8174L60.7586 69.6615L53.8354 73.1711L53.9072 70.8516L53.3158 65.8174ZM46.6816 65.819L46.1135 70.8136L46.1602 73.1684L39.2207 69.6615L46.6816 65.819Z" fill="#D5BFB2"/>
<path d="M44.5322 54.583L46.4771 58.943L39.8555 56.8738L44.5322 54.583ZM55.4668 54.5834L60.1656 56.8738L53.5223 58.9424L55.4668 54.5834Z" fill="#233447"/>
<path d="M41.0221 61.006L39.9518 70.3894L34.2148 61.2112L41.0221 61.006ZM58.9811 61.0062L65.7885 61.2112L60.0301 70.3898L58.9811 61.0062ZM64.4764 51.7471L59.5223 57.1327L55.7025 55.2708L53.8738 59.3717L52.675 52.3198L64.4764 51.7471ZM35.5238 51.7471L47.3275 52.3198L46.1285 59.3717L44.2994 55.2714L40.5 57.1329L35.5238 51.7471Z" fill="#CC6228"/>
<path d="M35.1875 50.6417L40.7926 56.7086L40.9867 62.6979L35.1875 50.6417ZM64.8158 50.6309L59.0061 62.7086L59.2248 56.7086L64.8158 50.6309ZM47.051 51.0113L47.2766 52.5259L47.834 56.299L47.4756 67.8875L45.7812 58.5782L45.7807 58.4819L47.051 51.0113ZM52.9438 50.9902L54.2174 58.4819L54.2168 58.5782L52.5182 67.9109L52.451 65.5765L52.1859 56.2302L52.9438 50.9902Z" fill="#E27525"/>
<path d="M59.7248 56.4678L59.5352 61.6715L53.6223 66.5855L52.427 65.6846L53.7668 58.3232L59.7248 56.4678ZM40.2969 56.4678L46.2342 58.3232L47.574 65.6846L46.3787 66.5855L40.4656 61.6711L40.2969 56.4678Z" fill="#F5841F"/>
<path d="M38.0898 68.5117L45.6547 72.3351L45.6227 70.7023L46.2557 70.1096H53.7428L54.3986 70.7003L54.3502 72.3317L61.8672 68.5213L58.2094 71.7455L53.7865 74.9857H46.1949L41.775 71.7321L38.0898 68.5117Z" fill="#C0AC9D"/>
<path d="M52.7756 65.3086L53.8451 66.1146L54.4719 71.4488L53.5648 70.6319H46.4406L45.5508 71.4653L46.157 66.1151L47.227 65.3086H52.7756Z" fill="#161616"/>
<path d="M72.4246 25.4688L75 33.7098L73.3916 42.0425L74.5369 42.9848L72.9871 44.246L74.152 45.2056L72.6096 46.7038L73.5564 47.4352L71.0436 50.5656L60.7369 47.3646L60.6477 47.3135L53.2205 40.6306L72.4246 25.4688ZM27.5754 25.4688L46.7797 40.6306L39.3523 47.3135L39.2631 47.3646L28.9564 50.5656L26.4436 47.4352L27.3896 46.7044L25.8482 45.2056L27.0107 44.2471L25.4377 42.9823L26.6262 42.0394L25 33.7102L27.5754 25.4688Z" fill="#763E1A"/>
<path d="M60.2326 46.6646L71.1531 50.056L74.701 61.7198H65.3408L58.8916 61.8064L63.5818 52.0548L60.2326 46.6646ZM39.767 46.6646L36.4172 52.0548L41.108 61.8064L34.6617 61.7198H25.3184L28.8463 50.0562L39.767 46.6646ZM56.9107 31.8983L53.8562 40.6981L53.208 52.5856L52.96 56.3116L52.9402 65.83H47.0592L47.04 56.3296L46.7912 52.5825L46.1428 40.6981L43.0887 31.8983H56.9107Z" fill="#F5841F"/>
</g>
<defs>
<clipPath id="clip0_1_103774">
<rect width="50" height="50" fill="white" transform="translate(25 25)"/>
</clipPath>
</defs>
</svg>
