<svg width="35" height="35" viewBox="0 0 35 35" fill="none" xmlns="http://www.w3.org/2000/svg">
<path d="M10.1224 7.29166C10.122 8.06521 9.81435 8.80692 9.26709 9.35363C8.71984 9.90034 7.97782 10.2073 7.20427 10.2069C6.43072 10.2065 5.68901 9.89882 5.1423 9.35157C4.5956 8.80431 4.28868 8.06229 4.28906 7.28874C4.28945 6.5152 4.59711 5.77348 5.14437 5.22678C5.69162 4.68007 6.43364 4.37315 7.20719 4.37354C7.98074 4.37392 8.72245 4.68158 9.26916 5.22884C9.81586 5.77609 10.1228 6.51811 10.1224 7.29166ZM10.2099 12.3667H4.37656V30.625H10.2099V12.3667ZM19.4266 12.3667H13.6224V30.625H19.3682V21.0437C19.3682 15.7062 26.3245 15.2104 26.3245 21.0437V30.625H32.0849V19.0604C32.0849 10.0625 21.7891 10.3979 19.3682 14.8167L19.4266 12.3667Z" fill="white"/>
</svg>
