<svg width="35" height="35" viewBox="0 0 35 35" fill="none" xmlns="http://www.w3.org/2000/svg">
<path d="M29.1667 22.6042C27.3438 22.6042 25.5938 22.3125 23.9604 21.7729C23.704 21.6912 23.4302 21.6807 23.1683 21.7423C22.9063 21.8039 22.666 21.9355 22.4729 22.1229L19.2646 25.3313C15.1247 23.2257 11.7597 19.8608 9.65417 15.7208L12.8625 12.4979C13.0557 12.3147 13.1925 12.0801 13.2571 11.8218C13.3217 11.5635 13.3113 11.2922 13.2271 11.0396C12.6739 9.35967 12.3932 7.602 12.3958 5.83333C12.3958 5.03125 11.7396 4.375 10.9375 4.375H5.83333C5.03125 4.375 4.375 5.03125 4.375 5.83333C4.375 19.5271 15.4729 30.625 29.1667 30.625C29.9688 30.625 30.625 29.9688 30.625 29.1667V24.0625C30.625 23.2604 29.9688 22.6042 29.1667 22.6042ZM27.7083 17.5H30.625C30.625 14.019 29.2422 10.6806 26.7808 8.21922C24.3194 5.75781 20.981 4.375 17.5 4.375V7.29167C23.1438 7.29167 27.7083 11.8563 27.7083 17.5ZM21.875 17.5H24.7917C24.7917 13.475 21.525 10.2083 17.5 10.2083V13.125C19.9208 13.125 21.875 15.0792 21.875 17.5Z" fill="#05011D"/>
</svg>
