<svg width="60" height="60" viewBox="0 0 60 60" fill="none" xmlns="http://www.w3.org/2000/svg">
<g clip-path="url(#clip0_1_115377)">
<path d="M36.2499 30.0039C36.2499 26.5521 33.4513 23.7539 29.999 23.7539C26.5467 23.7539 23.748 26.5521 23.748 30.0039C23.748 33.4557 26.5467 36.2539 29.999 36.2539C33.4513 36.2539 36.2499 33.4557 36.2499 30.0039Z" stroke="white" stroke-width="3" stroke-linecap="round" stroke-linejoin="round"/>
<path d="M16.25 30.001L18.7504 30.001" stroke="white" stroke-width="3" stroke-linecap="round" stroke-linejoin="round"/>
<path d="M41.252 30.001L43.7523 30.001" stroke="white" stroke-width="3" stroke-linecap="round" stroke-linejoin="round"/>
<path d="M20.2734 39.7266L22.0487 37.9516" stroke="white" stroke-width="3" stroke-linecap="round" stroke-linejoin="round"/>
<path d="M37.9551 22.0498L39.7303 20.2748" stroke="white" stroke-width="3" stroke-linecap="round" stroke-linejoin="round"/>
<path d="M30.002 43.751L30.002 41.251" stroke="white" stroke-width="3" stroke-linecap="round" stroke-linejoin="round"/>
<path d="M30.002 18.752L30.002 16.252" stroke="white" stroke-width="3" stroke-linecap="round" stroke-linejoin="round"/>
<path d="M39.7284 39.7266L37.9531 37.9516" stroke="white" stroke-width="3" stroke-linecap="round" stroke-linejoin="round"/>
<path d="M22.0487 22.0498L20.2734 20.2748" stroke="white" stroke-width="3" stroke-linecap="round" stroke-linejoin="round"/>
</g>
<g filter="url(#filter0_b_1_115377)">
<ellipse cx="30" cy="29.8955" rx="30" ry="29.8956" transform="rotate(180 30 29.8955)" fill="white" fill-opacity="0.1"/>
</g>
<g clip-path="url(#clip1_1_115377)">
<path d="M36.2499 30.0039C36.2499 26.5521 33.4513 23.7539 29.999 23.7539C26.5467 23.7539 23.748 26.5521 23.748 30.0039C23.748 33.4557 26.5467 36.2539 29.999 36.2539C33.4513 36.2539 36.2499 33.4557 36.2499 30.0039Z" stroke="white" stroke-width="3" stroke-linecap="round" stroke-linejoin="round"/>
<path d="M16.25 30.001L18.7504 30.001" stroke="white" stroke-width="3" stroke-linecap="round" stroke-linejoin="round"/>
<path d="M41.252 30.001L43.7523 30.001" stroke="white" stroke-width="3" stroke-linecap="round" stroke-linejoin="round"/>
<path d="M20.2734 39.7266L22.0487 37.9516" stroke="white" stroke-width="3" stroke-linecap="round" stroke-linejoin="round"/>
<path d="M37.9551 22.0498L39.7303 20.2748" stroke="white" stroke-width="3" stroke-linecap="round" stroke-linejoin="round"/>
<path d="M30.002 43.751L30.002 41.251" stroke="white" stroke-width="3" stroke-linecap="round" stroke-linejoin="round"/>
<path d="M30.002 18.752L30.002 16.252" stroke="white" stroke-width="3" stroke-linecap="round" stroke-linejoin="round"/>
<path d="M39.7284 39.7266L37.9531 37.9516" stroke="white" stroke-width="3" stroke-linecap="round" stroke-linejoin="round"/>
<path d="M22.0487 22.0498L20.2734 20.2748" stroke="white" stroke-width="3" stroke-linecap="round" stroke-linejoin="round"/>
</g>
<defs>
<filter id="filter0_b_1_115377" x="-60" y="-60" width="180" height="179.791" filterUnits="userSpaceOnUse" color-interpolation-filters="sRGB">
<feFlood flood-opacity="0" result="BackgroundImageFix"/>
<feGaussianBlur in="BackgroundImageFix" stdDeviation="30"/>
<feComposite in2="SourceAlpha" operator="in" result="effect1_backgroundBlur_1_115377"/>
<feBlend mode="normal" in="SourceGraphic" in2="effect1_backgroundBlur_1_115377" result="shape"/>
</filter>
<clipPath id="clip0_1_115377">
<rect width="30" height="30.0045" fill="white" transform="translate(15 45) rotate(-90)"/>
</clipPath>
<clipPath id="clip1_1_115377">
<rect width="30" height="30.0045" fill="white" transform="translate(15 45) rotate(-90)"/>
</clipPath>
</defs>
</svg>
