<svg width="40" height="40" viewBox="0 0 40 40" fill="none" xmlns="http://www.w3.org/2000/svg">
<path d="M17.6654 22.9997L14.082 19.4163C13.7765 19.1108 13.3876 18.958 12.9154 18.958C12.4431 18.958 12.0543 19.1108 11.7487 19.4163C11.4431 19.7219 11.2904 20.1108 11.2904 20.583C11.2904 21.0552 11.4431 21.4441 11.7487 21.7497L16.4987 26.4997C16.832 26.833 17.2209 26.9997 17.6654 26.9997C18.1098 26.9997 18.4987 26.833 18.832 26.4997L28.2487 17.083C28.5543 16.7775 28.707 16.3886 28.707 15.9163C28.707 15.4441 28.5543 15.0552 28.2487 14.7497C27.9431 14.4441 27.5543 14.2913 27.082 14.2913C26.6098 14.2913 26.2209 14.4441 25.9154 14.7497L17.6654 22.9997ZM19.9987 36.6663C17.6931 36.6663 15.5265 36.2286 13.4987 35.353C11.4709 34.4775 9.70703 33.2902 8.20703 31.7913C6.70703 30.2913 5.51981 28.5275 4.64536 26.4997C3.77092 24.4719 3.33314 22.3052 3.33203 19.9997C3.33203 17.6941 3.76981 15.5275 4.64536 13.4997C5.52092 11.4719 6.70814 9.70801 8.20703 8.20801C9.70703 6.70801 11.4709 5.52079 13.4987 4.64634C15.5265 3.7719 17.6931 3.33412 19.9987 3.33301C22.3043 3.33301 24.4709 3.77079 26.4987 4.64634C28.5265 5.5219 30.2904 6.70912 31.7904 8.20801C33.2904 9.70801 34.4781 11.4719 35.3537 13.4997C36.2293 15.5275 36.6665 17.6941 36.6654 19.9997C36.6654 22.3052 36.2276 24.4719 35.352 26.4997C34.4765 28.5275 33.2893 30.2913 31.7904 31.7913C30.2904 33.2913 28.5265 34.4791 26.4987 35.3547C24.4709 36.2302 22.3043 36.6674 19.9987 36.6663ZM19.9987 33.333C23.7209 33.333 26.8737 32.0413 29.457 29.458C32.0404 26.8747 33.332 23.7219 33.332 19.9997C33.332 16.2775 32.0404 13.1247 29.457 10.5413C26.8737 7.95801 23.7209 6.66634 19.9987 6.66634C16.2765 6.66634 13.1237 7.95801 10.5404 10.5413C7.95703 13.1247 6.66536 16.2775 6.66536 19.9997C6.66536 23.7219 7.95703 26.8747 10.5404 29.458C13.1237 32.0413 16.2765 33.333 19.9987 33.333Z" fill="#9F4DEB"/>
</svg>
