<svg width="20" height="20" viewBox="0 0 20 20" fill="none" xmlns="http://www.w3.org/2000/svg">
<path d="M3.33464 3.33366H5.83464L7.5013 1.66699H12.5013L14.168 3.33366H16.668C17.11 3.33366 17.5339 3.50925 17.8465 3.82181C18.159 4.13437 18.3346 4.5583 18.3346 5.00033V15.0003C18.3346 15.4424 18.159 15.8663 17.8465 16.1788C17.5339 16.4914 17.11 16.667 16.668 16.667H3.33464C2.89261 16.667 2.46868 16.4914 2.15612 16.1788C1.84356 15.8663 1.66797 15.4424 1.66797 15.0003V5.00033C1.66797 4.5583 1.84356 4.13437 2.15612 3.82181C2.46868 3.50925 2.89261 3.33366 3.33464 3.33366ZM10.0013 5.83366C8.89623 5.83366 7.83643 6.27265 7.05502 7.05405C6.27362 7.83545 5.83464 8.89526 5.83464 10.0003C5.83464 11.1054 6.27362 12.1652 7.05502 12.9466C7.83643 13.728 8.89623 14.167 10.0013 14.167C11.1064 14.167 12.1662 13.728 12.9476 12.9466C13.729 12.1652 14.168 11.1054 14.168 10.0003C14.168 8.89526 13.729 7.83545 12.9476 7.05405C12.1662 6.27265 11.1064 5.83366 10.0013 5.83366ZM10.0013 7.50033C10.6643 7.50033 11.3002 7.76372 11.7691 8.23256C12.2379 8.7014 12.5013 9.33728 12.5013 10.0003C12.5013 10.6634 12.2379 11.2993 11.7691 11.7681C11.3002 12.2369 10.6643 12.5003 10.0013 12.5003C9.33826 12.5003 8.70238 12.2369 8.23353 11.7681C7.76469 11.2993 7.5013 10.6634 7.5013 10.0003C7.5013 9.33728 7.76469 8.7014 8.23353 8.23256C8.70238 7.76372 9.33826 7.50033 10.0013 7.50033Z" fill="white"/>
</svg>
