<svg width="95" height="38" viewBox="0 0 95 38" fill="none" xmlns="http://www.w3.org/2000/svg">
<path d="M4.74685 10.6985L2.44867 14.2122C-1.9039 20.8669 -0.304437 29.7683 6.08371 34.5033C8.67072 36.4209 11.8042 37.4586 15.0244 37.4586H46.4081H91.131C93.189 37.4586 94.3 34.5988 94.8513 31.5111C95.4728 28.0303 94.0761 24.5796 91.8006 21.8734L86.9382 16.0909C82.7455 11.8176 74.1984 0.422079 70.1672 0.422079C66.9819 0.422079 62.9901 -0.126018 60.0299 0.0269516C58.389 0.111748 56.7551 0.422079 55.112 0.422079H25.4442H21.296C17.6625 0.422079 14.1532 1.73947 11.4169 4.13003L7.43415 7.60962C6.40156 8.51174 5.49739 9.55104 4.74685 10.6985Z" fill="#A9D2FE"/>
</svg>
