<svg width="16" height="16" viewBox="0 0 16 16" fill="none" xmlns="http://www.w3.org/2000/svg">
<path d="M7.14093 3.26181C7.42088 3.21903 7.7037 3.1978 7.98689 3.19832C10.5267 3.19832 12.9122 5.027 14.3013 7.98494C14.0887 8.43559 13.8486 8.87275 13.5824 9.29393C13.5221 9.38305 13.4805 9.48342 13.4601 9.58902C13.4396 9.69461 13.4407 9.80325 13.4633 9.90841C13.4859 10.0136 13.5295 10.1131 13.5915 10.201C13.6536 10.2888 13.7327 10.3633 13.8242 10.4198C13.9157 10.4763 14.0177 10.5138 14.124 10.5299C14.2304 10.546 14.3389 10.5405 14.443 10.5136C14.5472 10.4867 14.6448 10.4391 14.7301 10.3735C14.8153 10.3079 14.8865 10.2258 14.9392 10.1321C15.3112 9.54754 15.6344 8.93329 15.9053 8.29558C15.9482 8.19592 15.9704 8.08856 15.9704 7.98005C15.9704 7.87155 15.9482 7.76419 15.9053 7.66453C14.2925 3.92022 11.2594 1.59724 7.98592 1.59724C7.61122 1.59598 7.23718 1.62868 6.86839 1.69493C6.76351 1.71276 6.66318 1.75107 6.57312 1.80768C6.48305 1.86428 6.40502 1.93808 6.34347 2.02484C6.28192 2.1116 6.23807 2.20964 6.21441 2.31335C6.19075 2.41707 6.18775 2.52442 6.20558 2.62929C6.22342 2.73417 6.26173 2.8345 6.31834 2.92456C6.37494 3.01463 6.44873 3.09266 6.5355 3.15421C6.62226 3.21576 6.7203 3.25961 6.82401 3.28327C6.92772 3.30693 7.03508 3.30993 7.13995 3.29209L7.14093 3.26181ZM1.37256 0.235494C1.2979 0.160833 1.20926 0.101609 1.11172 0.061203C1.01417 0.0207969 0.909614 0 0.804028 0C0.698441 0 0.593889 0.0207969 0.49634 0.061203C0.398791 0.101609 0.310155 0.160833 0.235494 0.235494C0.0847098 0.386279 0 0.590786 0 0.804028C0 1.01727 0.0847098 1.22178 0.235494 1.37256L2.71086 3.83621C1.58168 4.92323 0.683003 6.22656 0.0684509 7.66844C0.0244495 7.76918 0.00173663 7.87793 0.00173663 7.98787C0.00173663 8.09781 0.0244495 8.20656 0.0684509 8.3073C1.68125 12.0516 4.71441 14.3746 7.98787 14.3746C9.42291 14.3647 10.8241 13.9374 12.0204 13.1447L14.6071 15.7393C14.6803 15.819 14.7688 15.8831 14.8674 15.9277C14.966 15.9723 15.0726 15.9965 15.1808 15.9988C15.289 16.0012 15.3965 15.9816 15.4969 15.9412C15.5974 15.9009 15.6886 15.8406 15.7651 15.7641C15.8416 15.6876 15.9019 15.5964 15.9422 15.496C15.9825 15.3955 16.0021 15.288 15.9998 15.1798C15.9975 15.0716 15.9733 14.965 15.9287 14.8664C15.8841 14.7678 15.82 14.6793 15.7402 14.6061L1.37256 0.235494ZM6.45224 7.5727L8.40597 9.52643C8.27102 9.56506 8.13116 9.58381 7.9908 9.58211C7.5672 9.58211 7.16096 9.41384 6.86143 9.11431C6.5619 8.81478 6.39363 8.40853 6.39363 7.98494C6.39192 7.84458 6.41068 7.70472 6.44931 7.56977L6.45224 7.5727ZM7.99275 12.7774C5.45291 12.7774 3.06742 10.9487 1.68613 7.9908C2.20178 6.85122 2.934 5.82273 3.84207 4.96253L5.24973 6.3907C4.91759 6.99652 4.79089 7.69371 4.88863 8.37765C4.98637 9.06159 5.30329 9.69538 5.79182 10.1839C6.28036 10.6724 6.91415 10.9894 7.59809 11.0871C8.28203 11.1849 8.97922 11.0581 9.58504 10.726L10.855 11.9793C9.98559 12.4909 8.99749 12.766 7.98885 12.7774H7.99275Z" fill="#05011D"/>
</svg>
