<svg width="35" height="35" viewBox="0 0 35 35" fill="none" xmlns="http://www.w3.org/2000/svg">
<path d="M29.168 5.8335H5.83464C4.23047 5.8335 2.93255 7.146 2.93255 8.75016L2.91797 26.2502C2.91797 27.8543 4.23047 29.1668 5.83464 29.1668H29.168C30.7721 29.1668 32.0846 27.8543 32.0846 26.2502V8.75016C32.0846 7.146 30.7721 5.8335 29.168 5.8335ZM28.5846 12.0314L18.2742 18.4772C17.8076 18.7689 17.1951 18.7689 16.7284 18.4772L6.41797 12.0314C6.27174 11.9493 6.14368 11.8384 6.04156 11.7054C5.93943 11.5724 5.86535 11.42 5.82381 11.2576C5.78226 11.0951 5.77412 10.9259 5.79986 10.7602C5.82561 10.5945 5.88471 10.4357 5.97359 10.2935C6.06247 10.1513 6.17927 10.0286 6.31694 9.93286C6.45461 9.83711 6.61028 9.77028 6.77452 9.73643C6.93877 9.70258 7.10817 9.70241 7.27249 9.73592C7.4368 9.76943 7.5926 9.83594 7.73047 9.93141L17.5013 16.0418L27.2721 9.93141C27.41 9.83594 27.5658 9.76943 27.7301 9.73592C27.8944 9.70241 28.0638 9.70258 28.2281 9.73643C28.3923 9.77028 28.548 9.83711 28.6857 9.93286C28.8233 10.0286 28.9401 10.1513 29.029 10.2935C29.1179 10.4357 29.177 10.5945 29.2027 10.7602C29.2285 10.9259 29.2203 11.0951 29.1788 11.2576C29.1373 11.42 29.0632 11.5724 28.961 11.7054C28.8589 11.8384 28.7309 11.9493 28.5846 12.0314Z" fill="#05011D"/>
</svg>
