<svg width="120" height="20" viewBox="0 0 120 20" fill="none" xmlns="http://www.w3.org/2000/svg">
<path d="M10.0013 15.2292L6.54292 17.3125C6.39014 17.4097 6.23042 17.4514 6.06375 17.4375C5.89708 17.4236 5.75125 17.3681 5.62625 17.2708C5.50125 17.1736 5.40403 17.0519 5.33458 16.9058C5.26514 16.7597 5.25125 16.5967 5.29292 16.4167L6.20958 12.4792L3.14708 9.83333C3.0082 9.70833 2.92153 9.56583 2.88708 9.40583C2.85264 9.24583 2.86292 9.08972 2.91792 8.9375C2.97347 8.78472 3.05681 8.65972 3.16792 8.5625C3.27903 8.46528 3.43181 8.40278 3.62625 8.375L7.66792 8.02083L9.23042 4.3125C9.29986 4.14583 9.40764 4.02083 9.55375 3.9375C9.69986 3.85417 9.84903 3.8125 10.0013 3.8125C10.154 3.8125 10.3032 3.85417 10.4488 3.9375C10.5943 4.02083 10.7021 4.14583 10.7721 4.3125L12.3346 8.02083L16.3762 8.375C16.5707 8.40278 16.7235 8.46528 16.8346 8.5625C16.9457 8.65972 17.029 8.78472 17.0846 8.9375C17.1401 9.09028 17.1507 9.24667 17.1163 9.40667C17.0818 9.56667 16.9949 9.70889 16.8554 9.83333L13.7929 12.4792L14.7096 16.4167C14.7513 16.5972 14.7374 16.7606 14.6679 16.9067C14.5985 17.0528 14.5013 17.1742 14.3763 17.2708C14.2513 17.3681 14.1054 17.4236 13.9388 17.4375C13.7721 17.4514 13.6124 17.4097 13.4596 17.3125L10.0013 15.2292Z" fill="#FFE600"/>
<path d="M35.0013 15.2292L31.5429 17.3125C31.3901 17.4097 31.2304 17.4514 31.0638 17.4375C30.8971 17.4236 30.7513 17.3681 30.6263 17.2708C30.5013 17.1736 30.404 17.0519 30.3346 16.9058C30.2651 16.7597 30.2513 16.5967 30.2929 16.4167L31.2096 12.4792L28.1471 9.83333C28.0082 9.70833 27.9215 9.56583 27.8871 9.40583C27.8526 9.24583 27.8629 9.08972 27.9179 8.9375C27.9735 8.78472 28.0568 8.65972 28.1679 8.5625C28.279 8.46528 28.4318 8.40278 28.6263 8.375L32.6679 8.02083L34.2304 4.3125C34.2999 4.14583 34.4076 4.02083 34.5538 3.9375C34.6999 3.85417 34.849 3.8125 35.0013 3.8125C35.154 3.8125 35.3032 3.85417 35.4488 3.9375C35.5943 4.02083 35.7021 4.14583 35.7721 4.3125L37.3346 8.02083L41.3762 8.375C41.5707 8.40278 41.7235 8.46528 41.8346 8.5625C41.9457 8.65972 42.029 8.78472 42.0846 8.9375C42.1401 9.09028 42.1507 9.24667 42.1163 9.40667C42.0818 9.56667 41.9949 9.70889 41.8554 9.83333L38.7929 12.4792L39.7096 16.4167C39.7513 16.5972 39.7374 16.7606 39.6679 16.9067C39.5985 17.0528 39.5013 17.1742 39.3763 17.2708C39.2513 17.3681 39.1054 17.4236 38.9388 17.4375C38.7721 17.4514 38.6124 17.4097 38.4596 17.3125L35.0013 15.2292Z" fill="#FFE600"/>
<path d="M60.0013 15.2292L56.5429 17.3125C56.3901 17.4097 56.2304 17.4514 56.0638 17.4375C55.8971 17.4236 55.7513 17.3681 55.6263 17.2708C55.5013 17.1736 55.404 17.0519 55.3346 16.9058C55.2651 16.7597 55.2513 16.5967 55.2929 16.4167L56.2096 12.4792L53.1471 9.83333C53.0082 9.70833 52.9215 9.56583 52.8871 9.40583C52.8526 9.24583 52.8629 9.08972 52.9179 8.9375C52.9735 8.78472 53.0568 8.65972 53.1679 8.5625C53.279 8.46528 53.4318 8.40278 53.6263 8.375L57.6679 8.02083L59.2304 4.3125C59.2999 4.14583 59.4076 4.02083 59.5538 3.9375C59.6999 3.85417 59.849 3.8125 60.0013 3.8125C60.154 3.8125 60.3032 3.85417 60.4488 3.9375C60.5943 4.02083 60.7021 4.14583 60.7721 4.3125L62.3346 8.02083L66.3762 8.375C66.5707 8.40278 66.7235 8.46528 66.8346 8.5625C66.9457 8.65972 67.029 8.78472 67.0846 8.9375C67.1401 9.09028 67.1507 9.24667 67.1163 9.40667C67.0818 9.56667 66.9949 9.70889 66.8554 9.83333L63.7929 12.4792L64.7096 16.4167C64.7513 16.5972 64.7374 16.7606 64.6679 16.9067C64.5985 17.0528 64.5013 17.1742 64.3763 17.2708C64.2513 17.3681 64.1054 17.4236 63.9388 17.4375C63.7721 17.4514 63.6124 17.4097 63.4596 17.3125L60.0013 15.2292Z" fill="#FFE600"/>
<path d="M85.0013 15.2292L81.5429 17.3125C81.3901 17.4097 81.2304 17.4514 81.0638 17.4375C80.8971 17.4236 80.7513 17.3681 80.6263 17.2708C80.5013 17.1736 80.404 17.0519 80.3346 16.9058C80.2651 16.7597 80.2513 16.5967 80.2929 16.4167L81.2096 12.4792L78.1471 9.83333C78.0082 9.70833 77.9215 9.56583 77.8871 9.40583C77.8526 9.24583 77.8629 9.08972 77.9179 8.9375C77.9735 8.78472 78.0568 8.65972 78.1679 8.5625C78.279 8.46528 78.4318 8.40278 78.6263 8.375L82.6679 8.02083L84.2304 4.3125C84.2999 4.14583 84.4076 4.02083 84.5538 3.9375C84.6999 3.85417 84.849 3.8125 85.0013 3.8125C85.154 3.8125 85.3032 3.85417 85.4488 3.9375C85.5943 4.02083 85.7021 4.14583 85.7721 4.3125L87.3346 8.02083L91.3762 8.375C91.5707 8.40278 91.7235 8.46528 91.8346 8.5625C91.9457 8.65972 92.029 8.78472 92.0846 8.9375C92.1401 9.09028 92.1507 9.24667 92.1163 9.40667C92.0818 9.56667 91.9949 9.70889 91.8554 9.83333L88.7929 12.4792L89.7096 16.4167C89.7513 16.5972 89.7374 16.7606 89.6679 16.9067C89.5985 17.0528 89.5013 17.1742 89.3763 17.2708C89.2513 17.3681 89.1054 17.4236 88.9388 17.4375C88.7721 17.4514 88.6124 17.4097 88.4596 17.3125L85.0013 15.2292Z" fill="#FFE600"/>
<path d="M110.001 15.2292L106.543 17.3125C106.39 17.4097 106.23 17.4514 106.064 17.4375C105.897 17.4236 105.751 17.3681 105.626 17.2708C105.501 17.1736 105.404 17.0519 105.335 16.9058C105.265 16.7597 105.251 16.5967 105.293 16.4167L106.21 12.4792L103.147 9.83333C103.008 9.70833 102.922 9.56583 102.887 9.40583C102.853 9.24583 102.863 9.08972 102.918 8.9375C102.973 8.78472 103.057 8.65972 103.168 8.5625C103.279 8.46528 103.432 8.40278 103.626 8.375L107.668 8.02083L109.23 4.3125C109.3 4.14583 109.408 4.02083 109.554 3.9375C109.7 3.85417 109.849 3.8125 110.001 3.8125C110.154 3.8125 110.303 3.85417 110.449 3.9375C110.594 4.02083 110.702 4.14583 110.772 4.3125L112.335 8.02083L116.376 8.375C116.571 8.40278 116.723 8.46528 116.835 8.5625C116.946 8.65972 117.029 8.78472 117.085 8.9375C117.14 9.09028 117.151 9.24667 117.116 9.40667C117.082 9.56667 116.995 9.70889 116.855 9.83333L113.793 12.4792L114.71 16.4167C114.751 16.5972 114.737 16.7606 114.668 16.9067C114.598 17.0528 114.501 17.1742 114.376 17.2708C114.251 17.3681 114.105 17.4236 113.939 17.4375C113.772 17.4514 113.612 17.4097 113.46 17.3125L110.001 15.2292Z" fill="#FFE600"/>
</svg>
