<svg width="150" height="22" viewBox="0 0 150 22" fill="none" xmlns="http://www.w3.org/2000/svg">
<path d="M21.2889 7.74683L14.6938 6.74311L11.7455 0.484186C11.665 0.31282 11.5325 0.174096 11.3689 0.089773C10.9585 -0.122394 10.4598 0.0544119 10.2546 0.484186L7.30634 6.74311L0.711168 7.74683C0.52934 7.77403 0.363097 7.86379 0.235817 7.99979C0.0819425 8.16541 -0.00284927 8.38822 7.31104e-05 8.61927C0.00299549 8.85032 0.0933929 9.0707 0.251402 9.232L5.0231 14.1037L3.89576 20.9828C3.86932 21.1428 3.88623 21.3074 3.94457 21.4579C4.00291 21.6083 4.10035 21.7387 4.22583 21.8341C4.35131 21.9295 4.49981 21.9862 4.6545 21.9978C4.80919 22.0093 4.96388 21.9753 5.10102 21.8995L11.0001 18.6517L16.8991 21.8995C17.0601 21.9892 17.2472 22.0191 17.4264 21.9865C17.8784 21.9049 18.1823 21.4561 18.1043 20.9828L16.977 14.1037L21.7487 9.232C21.8786 9.09871 21.9643 8.92462 21.9903 8.73422C22.0604 8.2582 21.7435 7.81755 21.2889 7.74683Z" fill="#F5A623"/>
<path d="M53.2889 7.74683L46.6938 6.74311L43.7455 0.484186C43.665 0.31282 43.5325 0.174096 43.3689 0.089773C42.9585 -0.122394 42.4598 0.0544119 42.2546 0.484186L39.3063 6.74311L32.7112 7.74683C32.5293 7.77403 32.3631 7.86379 32.2358 7.99979C32.0819 8.16541 31.9972 8.38822 32.0001 8.61927C32.003 8.85032 32.0934 9.0707 32.2514 9.232L37.0231 14.1037L35.8958 20.9828C35.8693 21.1428 35.8862 21.3074 35.9446 21.4579C36.0029 21.6083 36.1003 21.7387 36.2258 21.8341C36.3513 21.9295 36.4998 21.9862 36.6545 21.9978C36.8092 22.0093 36.9639 21.9753 37.101 21.8995L43.0001 18.6517L48.8991 21.8995C49.0601 21.9892 49.2472 22.0191 49.4264 21.9865C49.8784 21.9049 50.1823 21.4561 50.1043 20.9828L48.977 14.1037L53.7487 9.232C53.8786 9.09871 53.9643 8.92462 53.9903 8.73422C54.0604 8.2582 53.7435 7.81755 53.2889 7.74683Z" fill="#F5A623"/>
<path d="M85.2889 7.74683L78.6938 6.74311L75.7455 0.484186C75.665 0.31282 75.5325 0.174096 75.3689 0.089773C74.9585 -0.122394 74.4598 0.0544119 74.2546 0.484186L71.3063 6.74311L64.7112 7.74683C64.5293 7.77403 64.3631 7.86379 64.2358 7.99979C64.0819 8.16541 63.9972 8.38822 64.0001 8.61927C64.003 8.85032 64.0934 9.0707 64.2514 9.232L69.0231 14.1037L67.8958 20.9828C67.8693 21.1428 67.8862 21.3074 67.9446 21.4579C68.0029 21.6083 68.1003 21.7387 68.2258 21.8341C68.3513 21.9295 68.4998 21.9862 68.6545 21.9978C68.8092 22.0093 68.9639 21.9753 69.101 21.8995L75.0001 18.6517L80.8991 21.8995C81.0601 21.9892 81.2472 22.0191 81.4264 21.9865C81.8784 21.9049 82.1823 21.4561 82.1043 20.9828L80.977 14.1037L85.7487 9.232C85.8786 9.09871 85.9643 8.92462 85.9903 8.73422C86.0604 8.2582 85.7435 7.81755 85.2889 7.74683Z" fill="#F5A623"/>
<path d="M117.289 7.74683L110.694 6.74311L107.746 0.484186C107.665 0.31282 107.533 0.174096 107.369 0.089773C106.958 -0.122394 106.46 0.0544119 106.255 0.484186L103.306 6.74311L96.7112 7.74683C96.5293 7.77403 96.3631 7.86379 96.2358 7.99979C96.0819 8.16541 95.9972 8.38822 96.0001 8.61927C96.003 8.85032 96.0934 9.0707 96.2514 9.232L101.023 14.1037L99.8958 20.9828C99.8693 21.1428 99.8862 21.3074 99.9446 21.4579C100.003 21.6083 100.1 21.7387 100.226 21.8341C100.351 21.9295 100.5 21.9862 100.655 21.9978C100.809 22.0093 100.964 21.9753 101.101 21.8995L107 18.6517L112.899 21.8995C113.06 21.9892 113.247 22.0191 113.426 21.9865C113.878 21.9049 114.182 21.4561 114.104 20.9828L112.977 14.1037L117.749 9.232C117.879 9.09871 117.964 8.92462 117.99 8.73422C118.06 8.2582 117.744 7.81755 117.289 7.74683Z" fill="#F5A623"/>
<path d="M149.289 7.74683L142.694 6.74311L139.746 0.484186C139.665 0.31282 139.533 0.174096 139.369 0.089773C138.958 -0.122394 138.46 0.0544119 138.255 0.484186L135.306 6.74311L128.711 7.74683C128.529 7.77403 128.363 7.86379 128.236 7.99979C128.082 8.16541 127.997 8.38822 128 8.61927C128.003 8.85032 128.093 9.0707 128.251 9.232L133.023 14.1037L131.896 20.9828C131.869 21.1428 131.886 21.3074 131.945 21.4579C132.003 21.6083 132.1 21.7387 132.226 21.8341C132.351 21.9295 132.5 21.9862 132.655 21.9978C132.809 22.0093 132.964 21.9753 133.101 21.8995L139 18.6517L144.899 21.8995C145.06 21.9892 145.247 22.0191 145.426 21.9865C145.878 21.9049 146.182 21.4561 146.104 20.9828L144.977 14.1037L149.749 9.232C149.879 9.09871 149.964 8.92462 149.99 8.73422C150.06 8.2582 149.744 7.81755 149.289 7.74683Z" fill="#F5A623"/>
</svg>
