<svg width="22" height="22" viewBox="0 0 22 22" fill="none" xmlns="http://www.w3.org/2000/svg">
<path d="M12.0313 15.4688C12.0313 15.6727 11.9708 15.8721 11.8575 16.0417C11.7441 16.2113 11.5831 16.3434 11.3946 16.4215C11.2062 16.4996 10.9989 16.52 10.7988 16.4802C10.5988 16.4404 10.415 16.3422 10.2708 16.198C10.1266 16.0537 10.0284 15.87 9.98857 15.6699C9.94878 15.4699 9.9692 15.2625 10.0473 15.0741C10.1253 14.8857 10.2575 14.7246 10.4271 14.6113C10.5967 14.498 10.796 14.4375 11 14.4375C11.2735 14.4375 11.5358 14.5462 11.7292 14.7395C11.9226 14.9329 12.0313 15.1952 12.0313 15.4688ZM11 6.1875C9.10422 6.1875 7.5625 7.57539 7.5625 9.28125V9.625C7.5625 9.80734 7.63494 9.9822 7.76387 10.1111C7.8928 10.2401 8.06767 10.3125 8.25 10.3125C8.43234 10.3125 8.60721 10.2401 8.73614 10.1111C8.86507 9.9822 8.9375 9.80734 8.9375 9.625V9.28125C8.9375 8.33594 9.86305 7.5625 11 7.5625C12.137 7.5625 13.0625 8.33594 13.0625 9.28125C13.0625 10.2266 12.137 11 11 11C10.8177 11 10.6428 11.0724 10.5139 11.2014C10.3849 11.3303 10.3125 11.5052 10.3125 11.6875V12.375C10.3125 12.5573 10.3849 12.7322 10.5139 12.8611C10.6428 12.9901 10.8177 13.0625 11 13.0625C11.1823 13.0625 11.3572 12.9901 11.4861 12.8611C11.6151 12.7322 11.6875 12.5573 11.6875 12.375V12.3131C13.255 12.0252 14.4375 10.7748 14.4375 9.28125C14.4375 7.57539 12.8958 6.1875 11 6.1875ZM19.9375 11C19.9375 12.7677 19.4133 14.4956 18.4313 15.9654C17.4492 17.4352 16.0534 18.5807 14.4202 19.2572C12.7871 19.9336 10.9901 20.1106 9.25638 19.7658C7.52268 19.4209 5.93017 18.5697 4.68024 17.3198C3.43031 16.0698 2.57909 14.4773 2.23424 12.7436C1.88938 11.0099 2.06637 9.21288 2.74283 7.57977C3.41929 5.94665 4.56483 4.55081 6.0346 3.56874C7.50436 2.58668 9.23233 2.0625 11 2.0625C13.3696 2.065 15.6414 3.00743 17.317 4.683C18.9926 6.35856 19.935 8.6304 19.9375 11ZM18.5625 11C18.5625 9.50428 18.119 8.04215 17.288 6.7985C16.457 5.55485 15.2759 4.58555 13.894 4.01316C12.5122 3.44077 10.9916 3.29101 9.52463 3.58281C8.05765 3.87461 6.71014 4.59487 5.65251 5.65251C4.59487 6.71014 3.87462 8.05765 3.58282 9.52463C3.29101 10.9916 3.44078 12.5122 4.01316 13.894C4.58555 15.2759 5.55486 16.457 6.7985 17.288C8.04215 18.119 9.50428 18.5625 11 18.5625C13.005 18.5602 14.9272 17.7627 16.345 16.345C17.7627 14.9272 18.5602 13.005 18.5625 11Z" fill="white"/>
</svg>
