<svg width="20" height="20" viewBox="0 0 20 20" fill="none" xmlns="http://www.w3.org/2000/svg">
<g clip-path="url(#clip0_1_101443)">
<path d="M15.832 7.50016L14.7904 5.2085L12.4987 4.16683L14.7904 3.12516L15.832 0.833496L16.8737 3.12516L19.1654 4.16683L16.8737 5.2085L15.832 7.50016ZM15.832 19.1668L14.7904 16.8752L12.4987 15.8335L14.7904 14.7918L15.832 12.5002L16.8737 14.7918L19.1654 15.8335L16.8737 16.8752L15.832 19.1668ZM3.9987 13.3335H5.58203L6.16536 11.6668H8.83203L9.41537 13.3335H10.9987L8.33203 5.8335H6.66536L3.9987 13.3335ZM6.54036 10.5418L7.4987 7.50016L8.45703 10.5418H6.54036ZM7.4987 16.6668C5.63759 16.6668 4.0612 16.021 2.76953 14.7293C1.47786 13.4377 0.832031 11.8613 0.832031 10.0002C0.832031 8.13905 1.47786 6.56266 2.76953 5.271C4.0612 3.97933 5.63759 3.3335 7.4987 3.3335C9.35981 3.3335 10.9362 3.97933 12.2279 5.271C13.5195 6.56266 14.1654 8.13905 14.1654 10.0002C14.1654 11.8613 13.5195 13.4377 12.2279 14.7293C10.9362 16.021 9.35981 16.6668 7.4987 16.6668Z" fill="#05011D"/>
</g>
<defs>
<clipPath id="clip0_1_101443">
<rect width="20" height="20" fill="white"/>
</clipPath>
</defs>
</svg>
