<svg width="26" height="26" viewBox="0 0 26 26" fill="none" xmlns="http://www.w3.org/2000/svg">
<path d="M12.9993 9.47949C12.0656 9.47949 11.17 9.85044 10.5097 10.5107C9.84946 11.171 9.47852 12.0665 9.47852 13.0003C9.47852 13.9341 9.84946 14.8296 10.5097 15.4899C11.17 16.1502 12.0656 16.5212 12.9993 16.5212C13.9331 16.5212 14.8287 16.1502 15.489 15.4899C16.1492 14.8296 16.5202 13.9341 16.5202 13.0003C16.5202 12.0665 16.1492 11.171 15.489 10.5107C14.8287 9.85044 13.9331 9.47949 12.9993 9.47949Z" fill="white"/>
<path fill-rule="evenodd" clip-rule="evenodd" d="M7.3334 3.33845C11.0991 2.92104 14.8994 2.92104 18.6651 3.33845C20.7223 3.56811 22.3809 5.1877 22.6225 7.25253C23.069 11.0709 23.069 14.9283 22.6225 18.7467C22.3809 20.8115 20.7223 22.4311 18.6662 22.6619C14.9001 23.0794 11.0995 23.0794 7.3334 22.6619C5.27615 22.4311 3.61757 20.8115 3.37599 18.7478C2.92936 14.929 2.92936 11.0713 3.37599 7.25253C3.61757 5.1877 5.27615 3.56811 7.3334 3.33845ZM18.4159 6.49961C18.1286 6.49961 17.853 6.61375 17.6499 6.81691C17.4467 7.02008 17.3326 7.29563 17.3326 7.58295C17.3326 7.87026 17.4467 8.14581 17.6499 8.34898C17.853 8.55214 18.1286 8.66628 18.4159 8.66628C18.7032 8.66628 18.9788 8.55214 19.1819 8.34898C19.3851 8.14581 19.4992 7.87026 19.4992 7.58295C19.4992 7.29563 19.3851 7.02008 19.1819 6.81691C18.9788 6.61375 18.7032 6.49961 18.4159 6.49961ZM7.8534 12.9996C7.8534 11.6349 8.39555 10.326 9.36058 9.36096C10.3256 8.39593 11.6345 7.85378 12.9992 7.85378C14.364 7.85378 15.6729 8.39593 16.6379 9.36096C17.6029 10.326 18.1451 11.6349 18.1451 12.9996C18.1451 14.3644 17.6029 15.6732 16.6379 16.6383C15.6729 17.6033 14.364 18.1454 12.9992 18.1454C11.6345 18.1454 10.3256 17.6033 9.36058 16.6383C8.39555 15.6732 7.8534 14.3644 7.8534 12.9996Z" fill="white"/>
</svg>
