<svg width="24" height="24" viewBox="0 0 24 24" fill="none" xmlns="http://www.w3.org/2000/svg">
<path d="M15 3.25C16.525 3.25 17.9875 3.8558 19.0659 4.93414C20.1442 6.01247 20.75 7.47501 20.75 9V16.107C20.75 16.3059 20.671 16.4967 20.5303 16.6373C20.3897 16.778 20.1989 16.857 20 16.857C19.8011 16.857 19.6103 16.778 19.4697 16.6373C19.329 16.4967 19.25 16.3059 19.25 16.107V9C19.25 7.87283 18.8022 6.79183 18.0052 5.9948C17.2082 5.19777 16.1272 4.75 15 4.75H7.987C7.78809 4.75 7.59732 4.67098 7.45667 4.53033C7.31602 4.38968 7.237 4.19891 7.237 4C7.237 3.80109 7.31602 3.61032 7.45667 3.46967C7.59732 3.32902 7.78809 3.25 7.987 3.25H15Z" fill="white"/>
<path fill-rule="evenodd" clip-rule="evenodd" d="M5.59656 6.7932C8.85519 6.43091 12.1439 6.43091 15.4026 6.7932C15.8534 6.84346 16.2741 7.04469 16.5961 7.36421C16.9182 7.68372 17.1227 8.10274 17.1766 8.5532C17.5609 11.8397 17.5609 15.1597 17.1766 18.4462C17.1229 18.8967 16.9184 19.3158 16.5963 19.6354C16.2742 19.9549 15.8535 20.1561 15.4026 20.2062C12.1616 20.5692 8.83756 20.5692 5.59656 20.2062C5.14562 20.1561 4.7249 19.9549 4.40281 19.6354C4.08072 19.3158 3.87622 18.8967 3.82256 18.4462C3.43816 15.1597 3.43816 11.8397 3.82256 8.5532C3.87639 8.10274 4.08095 7.68372 4.403 7.36421C4.72506 7.04469 5.14569 6.84346 5.59656 6.7932ZM15.2356 8.2842C12.1056 7.9342 8.89356 7.9342 5.76356 8.2842C5.64955 8.29682 5.54312 8.34751 5.46147 8.42807C5.37982 8.50863 5.32771 8.61437 5.31356 8.7282C4.94156 11.8987 4.94156 15.1017 5.31356 18.2722C5.32771 18.386 5.37982 18.4918 5.46147 18.5723C5.54312 18.6529 5.64955 18.7036 5.76356 18.7162C8.89356 19.0662 12.1056 19.0662 15.2356 18.7162C15.3495 18.7034 15.4558 18.6527 15.5375 18.5721C15.6191 18.4916 15.6712 18.386 15.6856 18.2722C16.0576 15.1017 16.0576 11.8987 15.6856 8.7282C15.6712 8.61444 15.6191 8.5088 15.5375 8.42826C15.4558 8.34773 15.3495 8.29699 15.2356 8.2842Z" fill="white"/>
</svg>
