<svg width="35" height="35" viewBox="0 0 35 35" fill="none" xmlns="http://www.w3.org/2000/svg">
<path d="M17.5006 10.9371C16.2027 10.9371 14.9339 11.322 13.8547 12.0431C12.7755 12.7642 11.9343 13.7891 11.4376 14.9882C10.9409 16.1874 10.811 17.5069 11.0642 18.7799C11.3174 20.0529 11.9424 21.2222 12.8602 22.14C13.778 23.0578 14.9473 23.6828 16.2203 23.936C17.4933 24.1892 18.8128 24.0593 20.012 23.5626C21.2111 23.0659 22.236 22.2247 22.9571 21.1455C23.6782 20.0663 24.0631 18.7976 24.0631 17.4996C24.0613 15.7597 23.3693 14.0915 22.139 12.8612C20.9087 11.6309 19.2405 10.9389 17.5006 10.9371ZM17.5006 21.8746C16.6353 21.8746 15.7894 21.618 15.07 21.1373C14.3505 20.6566 13.7898 19.9733 13.4586 19.1739C13.1275 18.3744 13.0408 17.4948 13.2097 16.6461C13.3785 15.7974 13.7952 15.0179 14.407 14.406C15.0189 13.7942 15.7984 13.3775 16.6471 13.2087C17.4958 13.0399 18.3754 13.1265 19.1748 13.4576C19.9743 13.7888 20.6576 14.3495 21.1383 15.069C21.619 15.7885 21.8756 16.6343 21.8756 17.4996C21.8756 18.6599 21.4147 19.7727 20.5942 20.5932C19.7737 21.4137 18.6609 21.8746 17.5006 21.8746ZM24.0631 3.28083H10.9381C8.90819 3.283 6.96205 4.09034 5.52669 5.5257C4.09134 6.96105 3.284 8.90719 3.28183 10.9371V24.0621C3.284 26.092 4.09134 28.0382 5.52669 29.4735C6.96205 30.9089 8.90819 31.7162 10.9381 31.7184H24.0631C26.093 31.7162 28.0392 30.9089 29.4745 29.4735C30.9099 28.0382 31.7172 26.092 31.7194 24.0621V10.9371C31.7172 8.90719 30.9099 6.96105 29.4745 5.5257C28.0392 4.09034 26.093 3.283 24.0631 3.28083ZM29.5319 24.0621C29.5319 25.5125 28.9557 26.9035 27.9301 27.9291C26.9045 28.9547 25.5135 29.5309 24.0631 29.5309H10.9381C9.48769 29.5309 8.09669 28.9547 7.07109 27.9291C6.0455 26.9035 5.46933 25.5125 5.46933 24.0621V10.9371C5.46933 9.48669 6.0455 8.09569 7.07109 7.0701C8.09669 6.04451 9.48769 5.46833 10.9381 5.46833H24.0631C25.5135 5.46833 26.9045 6.04451 27.9301 7.0701C28.9557 8.09569 29.5319 9.48669 29.5319 10.9371V24.0621ZM26.2506 10.3902C26.2506 10.7147 26.1544 11.0319 25.9741 11.3017C25.7939 11.5715 25.5376 11.7818 25.2378 11.906C24.938 12.0301 24.6082 12.0626 24.2899 11.9993C23.9717 11.936 23.6793 11.7798 23.4499 11.5503C23.2205 11.3209 23.0642 11.0285 23.0009 10.7103C22.9376 10.392 22.9701 10.0622 23.0943 9.76238C23.2184 9.46259 23.4287 9.20636 23.6985 9.02609C23.9683 8.84581 24.2855 8.74959 24.61 8.74959C25.0451 8.74959 25.4624 8.92244 25.7701 9.23012C26.0778 9.5378 26.2506 9.9551 26.2506 10.3902Z" fill="white"/>
</svg>
