<svg width="30" height="30" viewBox="0 0 30 30" fill="none" xmlns="http://www.w3.org/2000/svg">
<path d="M26.375 11.0937L15.875 21.625C15.75 21.75 15.6146 21.8387 15.4687 21.8912C15.3229 21.9437 15.1667 21.9696 15 21.9687C14.8333 21.9687 14.6771 21.9429 14.5312 21.8912C14.3854 21.8396 14.25 21.7508 14.125 21.625L3.59375 11.0938C3.30208 10.8021 3.15625 10.4375 3.15625 10C3.15625 9.5625 3.3125 9.1875 3.625 8.875C3.9375 8.5625 4.30208 8.40625 4.71875 8.40625C5.13542 8.40625 5.5 8.5625 5.8125 8.875L15 18.0625L24.1875 8.875C24.4792 8.58333 24.8387 8.4375 25.2662 8.4375C25.6937 8.4375 26.0633 8.59375 26.375 8.90625C26.6875 9.21875 26.8437 9.58333 26.8437 10C26.8437 10.4167 26.6875 10.7812 26.375 11.0937Z" fill="white"/>
</svg>
