<svg width="494" height="24" viewBox="0 0 494 24" fill="none" xmlns="http://www.w3.org/2000/svg">
<rect width="24" height="24" rx="5" fill="#9F4DEB"/>
<path d="M17.2194 8.27401C17.1471 8.20111 17.0611 8.14325 16.9663 8.10376C16.8716 8.06427 16.7699 8.04395 16.6672 8.04395C16.5645 8.04395 16.4629 8.06427 16.3681 8.10376C16.2733 8.14325 16.1873 8.20111 16.115 8.27401L10.3206 14.0762L7.88611 11.634C7.81104 11.5615 7.72242 11.5045 7.62531 11.4662C7.5282 11.4279 7.4245 11.4092 7.32014 11.411C7.21578 11.4128 7.11279 11.4351 7.01707 11.4767C6.92134 11.5183 6.83474 11.5784 6.76222 11.6535C6.68971 11.7285 6.63268 11.8171 6.59441 11.9143C6.55614 12.0114 6.53738 12.1151 6.53918 12.2194C6.54099 12.3238 6.56333 12.4268 6.60494 12.5225C6.64654 12.6182 6.7066 12.7048 6.78167 12.7773L9.76834 15.764C9.84064 15.8369 9.92666 15.8948 10.0214 15.9343C10.1162 15.9737 10.2179 15.9941 10.3206 15.9941C10.4232 15.9941 10.5249 15.9737 10.6197 15.9343C10.7145 15.8948 10.8005 15.8369 10.8728 15.764L17.2194 9.41734C17.2984 9.34451 17.3614 9.25612 17.4045 9.15773C17.4476 9.05934 17.4698 8.95309 17.4698 8.84568C17.4698 8.73826 17.4476 8.63202 17.4045 8.53363C17.3614 8.43524 17.2984 8.34684 17.2194 8.27401Z" fill="white"/>
<rect x="235.5" y="0.5" width="23" height="23" rx="4.5" stroke="white"/>
<rect x="470.5" y="0.5" width="23" height="23" rx="4.5" stroke="white"/>
</svg>
