<svg width="20" height="20" viewBox="0 0 20 20" fill="none" xmlns="http://www.w3.org/2000/svg">
<g clip-path="url(#clip0_1_112433)">
<path d="M15.832 7.49967L14.7904 5.20801L12.4987 4.16634L14.7904 3.12467L15.832 0.833008L16.8737 3.12467L19.1654 4.16634L16.8737 5.20801L15.832 7.49967ZM15.832 19.1663L14.7904 16.8747L12.4987 15.833L14.7904 14.7913L15.832 12.4997L16.8737 14.7913L19.1654 15.833L16.8737 16.8747L15.832 19.1663ZM3.9987 13.333H5.58203L6.16536 11.6663H8.83203L9.41537 13.333H10.9987L8.33203 5.83301H6.66536L3.9987 13.333ZM6.54036 10.5413L7.4987 7.49967L8.45703 10.5413H6.54036ZM7.4987 16.6663C5.63759 16.6663 4.0612 16.0205 2.76953 14.7288C1.47786 13.4372 0.832031 11.8608 0.832031 9.99967C0.832031 8.13856 1.47786 6.56217 2.76953 5.27051C4.0612 3.97884 5.63759 3.33301 7.4987 3.33301C9.35981 3.33301 10.9362 3.97884 12.2279 5.27051C13.5195 6.56217 14.1654 8.13856 14.1654 9.99967C14.1654 11.8608 13.5195 13.4372 12.2279 14.7288C10.9362 16.0205 9.35981 16.6663 7.4987 16.6663Z" fill="white"/>
</g>
<defs>
<clipPath id="clip0_1_112433">
<rect width="20" height="20" fill="white"/>
</clipPath>
</defs>
</svg>
