<svg width="21" height="21" viewBox="0 0 21 21" fill="none" xmlns="http://www.w3.org/2000/svg">
<path d="M19.9363 16.4906C19.9363 16.8314 19.8605 17.1817 19.6996 17.5224C19.5387 17.8632 19.3304 18.185 19.0559 18.488C18.5921 18.9991 18.0809 19.3683 17.5035 19.6049C16.9355 19.8416 16.3202 19.9647 15.6576 19.9647C14.6921 19.9647 13.6603 19.7375 12.5717 19.2736C11.4831 18.8098 10.3945 18.185 9.3154 17.3994C8.22681 16.6042 7.19502 15.7239 6.21056 14.7489C5.23556 13.7644 4.35522 12.7326 3.56954 11.6535C2.79333 10.5744 2.16857 9.49526 1.71421 8.4256C1.25984 7.34648 1.03265 6.31468 1.03265 5.33022C1.03265 4.68653 1.14625 4.07124 1.37343 3.50328C1.60061 2.92585 1.96032 2.39576 2.46202 1.92246C3.06784 1.3261 3.73046 1.03265 4.43095 1.03265C4.696 1.03265 4.96104 1.08945 5.19769 1.20304C5.44381 1.31663 5.66153 1.48702 5.83192 1.73314L8.02803 4.82852C8.19842 5.06517 8.32147 5.28289 8.40667 5.49114C8.49186 5.68993 8.53919 5.88871 8.53919 6.06857C8.53919 6.29575 8.47293 6.52293 8.34041 6.74065C8.21735 6.95837 8.03749 7.18555 7.81031 7.41274L7.09089 8.16055C6.98677 8.26468 6.93944 8.38774 6.93944 8.53919C6.93944 8.61492 6.94891 8.68118 6.96784 8.75691C6.99624 8.83264 7.02463 8.88943 7.04357 8.94623C7.21395 9.25861 7.5074 9.66565 7.9239 10.1579C8.34987 10.6501 8.80424 11.1518 9.29647 11.6535C9.80764 12.1552 10.2999 12.619 10.8016 13.045C11.2938 13.4615 11.7008 13.7455 12.0227 13.9159C12.07 13.9348 12.1268 13.9632 12.1931 13.9916C12.2688 14.02 12.3445 14.0295 12.4297 14.0295C12.5906 14.0295 12.7137 13.9727 12.8178 13.8686L13.5372 13.1586C13.7739 12.922 14.0011 12.7421 14.2188 12.6285C14.4365 12.496 14.6542 12.4297 14.8909 12.4297C15.0707 12.4297 15.2601 12.4676 15.4683 12.5528C15.6766 12.638 15.8943 12.761 16.1309 12.922L19.2642 15.1465C19.5103 15.3168 19.6807 15.5156 19.7848 15.7523C19.8795 15.9889 19.9363 16.2256 19.9363 16.4906Z" stroke="#05011D" stroke-width="2" stroke-miterlimit="10"/>
<path d="M16.6529 7.65852C16.6529 7.09056 16.208 6.21969 15.5454 5.50974C14.9396 4.85658 14.1349 4.34542 13.3398 4.34542" stroke="#05011D" stroke-width="2" stroke-linecap="round" stroke-linejoin="round"/>
<path d="M19.966 7.65885C19.966 3.99551 17.0031 1.03265 13.3398 1.03265" stroke="#05011D" stroke-width="2" stroke-linecap="round" stroke-linejoin="round"/>
</svg>
