<svg width="30" height="30" viewBox="0 0 30 30" fill="none" xmlns="http://www.w3.org/2000/svg">
<path d="M25.0004 24.9132L19.9379 19.8684M19.9379 19.8684C20.7505 19.0586 21.3951 18.0974 21.8348 17.0394C22.2746 15.9814 22.5009 14.8475 22.5009 13.7024C22.5009 12.5573 22.2746 11.4234 21.8348 10.3654C21.3951 9.30746 20.7505 8.34617 19.9379 7.53645C19.1254 6.72672 18.1607 6.08441 17.0991 5.64619C16.0374 5.20797 14.8996 4.98242 13.7504 4.98242C12.6013 4.98242 11.4634 5.20797 10.4018 5.64619C9.34014 6.08441 8.3755 6.72672 7.56295 7.53645C5.92192 9.17176 5 11.3897 5 13.7024C5 16.0151 5.92192 18.2331 7.56295 19.8684C9.20397 21.5037 11.4297 22.4224 13.7504 22.4224C16.0712 22.4224 18.2969 21.5037 19.9379 19.8684Z" stroke="white" stroke-width="2" stroke-linecap="round" stroke-linejoin="round"/>
</svg>
