<svg width="167" height="13" viewBox="0 0 167 13" fill="none" xmlns="http://www.w3.org/2000/svg">
<path d="M6.21074 12.4215C9.64084 12.4215 12.4215 9.64084 12.4215 6.21074C12.4215 2.78064 9.64084 0 6.21074 0C2.78064 0 0 2.78064 0 6.21074C0 9.64084 2.78064 12.4215 6.21074 12.4215Z" fill="#05011D"/>
<path d="M28.2928 12.4215C31.7229 12.4215 34.5035 9.64084 34.5035 6.21074C34.5035 2.78064 31.7229 0 28.2928 0C24.8627 0 22.082 2.78064 22.082 6.21074C22.082 9.64084 24.8627 12.4215 28.2928 12.4215Z" fill="#05011D"/>
<path d="M50.3748 12.4215C53.8049 12.4215 56.5855 9.64084 56.5855 6.21074C56.5855 2.78064 53.8049 0 50.3748 0C46.9447 0 44.1641 2.78064 44.1641 6.21074C44.1641 9.64084 46.9447 12.4215 50.3748 12.4215Z" fill="#05011D"/>
<path d="M72.4568 12.4215C75.8869 12.4215 78.6676 9.64084 78.6676 6.21074C78.6676 2.78064 75.8869 0 72.4568 0C69.0267 0 66.2461 2.78064 66.2461 6.21074C66.2461 9.64084 69.0267 12.4215 72.4568 12.4215Z" fill="#05011D"/>
<path d="M94.5389 12.4215C97.969 12.4215 100.75 9.64084 100.75 6.21074C100.75 2.78064 97.969 0 94.5389 0C91.1088 0 88.3281 2.78064 88.3281 6.21074C88.3281 9.64084 91.1088 12.4215 94.5389 12.4215Z" fill="#05011D"/>
<path d="M116.625 12.4215C120.055 12.4215 122.836 9.64084 122.836 6.21074C122.836 2.78064 120.055 0 116.625 0C113.195 0 110.414 2.78064 110.414 6.21074C110.414 9.64084 113.195 12.4215 116.625 12.4215Z" fill="#05011D"/>
<path d="M138.707 12.4215C142.137 12.4215 144.918 9.64084 144.918 6.21074C144.918 2.78064 142.137 0 138.707 0C135.277 0 132.496 2.78064 132.496 6.21074C132.496 9.64084 135.277 12.4215 138.707 12.4215Z" fill="#05011D"/>
<path d="M160.789 12.4215C164.219 12.4215 167 9.64084 167 6.21074C167 2.78064 164.219 0 160.789 0C157.359 0 154.578 2.78064 154.578 6.21074C154.578 9.64084 157.359 12.4215 160.789 12.4215Z" fill="#05011D"/>
</svg>
