<svg width="18" height="14" viewBox="0 0 18 14" fill="none" xmlns="http://www.w3.org/2000/svg">
<mask id="mask0_1_106545" style="mask-type:alpha" maskUnits="userSpaceOnUse" x="-2" y="-4" width="22" height="21">
<rect x="-1.28571" y="-3.85714" width="20.5714" height="20.5714" fill="#D9D9D9"/>
</mask>
<g mask="url(#mask0_1_106545)">
<path d="M8.1 4.28571C8.1 5.70857 6.894 6.85714 5.4 6.85714C3.906 6.85714 2.7 5.70857 2.7 4.28571C2.7 2.86286 3.906 1.71429 5.4 1.71429C6.894 1.71429 8.1 2.86286 8.1 4.28571ZM10.8 13.7143H0V12C0 10.1057 2.421 8.57143 5.4 8.57143C8.379 8.57143 10.8 10.1057 10.8 12M18 6.85714V8.57143H9.9V6.85714M18 3.42857V5.14286H9.9V3.42857M18 0V1.71429H9.9V0H18Z" fill="white"/>
</g>
</svg>
