<svg width="31" height="26" viewBox="0 0 31 26" fill="none" xmlns="http://www.w3.org/2000/svg">
<path d="M27.644 14.7328C27.644 15.3147 27.5813 15.8943 27.4619 16.4661C26.954 18.8983 25.4206 21.1897 23.3246 22.9162C21.0492 24.7906 18.1107 25.9991 15.1018 25.9991C8.99655 25.9991 3.98853 21.8042 3.49536 16.4661C3.46896 16.1804 3.4555 15.8913 3.4555 15.5995C3.4555 9.85591 8.67074 5.19983 15.9977 5.19983C23.3246 5.19983 27.644 10.3997 27.644 14.7328Z" fill="#05011D"/>
<path d="M3.10995 1.55995C3.10995 2.42148 2.41376 3.1199 1.55497 3.1199C0.696185 3.1199 0 2.42148 0 1.55995C0 0.698413 0.696185 0 1.55497 0C2.41376 0 3.10995 0.698413 3.10995 1.55995Z" fill="#05011D"/>
<path d="M30.7539 1.55995C30.7539 2.42148 30.0577 3.1199 29.199 3.1199C28.3402 3.1199 27.644 2.42148 27.644 1.55995C27.644 0.698413 28.3402 0 29.199 0C30.0577 0 30.7539 0.698413 30.7539 1.55995Z" fill="#05011D"/>
</svg>
