<svg width="30" height="30" viewBox="0 0 30 30" fill="none" xmlns="http://www.w3.org/2000/svg">
<path d="M3.625 18.9063L14.125 8.37502C14.25 8.25002 14.3854 8.16127 14.5312 8.10877C14.6771 8.05627 14.8333 8.03044 15 8.03127C15.1667 8.03127 15.3229 8.0571 15.4688 8.10877C15.6146 8.16044 15.75 8.24919 15.875 8.37502L26.4063 18.9063C26.6979 19.1979 26.8438 19.5625 26.8438 20C26.8438 20.4375 26.6875 20.8125 26.375 21.125C26.0625 21.4375 25.6979 21.5938 25.2812 21.5938C24.8646 21.5938 24.5 21.4375 24.1875 21.125L15 11.9375L5.8125 21.125C5.52083 21.4167 5.16125 21.5625 4.73375 21.5625C4.30625 21.5625 3.93667 21.4063 3.625 21.0938C3.3125 20.7813 3.15625 20.4167 3.15625 20C3.15625 19.5834 3.3125 19.2188 3.625 18.9063Z" fill="#05011D"/>
</svg>
