<svg width="35" height="35" viewBox="0 0 35 35" fill="none" xmlns="http://www.w3.org/2000/svg">
<path d="M32.7574 8.74959C31.6345 9.26001 30.4241 9.59543 29.1699 9.75584C30.4533 8.98292 31.4449 7.75792 31.9116 6.285C30.7012 7.01417 29.3595 7.52459 27.9449 7.81626C26.7928 6.56209 25.1741 5.83292 23.3366 5.83292C19.9095 5.83292 17.1095 8.63292 17.1095 12.0892C17.1095 12.585 17.1678 13.0663 17.2699 13.5184C12.0782 13.2558 7.45529 10.7621 4.3782 6.985C3.83861 7.90376 3.53236 8.98292 3.53236 10.1204C3.53236 12.2933 4.62612 14.2184 6.31779 15.3121C5.28237 15.3121 4.31987 15.0204 3.47403 14.5829V14.6267C3.47403 17.66 5.63237 20.1975 8.49071 20.7663C7.57302 21.0174 6.60959 21.0524 5.67612 20.8684C6.07221 22.1116 6.84795 23.1994 7.89427 23.9789C8.9406 24.7584 10.2049 25.1904 11.5095 25.2142C9.29809 26.9649 6.55695 27.9111 3.73653 27.8975C3.2407 27.8975 2.74486 27.8684 2.24903 27.81C5.01987 29.5892 8.31571 30.6246 11.8449 30.6246C23.3366 30.6246 29.6512 21.0871 29.6512 12.8183C29.6512 12.5413 29.6512 12.2788 29.6366 12.0017C30.8616 11.1267 31.9116 10.0183 32.7574 8.74959Z" fill="#05011D"/>
</svg>
