<svg width="35" height="35" viewBox="0 0 35 35" fill="none" xmlns="http://www.w3.org/2000/svg">
<path d="M24.2109 8.48794C23.214 7.34989 22.6646 5.88836 22.6651 4.37544H18.1588V22.4588C18.124 23.4374 17.7109 24.3643 17.0064 25.0443C16.3018 25.7244 15.3609 26.1045 14.3817 26.1046C12.3109 26.1046 10.59 24.413 10.59 22.313C10.59 19.8046 13.0109 17.9234 15.5046 18.6963V14.088C10.4734 13.4171 6.06919 17.3255 6.06919 22.313C6.06919 27.1692 10.0942 30.6255 14.3671 30.6255C18.9463 30.6255 22.6651 26.9067 22.6651 22.313V13.14C24.4923 14.4523 26.6862 15.1564 28.9359 15.1525V10.6463C28.9359 10.6463 26.1942 10.7775 24.2109 8.48794Z" fill="#05011D"/>
</svg>
