<svg width="40" height="40" viewBox="0 0 40 40" fill="none" xmlns="http://www.w3.org/2000/svg">
<path d="M14.9987 33.3332H33.332C34.2487 33.3332 35.0337 33.0065 35.687 32.3532C36.3404 31.6998 36.6665 30.9154 36.6654 29.9998V26.6665H14.9987V33.3332ZM3.33203 13.3332H11.6654V6.66651H6.66537C5.7487 6.66651 4.9637 6.99317 4.31037 7.64651C3.65703 8.29984 3.33092 9.08428 3.33203 9.99984V13.3332ZM3.33203 23.3332H11.6654V16.6665H3.33203V23.3332ZM6.66537 33.3332H11.6654V26.6665H3.33203V29.9998C3.33203 30.9165 3.6587 31.7015 4.31203 32.3548C4.96537 33.0082 5.74981 33.3343 6.66537 33.3332ZM14.9987 23.3332H36.6654V16.6665H14.9987V23.3332ZM14.9987 13.3332H36.6654V9.99984C36.6654 9.08317 36.3387 8.29817 35.6854 7.64484C35.032 6.99151 34.2476 6.6654 33.332 6.66651H14.9987V13.3332Z" fill="white"/>
</svg>
