<svg width="35" height="35" viewBox="0 0 35 35" fill="none" xmlns="http://www.w3.org/2000/svg">
<path d="M18.9974 2.91812C20.0616 2.91403 21.1258 2.92473 22.1897 2.9502L22.4726 2.96041C22.7993 2.97207 23.1216 2.98666 23.5109 3.00416C25.0626 3.07707 26.1214 3.32207 27.0503 3.68228C28.0128 4.0527 28.8237 4.55437 29.6345 5.3652C30.3759 6.09379 30.9497 6.97512 31.3159 7.94791C31.6762 8.87687 31.9212 9.93707 31.9941 11.4887C32.0116 11.8767 32.0262 12.2004 32.0378 12.5271L32.0466 12.81C32.0725 13.8734 32.0837 14.9371 32.0801 16.0008L32.0816 17.0887V18.9992C32.0852 20.0634 32.074 21.1276 32.048 22.1915L32.0393 22.4744C32.0276 22.801 32.013 23.1233 31.9955 23.5127C31.9226 25.0644 31.6747 26.1231 31.3159 27.0521C30.9509 28.0259 30.3769 28.9079 29.6345 29.6362C28.9053 30.3775 28.0235 30.9513 27.0503 31.3177C26.1214 31.6779 25.0626 31.9229 23.5109 31.9958C23.1216 32.0133 22.7993 32.0279 22.4726 32.0396L22.1897 32.0483C21.1258 32.0742 20.0616 32.0854 18.9974 32.0819L17.9095 32.0833H16.0005C14.9363 32.0869 13.8721 32.0757 12.8082 32.0498L12.5253 32.041C12.1791 32.0285 11.833 32.0139 11.487 31.9973C9.93532 31.9244 8.87657 31.6765 7.94615 31.3177C6.97298 30.9522 6.0915 30.3783 5.36345 29.6362C4.62122 28.9075 4.0469 28.0256 3.68053 27.0521C3.32032 26.1231 3.07532 25.0644 3.0024 23.5127C2.98616 23.1667 2.97158 22.8205 2.95865 22.4744L2.95136 22.1915C2.92448 21.1276 2.91232 20.0634 2.9149 18.9992V16.0008C2.91083 14.9371 2.92153 13.8734 2.94699 12.81L2.9572 12.5271C2.96886 12.2004 2.98345 11.8767 3.00095 11.4887C3.07386 9.93561 3.31886 8.87832 3.67907 7.94791C4.04566 6.97464 4.6211 6.09356 5.3649 5.36666C6.09246 4.624 6.97339 4.04916 7.94615 3.68228C8.87657 3.32207 9.93386 3.07707 11.487 3.00416L12.5253 2.96041L12.8082 2.95312C13.8716 2.92624 14.9353 2.91409 15.9991 2.91666L18.9974 2.91812ZM17.4982 10.2098C16.5321 10.1961 15.5729 10.3746 14.6763 10.7349C13.7798 11.0952 12.9638 11.63 12.2757 12.3084C11.5877 12.9868 11.0413 13.7951 10.6684 14.6865C10.2955 15.5779 10.1035 16.5345 10.1035 17.5007C10.1035 18.467 10.2955 19.4236 10.6684 20.3149C11.0413 21.2063 11.5877 22.0147 12.2757 22.693C12.9638 23.3714 13.7798 23.9063 14.6763 24.2666C15.5729 24.6268 16.5321 24.8053 17.4982 24.7917C19.4321 24.7917 21.2868 24.0234 22.6542 22.656C24.0217 21.2885 24.7899 19.4339 24.7899 17.5C24.7899 15.5661 24.0217 13.7115 22.6542 12.344C21.2868 10.9766 19.4321 10.2098 17.4982 10.2098ZM17.4982 13.1264C18.0794 13.1157 18.6569 13.2209 19.1969 13.4359C19.7369 13.6509 20.2287 13.9713 20.6435 14.3785C21.0584 14.7857 21.3879 15.2714 21.6128 15.8074C21.8378 16.3433 21.9537 16.9187 21.9538 17.5C21.9539 18.0812 21.8382 18.6567 21.6134 19.1927C21.3886 19.7287 21.0593 20.2146 20.6446 20.6219C20.2299 21.0292 19.7382 21.3498 19.1983 21.565C18.6583 21.7801 18.0809 21.8855 17.4997 21.875C16.3394 21.875 15.2266 21.4141 14.4061 20.5936C13.5856 19.7731 13.1247 18.6603 13.1247 17.5C13.1247 16.3397 13.5856 15.2269 14.4061 14.4064C15.2266 13.5859 16.3394 13.125 17.4997 13.125L17.4982 13.1264ZM25.1545 8.02228C24.684 8.04111 24.2391 8.24125 23.9129 8.58078C23.5867 8.92031 23.4045 9.37289 23.4045 9.84374C23.4045 10.3146 23.5867 10.7672 23.9129 11.1067C24.2391 11.4462 24.684 11.6464 25.1545 11.6652C25.638 11.6652 26.1016 11.4731 26.4435 11.1313C26.7854 10.7894 26.9774 10.3257 26.9774 9.84228C26.9774 9.35881 26.7854 8.89515 26.4435 8.55329C26.1016 8.21142 25.638 8.01937 25.1545 8.01937V8.02228Z" fill="white"/>
</svg>
