<svg width="90" height="14" viewBox="0 0 90 14" fill="none" xmlns="http://www.w3.org/2000/svg">
<path d="M7.00166 10.6604L4.58082 12.1187C4.47388 12.1868 4.36207 12.216 4.24541 12.2062C4.12874 12.1965 4.02666 12.1576 3.93916 12.0896C3.85166 12.0215 3.7836 11.9364 3.73499 11.8341C3.68638 11.7318 3.67666 11.6177 3.70582 11.4917L4.34749 8.73541L2.20374 6.88333C2.10652 6.79583 2.04585 6.69608 2.02174 6.58408C1.99763 6.47208 2.00482 6.3628 2.04332 6.25625C2.08221 6.1493 2.14055 6.0618 2.21832 5.99375C2.2961 5.92569 2.40305 5.88194 2.53916 5.8625L5.36832 5.61458L6.46207 3.01875C6.51068 2.90208 6.58613 2.81458 6.68841 2.75625C6.79068 2.69791 6.8951 2.66875 7.00166 2.66875C7.1086 2.66875 7.21302 2.69791 7.31491 2.75625C7.4168 2.81458 7.49224 2.90208 7.54124 3.01875L8.63499 5.61458L11.4642 5.8625C11.6003 5.88194 11.7072 5.92569 11.785 5.99375C11.8628 6.0618 11.9211 6.1493 11.96 6.25625C11.9989 6.36319 12.0063 6.47266 11.9822 6.58466C11.958 6.69666 11.8972 6.79622 11.7996 6.88333L9.65582 8.73541L10.2975 11.4917C10.3267 11.6181 10.3169 11.7324 10.2683 11.8347C10.2197 11.9369 10.1517 12.0219 10.0642 12.0896C9.97666 12.1576 9.87457 12.1965 9.75791 12.2062C9.64124 12.216 9.52943 12.1868 9.42249 12.1187L7.00166 10.6604Z" fill="white"/>
</svg>
