<svg width="20" height="20" viewBox="0 0 20 20" fill="none" xmlns="http://www.w3.org/2000/svg">
<path d="M10.0013 1.66699C5.4063 1.66699 1.66797 5.40533 1.66797 10.0003C1.66797 14.5953 5.4063 18.3337 10.0013 18.3337C14.5963 18.3337 18.3346 14.5953 18.3346 10.0003C18.3346 5.40533 14.5963 1.66699 10.0013 1.66699ZM3.33464 10.0003C3.33464 9.25116 3.46464 8.53199 3.6938 7.85949L5.0013 9.16699L6.66797 10.8337V12.5003L8.33464 14.167L9.16797 15.0003V16.6095C5.88547 16.197 3.33464 13.3937 3.33464 10.0003ZM15.2763 14.0612C14.7321 13.6228 13.9071 13.3337 13.3346 13.3337V12.5003C13.3346 12.0583 13.159 11.6344 12.8465 11.3218C12.5339 11.0093 12.11 10.8337 11.668 10.8337H8.33464V8.33366C8.77666 8.33366 9.20059 8.15806 9.51315 7.8455C9.82571 7.53294 10.0013 7.10902 10.0013 6.66699V5.83366H10.8346C11.2767 5.83366 11.7006 5.65806 12.0131 5.3455C12.3257 5.03294 12.5013 4.60902 12.5013 4.16699V3.82449C14.9413 4.81533 16.668 7.20866 16.668 10.0003C16.6678 11.4709 16.1782 12.8996 15.2763 14.0612Z" fill="white"/>
</svg>
