<svg width="18" height="19" viewBox="0 0 18 19" fill="none" xmlns="http://www.w3.org/2000/svg">
<path d="M0.758893 0.758893H2.22609C3.13676 0.758893 3.85349 1.54308 3.7776 2.44532L3.07773 10.8437C2.95968 12.2182 4.04743 13.3987 5.4303 13.3987H14.4105C15.6248 13.3987 16.6872 12.4037 16.78 11.1979L17.2353 4.87379C17.3365 3.47405 16.274 2.3357 14.8659 2.3357H3.97998" stroke="white" stroke-width="1.5" stroke-miterlimit="10" stroke-linecap="round" stroke-linejoin="round"/>
<path d="M12.7773 17.6229C13.3595 17.6229 13.8314 17.151 13.8314 16.5688C13.8314 15.9867 13.3595 15.5148 12.7773 15.5148C12.1952 15.5148 11.7233 15.9867 11.7233 16.5688C11.7233 17.151 12.1952 17.6229 12.7773 17.6229Z" stroke="white" stroke-width="1.5" stroke-miterlimit="10" stroke-linecap="round" stroke-linejoin="round"/>
<path d="M6.03426 17.6229C6.61637 17.6229 7.08827 17.151 7.08827 16.5688C7.08827 15.9867 6.61637 15.5148 6.03426 15.5148C5.45214 15.5148 4.98024 15.9867 4.98024 16.5688C4.98024 17.151 5.45214 17.6229 6.03426 17.6229Z" stroke="white" stroke-width="1.5" stroke-miterlimit="10" stroke-linecap="round" stroke-linejoin="round"/>
</svg>
