<svg width="150" height="60" viewBox="0 0 150 60" fill="none" xmlns="http://www.w3.org/2000/svg">
<g filter="url(#filter0_b_1_110609)">
<circle cx="30" cy="30" r="30" fill="white" fill-opacity="0.1"/>
</g>
<path d="M40 46.6654C38.6111 46.6654 37.4306 46.1793 36.4583 45.207C35.4861 44.2348 35 43.0543 35 41.6654C35 41.4709 35.0139 41.2693 35.0417 41.0604C35.0694 40.8515 35.1111 40.6643 35.1667 40.4987L23.4167 33.6654C22.9444 34.082 22.4167 34.4087 21.8333 34.6454C21.25 34.882 20.6389 34.9998 20 34.9987C18.6111 34.9987 17.4306 34.5126 16.4583 33.5404C15.4861 32.5681 15 31.3876 15 29.9987C15 28.6098 15.4861 27.4293 16.4583 26.457C17.4306 25.4848 18.6111 24.9987 20 24.9987C20.6389 24.9987 21.25 25.117 21.8333 25.3537C22.4167 25.5904 22.9444 25.9165 23.4167 26.332L35.1667 19.4987C35.1111 19.332 35.0694 19.1448 35.0417 18.937C35.0139 18.7293 35 18.5276 35 18.332C35 16.9431 35.4861 15.7626 36.4583 14.7904C37.4306 13.8181 38.6111 13.332 40 13.332C41.3889 13.332 42.5694 13.8181 43.5417 14.7904C44.5139 15.7626 45 16.9431 45 18.332C45 19.7209 44.5139 20.9015 43.5417 21.8737C42.5694 22.8459 41.3889 23.332 40 23.332C39.3611 23.332 38.75 23.2143 38.1667 22.9787C37.5833 22.7431 37.0556 22.4165 36.5833 21.9987L24.8333 28.832C24.8889 28.9987 24.9306 29.1865 24.9583 29.3954C24.9861 29.6043 25 29.8054 25 29.9987C25 30.1931 24.9861 30.3948 24.9583 30.6037C24.9306 30.8126 24.8889 30.9998 24.8333 31.1654L36.5833 37.9987C37.0556 37.582 37.5833 37.2559 38.1667 37.0204C38.75 36.7848 39.3611 36.6665 40 36.6654C41.3889 36.6654 42.5694 37.1515 43.5417 38.1237C44.5139 39.0959 45 40.2765 45 41.6654C45 43.0543 44.5139 44.2348 43.5417 45.207C42.5694 46.1793 41.3889 46.6654 40 46.6654Z" fill="white"/>
<circle cx="120" cy="30" r="30" fill="#9F4DEB"/>
<path d="M111.667 30.0013C111.667 30.8854 111.315 31.7332 110.69 32.3583C110.065 32.9834 109.217 33.3346 108.333 33.3346C107.449 33.3346 106.601 32.9834 105.976 32.3583C105.351 31.7332 105 30.8854 105 30.0013C105 29.1172 105.351 28.2694 105.976 27.6443C106.601 27.0192 107.449 26.668 108.333 26.668C109.217 26.668 110.065 27.0192 110.69 27.6443C111.315 28.2694 111.667 29.1172 111.667 30.0013ZM123.333 30.0013C123.333 30.8854 122.982 31.7332 122.357 32.3583C121.732 32.9834 120.884 33.3346 120 33.3346C119.116 33.3346 118.268 32.9834 117.643 32.3583C117.018 31.7332 116.667 30.8854 116.667 30.0013C116.667 29.1172 117.018 28.2694 117.643 27.6443C118.268 27.0192 119.116 26.668 120 26.668C120.884 26.668 121.732 27.0192 122.357 27.6443C122.982 28.2694 123.333 29.1172 123.333 30.0013ZM135 30.0013C135 30.8854 134.649 31.7332 134.024 32.3583C133.399 32.9834 132.551 33.3346 131.667 33.3346C130.783 33.3346 129.935 32.9834 129.31 32.3583C128.685 31.7332 128.333 30.8854 128.333 30.0013C128.333 29.1172 128.685 28.2694 129.31 27.6443C129.935 27.0192 130.783 26.668 131.667 26.668C132.551 26.668 133.399 27.0192 134.024 27.6443C134.649 28.2694 135 29.1172 135 30.0013Z" fill="white"/>
<defs>
<filter id="filter0_b_1_110609" x="-200" y="-200" width="460" height="460" filterUnits="userSpaceOnUse" color-interpolation-filters="sRGB">
<feFlood flood-opacity="0" result="BackgroundImageFix"/>
<feGaussianBlur in="BackgroundImageFix" stdDeviation="100"/>
<feComposite in2="SourceAlpha" operator="in" result="effect1_backgroundBlur_1_110609"/>
<feBlend mode="normal" in="SourceGraphic" in2="effect1_backgroundBlur_1_110609" result="shape"/>
</filter>
</defs>
</svg>
