<svg width="452" height="132" viewBox="0 0 452 132" fill="none" xmlns="http://www.w3.org/2000/svg">
<path d="M0.572421 74.2275L29.718 39.7902C30.9541 38.3297 33.2231 38.3835 34.3885 39.9011L103.641 130.077C104.75 131.52 106.878 131.652 108.156 130.357L142.165 95.9145C142.417 95.6596 142.621 95.3617 142.767 95.0349L167.549 39.8189C168.25 38.2566 170.115 37.5969 171.643 38.3705L198.529 51.9856C199.646 52.5511 200.997 52.364 201.918 51.5161L256.195 1.5434C257.343 0.485812 259.111 0.485811 260.26 1.5434L314.704 51.6698C315.54 52.4397 316.739 52.671 317.802 52.2675L355.723 37.8656C357.11 37.3389 358.673 37.9044 359.402 39.1963L377.213 70.7636C378.193 72.4997 380.561 72.8158 381.962 71.3974L397.739 55.4191C399.032 54.1089 401.19 54.262 402.286 55.7416L413.721 71.1829C414.872 72.7379 417.173 72.8127 418.423 71.3357L447.525 36.9498" stroke="white" stroke-width="1.5"/>
<circle cx="446.186" cy="39.5422" r="5.00136" fill="white"/>
</svg>
