<svg width="35" height="35" viewBox="0 0 35 35" fill="none" xmlns="http://www.w3.org/2000/svg">
<path d="M17.4987 17.4998C18.3008 17.4998 18.9877 17.214 19.5593 16.6423C20.131 16.0707 20.4163 15.3843 20.4154 14.5832C20.4154 13.7811 20.1295 13.0942 19.5579 12.5225C18.9862 11.9509 18.2998 11.6655 17.4987 11.6665C16.6966 11.6665 16.0097 11.9523 15.4381 12.524C14.8664 13.0957 14.5811 13.7821 14.582 14.5832C14.582 15.3853 14.8679 16.0721 15.4395 16.6438C16.0112 17.2155 16.6976 17.5008 17.4987 17.4998ZM17.4987 32.0832C13.5855 28.7533 10.663 25.6607 8.7312 22.8053C6.79939 19.9498 5.833 17.3064 5.83203 14.8748C5.83203 11.229 7.00502 8.32449 9.35099 6.1613C11.697 3.9981 14.4129 2.9165 17.4987 2.9165C20.5855 2.9165 23.3019 3.9981 25.6479 6.1613C27.9938 8.32449 29.1663 11.229 29.1654 14.8748C29.1654 17.3054 28.199 19.9489 26.2662 22.8053C24.3334 25.6616 21.4109 28.7543 17.4987 32.0832Z" fill="#05011D"/>
</svg>
