<svg width="14" height="11" viewBox="0 0 14 11" fill="none" xmlns="http://www.w3.org/2000/svg">
<path d="M4.48879 7.75336L11.8969 0.345291C12.1271 0.115097 12.42 0 12.7758 0C13.1315 0 13.4245 0.115097 13.6547 0.345291C13.8849 0.575485 14 0.86846 14 1.22421C14 1.57997 13.8849 1.87294 13.6547 2.10314L5.36771 10.3901C5.11659 10.6413 4.82362 10.7668 4.48879 10.7668C4.15396 10.7668 3.86099 10.6413 3.60987 10.3901L0.345291 7.12556C0.115097 6.89537 0 6.60239 0 6.24664C0 5.89088 0.115097 5.59791 0.345291 5.36771C0.575485 5.13752 0.86846 5.02242 1.22422 5.02242C1.57997 5.02242 1.87294 5.13752 2.10314 5.36771L4.48879 7.75336Z" fill="white"/>
</svg>
