<svg width="22" height="22" viewBox="0 0 22 22" fill="none" xmlns="http://www.w3.org/2000/svg">
<path d="M11.0013 5.95833C12.6868 5.95273 14.3397 6.42288 15.7699 7.31475C17.2001 8.20661 18.3497 9.48398 19.0863 11C17.5738 14.0892 14.4846 16.0417 11.0013 16.0417C7.51797 16.0417 4.4288 14.0892 2.9163 11C3.65295 9.48398 4.80247 8.20661 6.23269 7.31475C7.66292 6.42288 9.31579 5.95273 11.0013 5.95833ZM11.0013 4.125C6.41797 4.125 2.5038 6.97583 0.917969 11C2.5038 15.0242 6.41797 17.875 11.0013 17.875C15.5846 17.875 19.4988 15.0242 21.0846 11C19.4988 6.97583 15.5846 4.125 11.0013 4.125ZM11.0013 8.70833C11.6091 8.70833 12.192 8.94978 12.6218 9.37955C13.0515 9.80932 13.293 10.3922 13.293 11C13.293 11.6078 13.0515 12.1907 12.6218 12.6205C12.192 13.0502 11.6091 13.2917 11.0013 13.2917C10.3935 13.2917 9.81062 13.0502 9.38085 12.6205C8.95108 12.1907 8.70964 11.6078 8.70964 11C8.70964 10.3922 8.95108 9.80932 9.38085 9.37955C9.81062 8.94978 10.3935 8.70833 11.0013 8.70833ZM11.0013 6.875C8.72797 6.875 6.8763 8.72667 6.8763 11C6.8763 13.2733 8.72797 15.125 11.0013 15.125C13.2746 15.125 15.1263 13.2733 15.1263 11C15.1263 8.72667 13.2746 6.875 11.0013 6.875Z" fill="#9F4DEB"/>
</svg>
