<svg width="452" height="96" viewBox="0 0 452 96" fill="none" xmlns="http://www.w3.org/2000/svg">
<path d="M0.57278 39.7542L31.277 3.47539C31.8475 2.80128 32.6858 2.41251 33.569 2.41251H85.4025C86.8472 2.41251 88.0871 3.44132 88.3537 4.86123L104.86 92.7972C105.308 95.1787 108.246 96.0772 109.948 94.353L142.409 61.4781C142.661 61.223 142.865 60.9249 143.012 60.5979L167.257 6.5781C168.14 4.60852 170.752 4.18747 172.21 5.77942L213.051 50.3666C214.102 51.5132 215.854 51.6683 217.089 50.7241L258.554 19.0338C259.077 18.6336 259.718 18.4168 260.377 18.4168L315.513 18.4161C316.222 18.4161 316.907 18.6665 317.449 19.1231L339.775 37.9466C340.982 38.9643 342.771 38.8734 343.869 37.7385L361.674 19.3312C362.24 18.7463 363.018 18.4161 363.832 18.4161H399.374C400.326 18.4161 401.221 18.8671 401.787 19.6318L414.433 36.7078C415.585 38.2637 417.887 38.3385 419.138 36.8606L448.293 2.41251" stroke="white" stroke-width="1.5"/>
<circle cx="446.705" cy="4.76298" r="4.76298" fill="white"/>
</svg>
