<svg width="35" height="35" viewBox="0 0 35 35" fill="none" xmlns="http://www.w3.org/2000/svg">
<path d="M14.5846 21.875L22.1534 17.5L14.5846 13.125V21.875ZM31.443 10.4562C31.6325 11.1416 31.7638 12.0604 31.8513 13.227C31.9534 14.3937 31.9971 15.4 31.9971 16.275L32.0846 17.5C32.0846 20.6937 31.8513 23.0416 31.443 24.5437C31.0784 25.8562 30.2325 26.702 28.92 27.0666C28.2346 27.2562 26.9805 27.3875 25.0555 27.475C23.1596 27.577 21.4242 27.6208 19.8201 27.6208L17.5013 27.7083C11.3909 27.7083 7.58464 27.475 6.08255 27.0666C4.77005 26.702 3.92422 25.8562 3.55964 24.5437C3.37005 23.8583 3.2388 22.9395 3.1513 21.7729C3.04922 20.6062 3.00547 19.6 3.00547 18.725L2.91797 17.5C2.91797 14.3062 3.1513 11.9583 3.55964 10.4562C3.92422 9.14371 4.77005 8.29788 6.08255 7.93329C6.76797 7.74371 8.02214 7.61246 9.94714 7.52496C11.843 7.42288 13.5784 7.37913 15.1826 7.37913L17.5013 7.29163C23.6117 7.29163 27.418 7.52496 28.92 7.93329C30.2325 8.29788 31.0784 9.14371 31.443 10.4562Z" fill="white"/>
</svg>
