<svg width="40" height="40" viewBox="0 0 40 40" fill="none" xmlns="http://www.w3.org/2000/svg">
<path d="M31.1987 24.5998C31.782 23.1832 32.0987 21.6665 32.0987 19.9998C32.0987 18.7998 31.9154 17.6498 31.5987 16.5832C30.5154 16.8332 29.382 16.9665 28.1987 16.9665C25.7753 16.9691 23.3868 16.389 21.2346 15.2752C19.0823 14.1614 17.2294 12.5464 15.832 10.5665C14.3372 14.1835 11.5172 17.0928 7.9487 18.6998C7.88203 19.1165 7.88203 19.5665 7.88203 19.9998C7.88203 21.591 8.19544 23.1666 8.80436 24.6367C9.41328 26.1067 10.3058 27.4425 11.4309 28.5676C13.7032 30.8399 16.7852 32.1165 19.9987 32.1165C21.7487 32.1165 23.432 31.7332 24.9487 31.0498C25.8987 32.8665 26.332 33.7665 26.2987 33.7665C23.5654 34.6832 21.4487 35.1332 19.9987 35.1332C15.9654 35.1332 12.1154 33.5498 9.28203 30.6998C7.55869 28.9818 6.27765 26.8715 5.5487 24.5498H3.33203V16.9665H5.1487C5.6991 14.2874 6.96452 11.8072 8.81068 9.78915C10.6568 7.77112 13.0149 6.29051 15.6346 5.50443C18.2543 4.71835 21.0379 4.65612 23.6901 5.32434C26.3424 5.99257 28.7642 7.36632 30.6987 9.29983C32.7991 11.3919 34.2317 14.06 34.8154 16.9665H36.6654V24.5498H36.5654L30.632 29.9998L21.7987 28.9998V26.2165H29.8487L31.1987 24.5998ZM15.4487 19.6165C15.9487 19.6165 16.432 19.8165 16.782 20.1832C17.1338 20.5378 17.3311 21.017 17.3311 21.5165C17.3311 22.016 17.1338 22.4952 16.782 22.8498C16.432 23.1998 15.9487 23.3998 15.4487 23.3998C14.3987 23.3998 13.5487 22.5665 13.5487 21.5165C13.5487 20.4665 14.3987 19.6165 15.4487 19.6165ZM24.532 19.6165C25.582 19.6165 26.4154 20.4665 26.4154 21.5165C26.4154 22.5665 25.582 23.3998 24.532 23.3998C23.482 23.3998 22.632 22.5665 22.632 21.5165C22.632 21.0126 22.8322 20.5293 23.1885 20.173C23.5448 19.8167 24.0281 19.6165 24.532 19.6165Z" fill="#05011D"/>
</svg>
