<svg width="17" height="17" viewBox="0 0 17 17" fill="none" xmlns="http://www.w3.org/2000/svg">
<path d="M16.5152 11.3339C15.9287 12.9908 14.843 14.4251 13.4077 15.4396C11.9724 16.4541 10.2579 16.9987 8.50031 16.9987C4.80055 16.9987 1.65239 14.6342 0.485435 11.3339C2.89465 12.8191 5.6701 13.6034 8.50031 13.5989C11.4394 13.5989 14.1847 12.7703 16.5152 11.3339ZM16.2568 5.01886C16.8074 6.24441 17.0586 7.58338 16.9894 8.92515C14.5812 10.8547 11.5862 11.904 8.50031 11.8991C5.28926 11.8991 2.33829 10.7857 0.0111724 8.9243C-0.0578003 7.58281 0.193326 6.24415 0.743815 5.01886C2.96764 6.72866 5.69518 7.65368 8.50031 7.6494C11.419 7.6494 14.1082 6.66858 16.2568 5.01886ZM8.50031 2.72464e-06C9.84791 -0.000869285 11.1764 0.319031 12.3759 0.933256C13.5753 1.54748 14.6114 2.43839 15.3984 3.53233C13.4417 5.10061 11.0079 5.95344 8.50031 5.94954C5.89101 5.94954 3.4925 5.04521 1.60225 3.53233C2.38908 2.43824 3.42511 1.54722 4.62462 0.932975C5.82414 0.318733 7.15267 -0.00107695 8.50031 2.72464e-06Z" fill="#05011D"/>
</svg>
