<svg width="7" height="5" viewBox="0 0 7 5" fill="none" xmlns="http://www.w3.org/2000/svg">
<mask id="mask0_1_106619" style="mask-type:alpha" maskUnits="userSpaceOnUse" x="0" y="-2" width="8" height="8">
<rect y="-1.94059" width="7.76238" height="7.76238" fill="#D9D9D9"/>
</mask>
<g mask="url(#mask0_1_106619)">
<path d="M2.81942 4.17228L0.296644 1.6495C-0.0106168 1.34224 -0.0791844 0.990673 0.0909411 0.594792C0.261066 0.198911 0.564123 0.000646865 1.00011 0H5.99714C6.43377 0 6.73715 0.198264 6.90728 0.594792C7.0774 0.99132 7.00851 1.34289 6.7006 1.6495L4.17783 4.17228C4.0808 4.26931 3.97569 4.34208 3.86249 4.39059C3.74928 4.43911 3.628 4.46337 3.49862 4.46337C3.36925 4.46337 3.24796 4.43911 3.13476 4.39059C3.02156 4.34208 2.91645 4.26931 2.81942 4.17228Z" fill="white"/>
</g>
</svg>
