<svg width="20" height="20" viewBox="0 0 20 20" fill="none" xmlns="http://www.w3.org/2000/svg">
<path d="M16.9536 14.2969H15.5805C15.4868 14.2969 15.3989 14.3379 15.3403 14.4102C15.2036 14.5762 15.0571 14.7364 14.9028 14.8887C14.2717 15.5204 13.5242 16.0238 12.7016 16.3711C11.8494 16.7311 10.9334 16.9157 10.0082 16.9141C9.0727 16.9141 8.16645 16.7305 7.31489 16.3711C6.49229 16.0238 5.74478 15.5204 5.11372 14.8887C4.48152 14.2591 3.97742 13.5129 3.62934 12.6914C3.26801 11.8399 3.08637 10.9356 3.08637 10C3.08637 9.06448 3.26997 8.16019 3.62934 7.30862C3.977 6.48636 4.477 5.74612 5.11372 5.11136C5.75043 4.47659 6.49067 3.97659 7.31489 3.62894C8.16645 3.26956 9.0727 3.08597 10.0082 3.08597C10.9438 3.08597 11.85 3.26761 12.7016 3.62894C13.5258 3.97659 14.2661 4.47659 14.9028 5.11136C15.0571 5.26565 15.2016 5.42581 15.3403 5.58987C15.3989 5.66214 15.4887 5.70315 15.5805 5.70315H16.9536C17.0766 5.70315 17.1528 5.56644 17.0844 5.46292C15.5864 3.1348 12.9653 1.59378 9.98676 1.60159C5.30707 1.61331 1.55512 5.41214 1.602 10.086C1.64887 14.6856 5.39497 18.3985 10.0082 18.3985C12.979 18.3985 15.5883 16.8594 17.0844 14.5371C17.1508 14.4336 17.0766 14.2969 16.9536 14.2969ZM18.6899 9.87698L15.9184 7.68948C15.8149 7.60745 15.6645 7.68167 15.6645 7.81253V9.2969H9.53168C9.44575 9.2969 9.37543 9.36722 9.37543 9.45315V10.5469C9.37543 10.6328 9.44575 10.7032 9.53168 10.7032H15.6645V12.1875C15.6645 12.3184 15.8168 12.3926 15.9184 12.3106L18.6899 10.1231C18.7086 10.1085 18.7237 10.0898 18.7341 10.0685C18.7444 10.0471 18.7498 10.0237 18.7498 10C18.7498 9.97632 18.7444 9.95291 18.7341 9.93159C18.7237 9.91027 18.7086 9.8916 18.6899 9.87698Z" fill="white"/>
</svg>
