<svg width="490" height="292" viewBox="0 0 490 292" fill="none" xmlns="http://www.w3.org/2000/svg">
<path fill-rule="evenodd" clip-rule="evenodd" d="M295 50C295 22.3858 272.614 0 245 0C217.386 0 195 22.3858 195 50H15C6.71573 50 0 56.7157 0 65V277C0 285.284 6.71572 292 15 292H475C483.284 292 490 285.284 490 277V65C490 56.7157 483.284 50 475 50H295Z" fill="white" fill-opacity="0.1"/>
<g clip-path="url(#clip0_1_103824)">
<path d="M245 80C261.569 80 275 66.5685 275 50C275 33.4315 261.569 20 245 20C228.431 20 215 33.4315 215 50C215 66.5685 228.431 80 245 80Z" fill="#0052FF"/>
<path d="M245.252 41.201C248.784 41.201 251.586 43.3795 252.65 46.6191H259.766C258.477 39.6928 252.762 35 245.309 35C236.845 35 230.234 41.4248 230.234 50.0287C230.234 58.6326 236.68 65 245.309 65C252.595 65 258.423 60.3072 259.713 53.3234H252.649C251.64 56.5637 248.841 58.799 245.306 58.799C240.43 58.799 237.012 55.0555 237.012 50.0287C237.014 44.9445 240.377 41.201 245.252 41.201Z" fill="white"/>
</g>
<defs>
<clipPath id="clip0_1_103824">
<rect width="60" height="60" fill="white" transform="translate(215 20)"/>
</clipPath>
</defs>
</svg>
