<svg width="11" height="7" viewBox="0 0 11 7" fill="none" xmlns="http://www.w3.org/2000/svg">
<mask id="mask0_1_101011" style="mask-type:alpha" maskUnits="userSpaceOnUse" x="0" y="-3" width="13" height="14">
<rect width="12" height="12" transform="matrix(1.01449 0 0 -1.01449 0 10.0435)" fill="#D9D9D9"/>
</mask>
<g mask="url(#mask0_1_101011)">
<path d="M4.42176 0.456515L0.465234 4.41304C-0.0166506 4.89493 -0.124187 5.4463 0.142625 6.06717C0.409437 6.68804 0.884728 6.99899 1.5685 7H9.40546C10.0902 7 10.566 6.68906 10.8329 6.06717C11.0997 5.44529 10.9916 4.89391 10.5087 4.41304L6.5522 0.456515C6.40002 0.304341 6.23517 0.190211 6.05763 0.114124C5.88009 0.0380371 5.68988 -7.25622e-06 5.48698 -7.25622e-06C5.28408 -7.25622e-06 5.09386 0.0380371 4.91632 0.114124C4.73879 0.190211 4.57393 0.304341 4.42176 0.456515Z" fill="black"/>
</g>
</svg>
