<svg width="28" height="28" viewBox="0 0 28 28" fill="none" xmlns="http://www.w3.org/2000/svg">
<g clip-path="url(#clip0_1_109349)">
<path d="M27.3505 0L15.3359 9.48255L17.5701 3.89422L27.3505 0Z" fill="#E17726"/>
<path d="M0.676109 0.0107422L10.4303 3.89446L12.5517 9.55606L0.676109 0.0107422ZM22.5149 20.1663L27.8252 20.2741L25.9693 26.999L19.4896 25.0961L22.5149 20.1663ZM5.48292 20.1663L8.49697 25.0961L2.0282 26.9991L0.183594 20.2741L5.48292 20.1663Z" fill="#E27625"/>
<path d="M12.265 8.11467L12.482 15.591L5.98828 15.2759L7.83541 12.3035L7.85881 12.2749L12.265 8.11467ZM15.6691 8.03125L20.1425 12.2751L20.1657 12.3036L22.0128 15.276L15.5205 15.591L15.6691 8.03125ZM8.68886 20.1887L12.2346 23.1356L8.11573 25.2567L8.68886 20.1887ZM19.3131 20.1883L19.8743 25.2569L15.767 23.1354L19.3131 20.1883Z" fill="#E27625"/>
<path d="M15.8581 22.8574L20.0261 25.0102L16.149 26.9755L16.1893 25.6766L15.8581 22.8574ZM12.143 22.8584L11.8248 25.6553L11.8509 26.974L7.96484 25.0102L12.143 22.8584Z" fill="#D5BFB2"/>
<path d="M10.9393 16.5664L12.0285 19.008L8.32031 17.8493L10.9393 16.5664ZM17.0627 16.5666L19.694 17.8493L15.9737 19.0077L17.0627 16.5666Z" fill="#233447"/>
<path d="M8.9722 20.1635L8.37283 25.4182L5.16016 20.2785L8.9722 20.1635ZM19.0292 20.1636L22.8414 20.2785L19.6167 25.4184L19.0292 20.1636ZM22.1066 14.9785L19.3323 17.9945L17.1933 16.9518L16.1692 19.2483L15.4978 15.2992L22.1066 14.9785ZM5.89319 14.9785L12.5033 15.2992L11.8318 19.2483L10.8075 16.9522L8.67984 17.9946L5.89319 14.9785Z" fill="#CC6228"/>
<path d="M5.70703 14.3596L8.84587 17.757L8.95459 21.1111L5.70703 14.3596ZM22.2989 14.3535L19.0454 21.117L19.1679 17.757L22.2989 14.3535ZM12.3506 14.5665L12.4769 15.4147L12.7891 17.5277L12.5884 24.0173L11.6395 18.804L11.6392 18.7501L12.3506 14.5665ZM15.6505 14.5548L16.3638 18.7501L16.3634 18.804L15.4122 24.0303L15.3746 22.7231L15.2262 17.4892L15.6505 14.5548Z" fill="#E27525"/>
<path d="M19.446 17.6221L19.3398 20.5362L16.0286 23.288L15.3593 22.7835L16.1096 18.6611L19.446 17.6221ZM8.56641 17.6221L11.8913 18.6611L12.6416 22.7835L11.9722 23.288L8.66091 20.5359L8.56641 17.6221Z" fill="#F5841F"/>
<path d="M7.33203 24.3662L11.5683 26.5073L11.5504 25.593L11.9049 25.261H16.0977L16.465 25.5918L16.4378 26.5054L20.6473 24.3716L18.599 26.1771L16.1222 27.9916H11.8709L9.39572 26.1696L7.33203 24.3662Z" fill="#C0AC9D"/>
<path d="M15.5537 22.5732L16.1526 23.0246L16.5036 26.0118L15.9957 25.5543H12.0061L11.5078 26.021L11.8473 23.0249L12.4465 22.5732H15.5537Z" fill="#161616"/>
<path d="M26.5578 0.262695L28 4.87768L27.0993 9.544L27.7407 10.0717L26.8728 10.778L27.5251 11.3153L26.6614 12.1543L27.1916 12.5639L25.7844 14.3169L20.0127 12.5244L19.9627 12.4958L15.8035 8.75335L26.5578 0.262695ZM1.44222 0.262695L12.1966 8.75335L8.03731 12.4958L7.98733 12.5244L2.21561 14.3169L0.808391 12.5639L1.3382 12.1546L0.475016 11.3153L1.12602 10.7786L0.245109 10.0703L0.910656 9.54225L0 4.87791L1.44222 0.262695Z" fill="#763E1A"/>
<path d="M19.7317 12.1324L25.8472 14.0316L27.834 20.5633H22.5923L18.9807 20.6118L21.6072 15.1509L19.7317 12.1324ZM8.27092 12.1324L6.39503 15.1509L9.02189 20.6118L5.41197 20.5633H0.179688L2.15533 14.0317L8.27092 12.1324ZM17.8714 3.86328L16.1609 8.79116L15.7979 15.4482L15.659 17.5347L15.6479 22.865H12.3545L12.3438 17.5448L12.2045 15.4464L11.8414 8.79116L10.1311 3.86328H17.8714Z" fill="#F5841F"/>
</g>
<defs>
<clipPath id="clip0_1_109349">
<rect width="28" height="28" fill="white"/>
</clipPath>
</defs>
</svg>
