<svg width="20" height="20" viewBox="0 0 20 20" fill="none" xmlns="http://www.w3.org/2000/svg">
<path d="M12.0833 19.167C11.7361 19.167 11.4408 19.0453 11.1975 18.802C10.9542 18.5587 10.8328 18.2637 10.8333 17.917V12.0837C10.8333 11.7364 10.955 11.4412 11.1983 11.1978C11.4417 10.9545 11.7367 10.8331 12.0833 10.8337H17.9167C18.2639 10.8337 18.5592 10.9553 18.8025 11.1987C19.0458 11.442 19.1672 11.737 19.1667 12.0837V17.917C19.1667 18.2642 19.045 18.5595 18.8017 18.8028C18.5583 19.0462 18.2633 19.1675 17.9167 19.167H12.0833ZM12.0833 17.917H17.9167V17.2503C17.5694 16.8198 17.1458 16.4759 16.6458 16.2187C16.1458 15.9614 15.5972 15.8331 15 15.8337C14.4028 15.8337 13.8542 15.9623 13.3542 16.2195C12.8542 16.4767 12.4306 16.8203 12.0833 17.2503V17.917ZM15 15.0003C15.3472 15.0003 15.6425 14.8787 15.8858 14.6353C16.1292 14.392 16.2506 14.097 16.25 13.7503C16.25 13.4031 16.1283 13.1078 15.885 12.8645C15.6417 12.6212 15.3467 12.4998 15 12.5003C14.6528 12.5003 14.3575 12.622 14.1142 12.8653C13.8708 13.1087 13.7494 13.4037 13.75 13.7503C13.75 14.0975 13.8717 14.3928 14.115 14.6362C14.3583 14.8795 14.6533 15.0009 15 15.0003ZM7.70833 18.3337L7.375 15.667C7.19445 15.5975 7.02417 15.5142 6.86417 15.417C6.70417 15.3198 6.54806 15.2156 6.39583 15.1045L3.91667 16.1462L1.625 12.1878L3.77083 10.5628C3.75694 10.4656 3.75 10.3717 3.75 10.2812V9.71949C3.75 9.62894 3.75694 9.53505 3.77083 9.43783L1.625 7.81283L3.91667 3.85449L6.39583 4.89616C6.54861 4.78505 6.70833 4.68088 6.875 4.58366C7.04167 4.48644 7.20833 4.4031 7.375 4.33366L7.70833 1.66699H12.2917L12.625 4.33366C12.8056 4.4031 12.9758 4.48644 13.1358 4.58366C13.2958 4.68088 13.4519 4.78505 13.6042 4.89616L16.0833 3.85449L18.375 7.81283L16.6042 9.16699H12.8333C12.6389 8.56977 12.2917 8.0731 11.7917 7.67699C11.2917 7.28088 10.7083 7.0831 10.0417 7.08366C9.23611 7.08366 8.54861 7.36838 7.97917 7.93783C7.40972 8.50727 7.125 9.19477 7.125 10.0003C7.125 10.667 7.3125 11.2503 7.6875 11.7503C8.0625 12.2503 8.55556 12.5975 9.16667 12.792V18.3337H7.70833Z" fill="white"/>
</svg>
