<svg width="130" height="130" viewBox="0 0 130 130" fill="none" xmlns="http://www.w3.org/2000/svg">
<g clip-path="url(#clip0_1_116937)">
<path d="M65 0C29.102 0 0 29.102 0 65C0 100.898 29.102 130 65 130C100.898 130 130 100.898 130 65C130 29.102 100.898 0 65 0ZM65 125.667C31.4953 125.667 4.33342 98.5047 4.33342 65C4.33342 31.4953 31.4953 4.33342 65 4.33342C98.5047 4.33342 125.667 31.4953 125.667 65C125.667 98.5047 98.5047 125.667 65 125.667Z" fill="#9F4DEB"/>
<path d="M41.1666 65.0002C46.3615 65.0002 49.8332 58.0568 49.8332 49.8336C49.8332 41.6101 46.3615 34.667 41.1666 34.667C35.9714 34.667 32.5 41.6103 32.5 49.8336C32.5 58.0568 35.9717 65.0002 41.1666 65.0002ZM41.1666 39.0002C43.1519 39.0002 45.5 43.6962 45.5 49.8336C45.5 55.971 43.1519 60.667 41.1666 60.667C39.1813 60.667 36.8332 55.971 36.8332 49.8336C36.8332 43.6962 39.1813 39.0002 41.1666 39.0002Z" fill="#9F4DEB"/>
<path d="M88.8326 34.667C83.6374 34.667 80.166 41.6103 80.166 49.8336C80.166 58.0571 83.6377 65.0002 88.8326 65.0002C94.0275 65.0002 97.4992 58.0568 97.4992 49.8336C97.4992 41.6103 94.0275 34.667 88.8326 34.667ZM88.8326 60.667C86.8473 60.667 84.4992 55.971 84.4992 49.8336C84.4992 43.6962 86.8473 39.0002 88.8326 39.0002C90.8179 39.0002 93.166 43.6962 93.166 49.8336C93.166 55.971 90.8179 60.667 88.8326 60.667Z" fill="#9F4DEB"/>
<path d="M99.6658 30.3332C94.8738 30.3332 90.9992 26.4586 90.9992 21.6666C90.9992 20.4699 90.0293 19.5 88.8326 19.5C87.6359 19.5 86.666 20.4699 86.666 21.6666C86.666 28.8519 92.4807 34.6666 99.666 34.6666C100.863 34.6666 101.833 33.6967 101.833 32.5C101.833 31.3033 100.862 30.3332 99.6658 30.3332Z" fill="#9F4DEB"/>
<path d="M43.3343 21.6666C43.3343 20.4699 42.3644 19.5 41.1677 19.5C39.9711 19.5 39.0011 20.4699 39.0011 21.6666C39.0011 26.4586 35.1265 30.3332 30.3346 30.3332C29.1379 30.3332 28.168 31.3031 28.168 32.4997C28.168 33.6964 29.1379 34.6663 30.3346 34.6663C37.5196 34.6666 43.3343 28.8519 43.3343 21.6666Z" fill="#9F4DEB"/>
<path d="M65.001 75.833C53.3276 75.833 42.9325 82.0573 37.1261 92.0802C36.5264 93.1156 36.8796 94.4413 37.915 95.041C38.9504 95.6407 40.2761 95.2876 40.8758 94.2521C45.9204 85.5437 54.9018 80.1662 65.001 80.1662C75.1001 80.1662 84.0815 85.5437 89.1261 94.2521C89.7258 95.2876 91.0515 95.6407 92.0869 95.041C93.1224 94.4413 93.4755 93.1156 92.8758 92.0802C87.0695 82.057 76.6743 75.833 65.001 75.833Z" fill="#9F4DEB"/>
</g>
<defs>
<clipPath id="clip0_1_116937">
<rect width="130" height="130" fill="white"/>
</clipPath>
</defs>
</svg>
