<svg width="490" height="292" viewBox="0 0 490 292" fill="none" xmlns="http://www.w3.org/2000/svg">
<path fill-rule="evenodd" clip-rule="evenodd" d="M295 50C295 22.3858 272.614 0 245 0C217.386 0 195 22.3858 195 50H15C6.71573 50 0 56.7157 0 65V277C0 285.284 6.71572 292 15 292H475C483.284 292 490 285.284 490 277V65C490 56.7157 483.284 50 475 50H295Z" fill="white" fill-opacity="0.1"/>
<g clip-path="url(#clip0_1_103815)">
<path fill-rule="evenodd" clip-rule="evenodd" d="M229.977 28.539L220.512 38.0044C219.801 38.7154 219.845 39.2932 220.556 40.0041L249.619 69.0668C250.33 69.7779 250.907 69.8223 251.618 69.1113L264.906 55.8242C271.838 48.8919 271.26 41.5594 265.794 36.0936C261.884 32.183 257.795 30.761 253.129 32.0497C252.374 32.2719 252.018 32.183 251.663 31.8275C251.533 31.6974 251.426 31.5434 251.292 31.3482C251.242 31.2768 251.189 31.1998 251.13 31.1165C250.596 30.3166 249.708 29.0723 248.997 28.3613C243.397 22.762 236.243 22.2732 229.977 28.539ZM242.197 40.7597L239.931 43.0259C239.22 43.737 238.642 43.6925 237.931 42.9816L235.798 40.8485C235.087 40.1374 235.043 39.5598 235.754 38.8487L238.02 36.5824C239.176 35.427 240.82 35.2937 242.153 36.6268C243.53 38.0044 243.353 39.6042 242.197 40.7597ZM256.729 47.9143L250.774 53.869C250.063 54.58 249.486 54.5356 248.775 53.8246L246.641 51.6915C245.93 50.9806 245.886 50.4028 246.597 49.6919L252.552 43.7371C254.285 42.004 255.929 41.693 257.351 43.115C258.818 44.5815 258.462 46.1812 256.729 47.9143ZM223.067 53.2246C222.044 54.2473 222.044 55.9052 223.067 56.9279L241.583 75.4438C242.606 76.4665 244.263 76.4665 245.286 75.4438C246.309 74.4213 246.309 72.7632 245.286 71.7407L226.77 53.2246C225.747 52.2021 224.09 52.2021 223.067 53.2246Z" fill="#FF3567"/>
</g>
<defs>
<clipPath id="clip0_1_103815">
<rect width="50" height="52.2777" fill="white" transform="translate(220 24)"/>
</clipPath>
</defs>
</svg>
