<svg width="27" height="18" viewBox="0 0 27 18" fill="none" xmlns="http://www.w3.org/2000/svg">
<path d="M25.8554 11.3478C27.041 12.587 27.3055 14.0048 26.6491 15.6013C25.9951 17.2004 24.8257 18 23.1409 18L3.85908 18C2.17426 18 1.00487 17.2004 0.350911 15.6013C-0.305546 14.0048 -0.0409666 12.587 1.14465 11.3478L10.8792 1.17391C11.2536 0.78261 11.6592 0.489134 12.096 0.293482C12.5328 0.09783 13.0008 2.38419e-07 13.5 2.38419e-07C13.9992 2.38419e-07 14.4672 0.09783 14.904 0.293482C15.3408 0.489134 15.7464 0.78261 16.1208 1.17391L25.8554 11.3478Z" fill="white"/>
</svg>
