<svg width="20" height="20" viewBox="0 0 20 20" fill="none" xmlns="http://www.w3.org/2000/svg">
<path d="M3.125 8.75022C2.95924 8.75022 2.80027 8.68437 2.68306 8.56716C2.56585 8.44995 2.5 8.29098 2.5 8.12522V3.12646C2.5 2.9607 2.56585 2.80173 2.68306 2.68452C2.80027 2.56731 2.95924 2.50146 3.125 2.50146H8.125C8.29076 2.50146 8.44973 2.56731 8.56694 2.68452C8.68415 2.80173 8.75 2.9607 8.75 3.12646V8.12522C8.75 8.29098 8.68415 8.44995 8.56694 8.56716C8.44973 8.68437 8.29076 8.75022 8.125 8.75022H3.125ZM11.875 8.75022C11.7092 8.75022 11.5503 8.68437 11.4331 8.56716C11.3158 8.44995 11.25 8.29098 11.25 8.12522V3.12646C11.25 2.9607 11.3158 2.80173 11.4331 2.68452C11.5503 2.56731 11.7092 2.50146 11.875 2.50146H16.8737C17.0395 2.50146 17.1985 2.56731 17.3157 2.68452C17.4329 2.80173 17.4987 2.9607 17.4987 3.12646V8.12522C17.4987 8.29098 17.4329 8.44995 17.3157 8.56716C17.1985 8.68437 17.0395 8.75022 16.8737 8.75022H11.875ZM3.125 17.5002C2.95924 17.5002 2.80027 17.4344 2.68306 17.3172C2.56585 17.1999 2.5 17.041 2.5 16.8752V11.8752C2.5 11.7095 2.56585 11.5505 2.68306 11.4333C2.80027 11.3161 2.95924 11.2502 3.125 11.2502H8.125C8.29076 11.2502 8.44973 11.3161 8.56694 11.4333C8.68415 11.5505 8.75 11.7095 8.75 11.8752V16.8752C8.75 17.041 8.68415 17.1999 8.56694 17.3172C8.44973 17.4344 8.29076 17.5002 8.125 17.5002H3.125ZM11.875 17.5002C11.7092 17.5002 11.5503 17.4344 11.4331 17.3172C11.3158 17.1999 11.25 17.041 11.25 16.8752V11.8752C11.25 11.7095 11.3158 11.5505 11.4331 11.4333C11.5503 11.3161 11.7092 11.2502 11.875 11.2502H16.8737C17.0395 11.2502 17.1985 11.3161 17.3157 11.4333C17.4329 11.5505 17.4987 11.7095 17.4987 11.8752V16.8752C17.4987 17.041 17.4329 17.1999 17.3157 17.3172C17.1985 17.4344 17.0395 17.5002 16.8737 17.5002H11.875Z" fill="white"/>
</svg>
