<svg width="30" height="30" viewBox="0 0 30 30" fill="none" xmlns="http://www.w3.org/2000/svg">
<g clip-path="url(#clip0_1_110651)">
<path d="M1.25 5.93761H4.67C4.9383 6.92477 5.52397 7.79623 6.33666 8.41752C7.14935 9.03882 8.1439 9.37543 9.16687 9.37543C10.1898 9.37543 11.1844 9.03882 11.9971 8.41752C12.8098 7.79623 13.3955 6.92477 13.6637 5.93761H28.75C29.0815 5.93761 29.3995 5.80591 29.6339 5.57149C29.8683 5.33707 30 5.01913 30 4.68761C30 4.35609 29.8683 4.03814 29.6339 3.80372C29.3995 3.5693 29.0815 3.43761 28.75 3.43761H13.6637C13.3955 2.45044 12.8098 1.57899 11.9971 0.957694C11.1844 0.336398 10.1898 -0.000216007 9.16687 -0.000216007C8.1439 -0.000216007 7.14935 0.336398 6.33666 0.957694C5.52397 1.57899 4.9383 2.45044 4.67 3.43761H1.25C0.918479 3.43761 0.600537 3.5693 0.366117 3.80372C0.131696 4.03814 0 4.35609 0 4.68761C0 5.01913 0.131696 5.33707 0.366117 5.57149C0.600537 5.80591 0.918479 5.93761 1.25 5.93761ZM9.16625 2.50011C9.5989 2.50011 10.0218 2.6284 10.3816 2.86877C10.7413 3.10913 11.0217 3.45077 11.1872 3.85049C11.3528 4.2502 11.3961 4.69003 11.3117 5.11437C11.2273 5.5387 11.019 5.92848 10.713 6.2344C10.4071 6.54033 10.0173 6.74867 9.59301 6.83308C9.16868 6.91748 8.72884 6.87416 8.32913 6.70859C7.92942 6.54303 7.58778 6.26265 7.34741 5.90292C7.10704 5.54319 6.97875 5.12025 6.97875 4.68761C6.97941 4.10765 7.21009 3.55163 7.62018 3.14154C8.03028 2.73145 8.58629 2.50077 9.16625 2.50011Z" fill="white"/>
<path d="M28.75 13.7486H25.33C25.0621 12.7612 24.4767 11.8895 23.6641 11.2679C22.8515 10.6463 21.8568 10.3096 20.8337 10.3096C19.8107 10.3096 18.816 10.6463 18.0034 11.2679C17.1908 11.8895 16.6054 12.7612 16.3375 13.7486H1.25C0.918479 13.7486 0.600537 13.8803 0.366117 14.1147C0.131696 14.3492 0 14.6671 0 14.9986C0 15.3301 0.131696 15.6481 0.366117 15.8825C0.600537 16.1169 0.918479 16.2486 1.25 16.2486H16.3375C16.6054 17.236 17.1908 18.1078 18.0034 18.7293C18.816 19.3509 19.8107 19.6877 20.8337 19.6877C21.8568 19.6877 22.8515 19.3509 23.6641 18.7293C24.4767 18.1078 25.0621 17.236 25.33 16.2486H28.75C29.0815 16.2486 29.3995 16.1169 29.6339 15.8825C29.8683 15.6481 30 15.3301 30 14.9986C30 14.6671 29.8683 14.3492 29.6339 14.1147C29.3995 13.8803 29.0815 13.7486 28.75 13.7486ZM20.8337 17.1861C20.4011 17.1861 19.9782 17.0578 19.6184 16.8175C19.2587 16.5771 18.9783 16.2354 18.8128 15.8357C18.6472 15.436 18.6039 14.9962 18.6883 14.5719C18.7727 14.1475 18.981 13.7577 19.287 13.4518C19.5929 13.1459 19.9827 12.9376 20.407 12.8531C20.8313 12.7687 21.2712 12.8121 21.6709 12.9776C22.0706 13.1432 22.4122 13.4236 22.6526 13.7833C22.893 14.143 23.0212 14.566 23.0212 14.9986C23.0206 15.5786 22.7899 16.1346 22.3798 16.5447C21.9697 16.9548 21.4137 17.1855 20.8337 17.1861Z" fill="white"/>
<path d="M28.75 24.0628H13.6637C13.3955 23.0757 12.8098 22.2042 11.9971 21.5829C11.1844 20.9616 10.1898 20.625 9.16687 20.625C8.1439 20.625 7.14935 20.9616 6.33666 21.5829C5.52397 22.2042 4.9383 23.0757 4.67 24.0628H1.25C0.918479 24.0628 0.600537 24.1945 0.366117 24.4289C0.131696 24.6634 0 24.9813 0 25.3128C0 25.6443 0.131696 25.9623 0.366117 26.1967C0.600537 26.4311 0.918479 26.5628 1.25 26.5628H4.67C4.9383 27.55 5.52397 28.4214 6.33666 29.0427C7.14935 29.664 8.1439 30.0006 9.16687 30.0006C10.1898 30.0006 11.1844 29.664 11.9971 29.0427C12.8098 28.4214 13.3955 27.55 13.6637 26.5628H28.75C29.0815 26.5628 29.3995 26.4311 29.6339 26.1967C29.8683 25.9623 30 25.6443 30 25.3128C30 24.9813 29.8683 24.6634 29.6339 24.4289C29.3995 24.1945 29.0815 24.0628 28.75 24.0628ZM9.16625 27.5003C8.7336 27.5003 8.31067 27.372 7.95094 27.1317C7.59121 26.8913 7.31083 26.5497 7.14526 26.1499C6.9797 25.7502 6.93638 25.3104 7.02078 24.8861C7.10519 24.4617 7.31353 24.072 7.61945 23.766C7.92538 23.4601 8.31516 23.2518 8.73949 23.1674C9.16382 23.083 9.60366 23.1263 10.0034 23.2918C10.4031 23.4574 10.7447 23.7378 10.9851 24.0975C11.2255 24.4572 11.3538 24.8802 11.3538 25.3128C11.3528 25.8927 11.122 26.4485 10.712 26.8585C10.3019 27.2685 9.74611 27.4993 9.16625 27.5003Z" fill="white"/>
</g>
<defs>
<clipPath id="clip0_1_110651">
<rect width="30" height="30" fill="white"/>
</clipPath>
</defs>
</svg>
