<svg width="40" height="45" viewBox="0 0 40 45" fill="none" xmlns="http://www.w3.org/2000/svg">
<path d="M25.9771 41.3793L7.70118 30.8046C7.01152 30.4598 6.66669 29.7701 6.66669 28.9655V7.70104C6.66669 7.35621 6.32187 7.12632 6.09198 7.35621L2.29886 9.54012C0.919544 10.3447 0 11.839 0 13.5631V31.3793C0 32.9885 0.919544 34.4828 2.29886 35.4023L17.7012 44.3679C19.0805 45.1725 20.9196 45.1725 22.2989 44.3679L26.0921 42.1839C26.322 41.8391 26.3219 41.4943 25.9771 41.3793Z" fill="#9F4DEB"/>
<path d="M11.0345 28.8513L18.9656 33.449C19.6552 33.7939 20.4598 33.7939 21.0345 33.449L28.9656 28.8513C29.6553 28.5065 30.0001 27.8168 30.0001 27.0122V17.8168C30.0001 17.1271 29.6553 16.4375 28.9656 15.9777L21.0345 11.38C20.3449 11.0352 19.5403 11.0352 18.9656 11.38L17.0115 12.5294C16.8966 12.6444 16.6667 12.5294 16.6667 12.2995V1.83971C16.6667 1.49488 16.3219 1.26499 16.092 1.49488L11.0345 4.36846C10.3448 4.71328 10 5.40295 10 6.20755V26.8973C10 27.7019 10.3448 28.3915 11.0345 28.8513ZM15.6322 20.5754C15.6322 20.1157 15.8621 19.7708 16.2069 19.5409L19.3104 17.7018C19.6552 17.472 20.2299 17.472 20.5748 17.7018L23.6782 19.5409C24.023 19.7708 24.2529 20.2306 24.2529 20.5754V24.1387C24.2529 24.5984 24.023 24.9433 23.6782 25.1731L20.5748 27.0122C20.2299 27.2421 19.6552 27.2421 19.3104 27.0122L16.2069 25.2881C15.8621 25.0582 15.6322 24.5984 15.6322 24.2536V20.5754Z" fill="#9F4DEB"/>
<path d="M37.7012 9.54027L22.2989 0.574715C21.6092 0.229886 20.9195 0 20.2299 0C20.1149 0 20 0.114944 20 0.229887V6.78164C20 6.89658 20.1149 7.01152 20.2299 7.12647L32.2989 14.138C32.9886 14.4828 33.3334 15.1725 33.3334 15.9771V28.9656C33.3334 29.6553 32.9886 30.345 32.2989 30.8047L24.023 35.6323C23.7931 35.7473 23.7931 36.207 24.023 36.322L29.6552 39.5404C29.8851 39.6553 30.2299 39.6553 30.4598 39.5404L37.7012 35.2875C39.0805 34.4829 40.0001 32.9886 40.0001 31.2645V13.4483C39.8851 11.8391 39.0805 10.3449 37.7012 9.54027Z" fill="#9F4DEB"/>
</svg>
