<svg width="30" height="30" viewBox="0 0 30 30" fill="none" xmlns="http://www.w3.org/2000/svg">
<path d="M14.0125 3.75086C11.8847 3.94749 9.857 4.74603 8.16652 6.05305C6.47604 7.36006 5.19276 9.12149 4.46683 11.1312C3.7409 13.141 3.60235 15.3159 4.06739 17.4015C4.53243 19.4871 5.58182 21.3971 7.09278 22.9081C8.60374 24.419 10.5138 25.4684 12.5994 25.9335C14.685 26.3985 16.8599 26.26 18.8696 25.534C20.8794 24.8081 22.6408 23.5248 23.9478 21.8343C25.2548 20.1439 26.0534 18.1161 26.25 15.9884C24.5647 17.2341 22.4882 17.8335 20.3982 17.6777C18.3083 17.5218 16.3437 16.621 14.8618 15.1391C13.3798 13.6572 12.479 11.6926 12.3232 9.60262C12.1673 7.51267 12.7668 5.43619 14.0125 3.75086Z" stroke="white" stroke-width="2" stroke-linecap="round" stroke-linejoin="round"/>
</svg>
