<svg width="7" height="5" viewBox="0 0 7 5" fill="none" xmlns="http://www.w3.org/2000/svg">
<mask id="mask0_1_106624" style="mask-type:alpha" maskUnits="userSpaceOnUse" x="0" y="-2" width="8" height="9">
<rect width="7" height="7" transform="matrix(1.10891 0 0 -1.10891 0 6.40439)" fill="#D9D9D9"/>
</mask>
<g mask="url(#mask0_1_106624)">
<path d="M2.81942 0.291522L0.296644 2.81429C-0.0106168 3.12156 -0.0791844 3.47313 0.0909411 3.86901C0.261066 4.26489 0.564123 4.46315 1.00011 4.4638H5.99714C6.43377 4.4638 6.73715 4.26554 6.90728 3.86901C7.0774 3.47248 7.00851 3.12091 6.7006 2.81429L4.17783 0.291522C4.0808 0.194492 3.97569 0.12172 3.86249 0.0732056C3.74928 0.0246909 3.628 0.000432534 3.49862 0.000432534C3.36925 0.000432534 3.24796 0.0246909 3.13476 0.0732056C3.02156 0.12172 2.91645 0.194492 2.81942 0.291522Z" fill="#05011D"/>
</g>
</svg>
