<svg width="20" height="20" viewBox="0 0 20 20" fill="none" xmlns="http://www.w3.org/2000/svg">
<path d="M17.5846 7.39453L10.5846 14.4154C10.5013 14.4987 10.411 14.5576 10.3138 14.592C10.2166 14.627 10.1124 14.6445 10.0013 14.6445C9.89019 14.6445 9.78603 14.627 9.6888 14.592C9.59158 14.5576 9.5013 14.4987 9.41797 14.4154L2.39714 7.39453C2.20269 7.20009 2.10547 6.95703 2.10547 6.66536C2.10547 6.3737 2.20964 6.1237 2.41797 5.91537C2.6263 5.70703 2.86936 5.60287 3.14714 5.60287C3.42491 5.60287 3.66797 5.70703 3.8763 5.91537L10.0013 12.0404L16.1263 5.91536C16.3207 5.72092 16.5602 5.6237 16.8446 5.6237C17.1296 5.6237 17.3763 5.72786 17.5846 5.9362C17.793 6.14453 17.8971 6.38759 17.8971 6.66536C17.8971 6.94314 17.793 7.1862 17.5846 7.39453Z" fill="white"/>
</svg>
