<svg width="20" height="20" viewBox="0 0 20 20" fill="none" xmlns="http://www.w3.org/2000/svg">
<g clip-path="url(#clip0_1_100820)">
<path d="M9.9987 5.41667C11.531 5.41157 13.0336 5.83899 14.3338 6.64977C15.634 7.46056 16.679 8.6218 17.3487 10C15.9737 12.8083 13.1654 14.5833 9.9987 14.5833C6.83203 14.5833 4.0237 12.8083 2.6487 10C3.31838 8.6218 4.36339 7.46056 5.6636 6.64977C6.9638 5.83899 8.46642 5.41157 9.9987 5.41667ZM9.9987 3.75C5.83203 3.75 2.2737 6.34167 0.832031 10C2.2737 13.6583 5.83203 16.25 9.9987 16.25C14.1654 16.25 17.7237 13.6583 19.1654 10C17.7237 6.34167 14.1654 3.75 9.9987 3.75ZM9.9987 7.91667C10.5512 7.91667 11.0811 8.13616 11.4718 8.52686C11.8625 8.91756 12.082 9.44747 12.082 10C12.082 10.5525 11.8625 11.0824 11.4718 11.4731C11.0811 11.8638 10.5512 12.0833 9.9987 12.0833C9.44616 12.0833 8.91626 11.8638 8.52556 11.4731C8.13486 11.0824 7.91536 10.5525 7.91536 10C7.91536 9.44747 8.13486 8.91756 8.52556 8.52686C8.91626 8.13616 9.44616 7.91667 9.9987 7.91667ZM9.9987 6.25C7.93203 6.25 6.2487 7.93333 6.2487 10C6.2487 12.0667 7.93203 13.75 9.9987 13.75C12.0654 13.75 13.7487 12.0667 13.7487 10C13.7487 7.93333 12.0654 6.25 9.9987 6.25Z" fill="white"/>
</g>
<defs>
<clipPath id="clip0_1_100820">
<rect width="20" height="20" fill="white"/>
</clipPath>
</defs>
</svg>
