<svg width="40" height="40" viewBox="0 0 40 40" fill="none" xmlns="http://www.w3.org/2000/svg">
<path d="M26.6667 22.5C27.3889 22.5 27.9861 22.2639 28.4583 21.7917C28.9306 21.3194 29.1667 20.7222 29.1667 20C29.1667 19.2778 28.9306 18.6806 28.4583 18.2083C27.9861 17.7361 27.3889 17.5 26.6667 17.5C25.9444 17.5 25.3472 17.7361 24.875 18.2083C24.4028 18.6806 24.1667 19.2778 24.1667 20C24.1667 20.7222 24.4028 21.3194 24.875 21.7917C25.3472 22.2639 25.9444 22.5 26.6667 22.5ZM21.6667 28.3333C20.75 28.3333 19.965 28.0067 19.3117 27.3533C18.6583 26.7 18.3322 25.9156 18.3333 25V15C18.3333 14.0833 18.66 13.2983 19.3133 12.645C19.9667 11.9917 20.7511 11.6656 21.6667 11.6667H33.3333C34.25 11.6667 35.035 11.9933 35.6883 12.6467C36.3417 13.3 36.6678 14.0844 36.6667 15V25C36.6667 25.9167 36.34 26.7017 35.6867 27.355C35.0333 28.0083 34.2489 28.3344 33.3333 28.3333H21.6667ZM8.33334 35C7.41667 35 6.63167 34.6733 5.97834 34.02C5.325 33.3667 4.99889 32.5822 5 31.6667V8.33334C5 7.41667 5.32667 6.63167 5.98 5.97834C6.63334 5.325 7.41778 4.99889 8.33334 5H31.6667C32.5833 5 33.3683 5.32667 34.0217 5.98C34.675 6.63334 35.0011 7.41778 35 8.33334H21.6667C19.6944 8.33334 18.09 8.95167 16.8533 10.1883C15.6167 11.425 14.9989 13.0289 15 15V25C15 26.9722 15.6183 28.5767 16.855 29.8133C18.0917 31.05 19.6956 31.6678 21.6667 31.6667H35C35 32.5833 34.6733 33.3683 34.02 34.0217C33.3667 34.675 32.5822 35.0011 31.6667 35H8.33334Z" fill="white"/>
</svg>
