<svg width="35" height="35" viewBox="0 0 35 35" fill="none" xmlns="http://www.w3.org/2000/svg">
<path d="M17.4828 2.91699C9.43281 2.91699 2.91406 9.45033 2.91406 17.5003C2.91406 25.5503 9.43281 32.0837 17.4828 32.0837C25.5474 32.0837 32.0807 25.5503 32.0807 17.5003C32.0807 9.45033 25.5474 2.91699 17.4828 2.91699ZM12.3932 11.667C13.6036 11.667 14.5807 12.6441 14.5807 13.8545C14.5807 15.0649 13.6036 16.042 12.3932 16.042C11.1828 16.042 10.2057 15.0649 10.2057 13.8545C10.2057 12.6441 11.1828 11.667 12.3932 11.667ZM17.4974 26.2503C14.1724 26.2503 11.3432 23.8295 10.2057 20.417H24.7891C23.6516 23.8295 20.8224 26.2503 17.4974 26.2503ZM22.6016 16.042C21.3911 16.042 20.4141 15.0649 20.4141 13.8545C20.4141 12.6441 21.3911 11.667 22.6016 11.667C23.812 11.667 24.7891 12.6441 24.7891 13.8545C24.7891 15.0649 23.812 16.042 22.6016 16.042Z" fill="#142029"/>
</svg>
