<svg width="35" height="35" viewBox="0 0 35 35" fill="none" xmlns="http://www.w3.org/2000/svg">
<path d="M24.2081 8.4875C23.2112 7.34945 22.6618 5.88792 22.6622 4.375H18.156V22.4583C18.1212 23.4369 17.7081 24.3638 17.0036 25.0439C16.299 25.7239 15.3581 26.104 14.3789 26.1042C12.3081 26.1042 10.5872 24.4125 10.5872 22.3125C10.5872 19.8042 13.0081 17.9229 15.5018 18.6958V14.0875C10.4706 13.4167 6.06641 17.325 6.06641 22.3125C6.06641 27.1688 10.0914 30.625 14.3643 30.625C18.9435 30.625 22.6622 26.9063 22.6622 22.3125V13.1396C24.4895 14.4519 26.6834 15.1559 28.9331 15.1521V10.6458C28.9331 10.6458 26.1914 10.7771 24.2081 8.4875Z" fill="white"/>
</svg>
